<?xml version="1.0" encoding="UTF-8"?><svg id="game_over" xmlns="http://www.w3.org/2000/svg" width="80" height="110" viewBox="0 0 80 110"><defs><style>.cls-1{fill:#fa1c24;stroke-width:0px;}</style></defs><path class="cls-1" d="m14.71,5.23c-1.26.62,16.36,23.76,7.83,42.81C16.24,62.11-.76,66,.03,67.74c.89,1.94,23.54-.08,31.57-14.64C42.84,32.71,16.15,4.52,14.71,5.23Z"/><path class="cls-1" d="m37.95,0c1.38-.19.04,32.05,19.59,43.38,10.54,6.11,22.32,3.34,22.46,5.26.16,2.25-15.7,9.18-27.54,3.76C31.43,42.79,36.38.22,37.95,0Z"/><path class="cls-1" d="m43.41,110c-1.49-.07,3.74-26.45-8.79-34.33-9.77-6.15-24.45,2.66-24.98,1.23-.65-1.72,19.67-17.55,32.12-10.54,15.41,8.69,3.37,43.71,1.65,43.63Z"/><path class="cls-1" d="m77.59,99.19c1.21-1.11-19.85-19.15-14.69-31.46,3.33-7.96,15.74-9.06,15.37-10.4-.49-1.82-23.89-2.08-28.28,7.94-5.83,13.32,26.18,35.23,27.6,33.92Z"/></svg>