<?xml version="1.0" encoding="UTF-8"?><svg id="bad_madrest" xmlns="http://www.w3.org/2000/svg" width="115" height="117.39" viewBox="0 0 115 117.39"><defs><style>.cls-1{fill:#bfbfbf;}.cls-1,.cls-2{stroke-width:0px;}.cls-2{fill:#fff;}</style></defs><path class="cls-2" d="m99.36,100.28c-1.57,1.39.28,4.01-.64,9.45-.39,2.27-1.08,5.74-3.49,7.21-3.49,2.12-9.52-.67-13.11-4.09-4.8-4.56-3.32-8.38-7.39-16.19-1.9-3.65-5.46-7.34-12.49-14.56-8.23-8.45-14.9-14.47-16.34-15.76-14.46-12.99-21.69-19.49-28.46-22.42-2.11-.91-5.39-2.18-9.03-5.19C6.32,36.99-1.55,30.5.02,23.57c.05-.22,1.05-4.37,4.52-6.21,3.5-1.85,6.46.26,7.92-1.43,1.87-2.16-2.33-6.39-.91-10.44C12.72,2.17,17.37-.33,21.2-.3c9.3.08,12.04,15.16,28.36,33.4,3.51,3.92,7.35,7.28,15.04,14,6.57,5.74,10.69,8.82,27.09,21.54,18.92,14.67,24.68,19.26,23.71,24.45-.56,2.97-3.4,6.56-6.81,7.53-4.07,1.15-7.35-1.99-9.22-.34Z"/><path class="cls-1" d="m37.57,17.51s.2-.45-2.09-3.02c-6.82-7.68-10.23-11.52-14.25-12.23-4.57-.82-8.43,1.43-8.43,1.43-.2-.49,3.89-4.12,8.39-3.99C30.73-.02,37.93,17.25,37.57,17.51Z"/><path class="cls-1" d="m109.86,100.33c-4.18,2.22-9.87.71-9.99-.58-.16-1.7,9.43-2.01,10.66-6.83.5-1.98-.47-4.49-1.37-6.86-1.87-4.92-4.68-7.09-4.45-7.31.46-.44,12.02,7.6,10.69,14.34-.15.76-.73,2.45-1.99,4.12-.35.47-1.61,2.1-3.54,3.13Z"/><path class="cls-1" d="m3.32,21.72C.79,24.62.55,27.24.06,27.14c-.59-.12-1.22-4.22.93-7.16,1.23-1.69,3.49-3.16,5.84-3.43,1.27-.15,1.78.15,2.81-.31,2.11-.93,2.49-3.26,3.03-3.12.6.15,1.05,3.27-.45,4.6-1.18,1.05-2.45.02-4.85.86-1.89.66-3.04,1.98-4.05,3.14Z"/><path class="cls-1" d="m95.24,116.94c-4.87,2.55-11.18-2.13-11.04-2.6.11-.37,4.27,1.48,8.18-.66.66-.36,1.38-.76,2.03-1.57,2.42-3.06-.54-6.66,1.66-9.98,1.28-1.93,3.55-2.64,3.81-2.37.22.24-1.53,1.62-1.23,3.34.07.4.22.67.27.76.83,1.63,1.53,10.36-3.66,13.08Z"/><path class="cls-1" d="m104.7,78.75c-.28.41-16.69-8.95-34.62-23.33-13.83-11.09-20.25-18.5-24.92-25.04-5.58-7.83-8.88-14.75-8.65-14.89.28-.17,5.4,9.25,15.37,19.87,3.31,3.52,6.1,6.06,8.3,8.01,19.27,17.07,44.87,34.86,44.51,35.39Z"/><path class="cls-1" d="m84.19,114.34c.23-.21-1.94-2.27-3.67-6.05-1.42-3.12-1.77-5.72-1.88-6.34-1.41-8.15-18.57-24.6-29.4-34.91-8.35-7.95-17.58-16.64-24.59-20.2-1.31-.67-4.5-2.15-9.79-4.92-3.69-1.93-6.32-3.4-6.44-3.2-.11.18,1.8,1.56,3.11,2.49,4.81,3.44,7.91,4.23,11.6,6.16,2.15,1.13,4.88,3.41,10.35,7.97,3.61,3.02,6.95,6.06,10.39,9.18,1.15,1.04,2.32,2.12,3.6,3.31,5.43,5.05,8.15,7.57,11.67,11.26,9.91,10.38,14.87,15.56,16.16,21.13.42,1.8.96,5.2,3.45,8.86,2.27,3.34,5.2,5.48,5.45,5.25Z"/></svg>