<?xml version="1.0" encoding="UTF-8"?><svg id="ralfie" xmlns="http://www.w3.org/2000/svg" width="372.18" height="177.74" viewBox="0 0 372.18 177.74"><defs><style>.cls-1{fill:#d9b7fa;}.cls-1,.cls-2,.cls-3,.cls-4,.cls-5,.cls-6,.cls-7,.cls-8,.cls-9,.cls-10,.cls-11,.cls-12,.cls-13,.cls-14,.cls-15,.cls-16,.cls-17,.cls-18,.cls-19,.cls-20,.cls-21,.cls-22,.cls-23,.cls-24,.cls-25,.cls-26,.cls-27,.cls-28,.cls-29,.cls-30,.cls-31,.cls-32{stroke-width:0px;}.cls-2{fill:#e5bbf5;}.cls-3{fill:#f3bfee;}.cls-4{fill:#ddb8f8;}.cls-5{fill:#f5c0ed;}.cls-6{fill:#ebbdf2;}.cls-7{fill:#f6c0ed;}.cls-8{fill:#eabcf2;}.cls-9{fill:#e1b9f7;}.cls-10{fill:#f1beef;}.cls-11{fill:#f3cfed;}.cls-12{fill:#f0bef0;}.cls-13{fill:#e0b9f7;}.cls-14{fill:#dfb9f7;}.cls-15{fill:#dab7fa;}.cls-16{fill:#efbef0;}.cls-17{fill:#e9bcf3;}.cls-18{fill:#dbb8f9;}.cls-19{fill:#e4baf5;}.cls-20{fill:#f2bfef;}.cls-21{fill:#e8bcf3;}.cls-22{fill:#e3baf6;}.cls-23{fill:#ecbdf1;}.cls-24{fill:#edbdf1;}.cls-25{fill:#deb9f8;}.cls-26{fill:#e6bbf4;}.cls-27{fill:#f4bfee;}.cls-28{fill:#e2baf6;}.cls-29{fill:#eebef0;}.cls-30{fill:#e7bbf4;}.cls-31{fill:#dcb8f9;}.cls-32{fill:#f2f2f2;}</style></defs><path class="cls-11" d="m346.23,61.06c-2.08-13.64-11.6-21.43-18.68-20.29-4.32.7-8.34,4.81-9.77,9.26-1.01,3.13-.69,6.28,2.41,14.44,2,5.26,5.04,12.3,9.63,20.32"/><path class="cls-11" d="m346.14,60.94c13.49-2.91,24.16,3.2,25.61,10.23.89,4.28-1.52,9.5-5.17,12.43-2.57,2.06-5.62,2.88-14.35,2.89-5.62,0-13.29-.32-22.42-1.76"/><path class="cls-32" d="m326.3,47.41c-.46,1.14-1.96,1.87-2.88,1.32-.6-.35-.84-1.18-.73-1.82.24-1.41,2.26-2.39,3.19-1.77.62.41.74,1.5.42,2.27Z"/><path class="cls-32" d="m338.13,50.43c-.3.66-1.07,1.31-1.85,1.27-1.86-.09-1.97-3.99-4.53-4.73-1.53-.45-2.7.61-3.48-.17-.54-.54-.55-1.62-.14-2.3.81-1.35,3.29-1.27,4.76-.87,3.39.92,6.15,4.78,5.23,6.81Z"/><path class="cls-1" d="m324.89,75.46c.76,1.62,1.6,3.3,2.5,5.01.78,1.48,1.57,2.9,2.36,4.25,3.98.6,7.29,1.03,9.64,1.33,0,0,10.01,1.25,18.55.84,1.54-.07,4.53-.28,7.42-2.17.62-.4,1.08-.79,1.37-1.04.35-.27,1.81-1.46,3.13-3.34s2.5-4.44,2.29-7.46c-.12-1.64-.62-3.03-1.16-4.09-2.5-.74-6.22-1.66-10.81-2.09s-10.05-.37-16.04.84c-8.75,1.77-15.29,5.31-19.26,7.9Z"/><path class="cls-15" d="m344.28,67.53c5.96-1.19,11.4-1.25,15.97-.82,4.62.43,8.33,1.35,10.75,2.09.52,1.04.94,2.38,1,3.98.11,2.93-1.08,5.4-2.44,7.23s-2.78,2.96-3.15,3.25c-.3.23-.76.62-1.37,1.01-1.59,1.01-3.2,1.53-4.6,1.81-1.13.23-2.11.29-2.8.32-1.69.09-3.42.11-5.18.1-6.85-.06-13.17-.82-13.28-.81-2.45.06-5.74-.67-9.59-1.27-.77-1.32-1.48-2.73-2.19-4.19-.82-1.69-1.6-3.31-2.29-4.91,3.99-2.57,10.5-6.06,19.17-7.79Z"/><path class="cls-18" d="m344.4,67.51c5.93-1.17,11.35-1.23,15.9-.8,4.65.43,8.36,1.36,10.69,2.09.5,1.01.85,2.31.85,3.86,0,2.83-1.2,5.21-2.59,7.01s-2.77,2.86-3.18,3.15c-.31.22-.77.6-1.38.98-1.58.99-3.19,1.5-4.59,1.77-1.13.22-2.1.29-2.78.33-1.67.09-3.38.13-5.15.12-6.76-.02-13-.73-13.21-.72-2.53.09-5.82-.61-9.54-1.21-.74-1.29-1.38-2.68-2.02-4.12-.74-1.66-1.47-3.24-2.08-4.8,3.99-2.54,10.48-5.97,19.08-7.68Z"/><path class="cls-31" d="m344.53,67.48c5.91-1.16,11.31-1.2,15.83-.78,4.68.44,8.39,1.37,10.64,2.1.48.99.75,2.24.69,3.75-.11,2.73-1.31,5.02-2.74,6.79-1.35,1.67-2.77,2.76-3.2,3.06-.32.22-.78.59-1.38.96-1.57.96-3.17,1.46-4.57,1.74-1.13.22-2.09.29-2.77.33-1.65.1-3.33.14-5.12.15-6.68.02-12.83-.64-13.14-.62-2.61.11-5.89-.55-9.49-1.15-.72-1.26-1.28-2.64-1.85-4.05-.65-1.62-1.33-3.17-1.87-4.69,4-2.51,10.47-5.89,18.99-7.57Z"/><path class="cls-4" d="m344.65,67.46c5.88-1.14,11.26-1.18,15.76-.76,4.71.44,8.42,1.38,10.58,2.1.47.96.65,2.17.54,3.64-.21,2.63-1.42,4.84-2.89,6.57-1.36,1.6-2.76,2.67-3.23,2.96-.33.21-.78.57-1.38.93-1.56.93-3.15,1.42-4.56,1.7-1.13.22-2.08.29-2.76.34-1.63.1-3.28.15-5.1.17-6.59.06-12.65-.55-13.07-.53-2.7.14-5.97-.49-9.44-1.08-.7-1.22-1.18-2.59-1.68-3.99-.57-1.59-1.2-3.1-1.66-4.59,4.01-2.49,10.45-5.81,18.89-7.45Z"/><path class="cls-25" d="m344.78,67.43c5.85-1.12,11.21-1.16,15.69-.74,4.74.44,8.44,1.39,10.53,2.11.45.94.56,2.09.38,3.52-.31,2.53-1.53,4.65-3.04,6.34-1.37,1.53-2.75,2.57-3.25,2.87-.33.2-.79.55-1.39.9-1.55.9-3.14,1.38-4.55,1.66-1.13.22-2.07.29-2.75.34-1.62.11-3.23.17-5.07.2-6.5.1-12.48-.46-13.01-.43-2.78.16-6.05-.43-9.4-1.02-.68-1.19-1.08-2.54-1.51-3.92-.49-1.56-1.06-3.02-1.45-4.48,4.01-2.46,10.44-5.73,18.8-7.34Z"/><path class="cls-14" d="m344.91,67.41c5.82-1.1,11.16-1.14,15.62-.72,4.77.45,8.47,1.4,10.47,2.11.43.91.46,2.01.23,3.41-.41,2.42-1.63,4.46-3.19,6.12-1.37,1.46-2.74,2.48-3.28,2.78-.34.19-.8.54-1.39.88-1.54.88-3.12,1.35-4.54,1.62-1.13.22-2.06.3-2.73.35-1.6.12-3.18.18-5.04.22-6.42.14-12.31-.38-12.94-.34-2.86.19-6.13-.37-9.35-.96-.65-1.16-.97-2.49-1.34-3.85-.4-1.52-.93-2.95-1.24-4.38,4.02-2.43,10.42-5.64,18.71-7.23Z"/><path class="cls-13" d="m345.03,67.39c5.79-1.09,11.12-1.12,15.55-.7,4.8.45,8.5,1.41,10.41,2.11.41.89.37,1.93.07,3.3-.51,2.31-1.74,4.28-3.33,5.9-1.37,1.4-2.73,2.38-3.3,2.68-.35.18-.8.52-1.39.85-1.53.85-3.1,1.31-4.52,1.58-1.13.22-2.05.3-2.72.35-1.58.12-3.13.19-5.01.25-6.33.18-12.14-.29-12.87-.24-2.95.21-6.2-.31-9.3-.9-.63-1.12-.87-2.43-1.17-3.79-.32-1.48-.79-2.88-1.03-4.27,4.03-2.41,10.41-5.56,18.62-7.11Z"/><path class="cls-9" d="m345.16,67.36c5.77-1.07,11.07-1.1,15.48-.68,4.83.45,8.53,1.42,10.36,2.12.39.86.28,1.85-.08,3.18-.6,2.2-1.85,4.09-3.48,5.67-1.37,1.33-2.72,2.29-3.33,2.59-.35.18-.81.5-1.39.82-1.52.82-3.09,1.27-4.51,1.54-1.13.22-2.04.3-2.71.35-1.56.13-3.08.21-4.98.27-6.24.22-11.97-.21-12.81-.14-3.03.24-6.28-.24-9.25-.84-.61-1.09-.77-2.37-1-3.72-.24-1.44-.66-2.81-.82-4.17,4.04-2.38,10.39-5.48,18.52-7Z"/><path class="cls-28" d="m345.28,67.34c5.74-1.05,11.02-1.07,15.41-.66,4.86.45,8.55,1.43,10.3,2.12.38.84.19,1.76-.24,3.07-.68,2.08-1.95,3.9-3.63,5.45-1.37,1.26-2.71,2.19-3.35,2.5-.36.17-.82.49-1.4.79-1.51.79-3.07,1.23-4.5,1.51-1.12.22-2.03.3-2.7.36-1.54.13-3.03.22-4.96.3-6.16.25-11.8-.13-12.74-.05-3.11.26-6.36-.18-9.2-.78-.58-1.06-.67-2.32-.82-3.66s-.52-2.73-.61-4.06c4.04-2.35,10.37-5.4,18.43-6.89Z"/><path class="cls-22" d="m345.41,67.32c5.71-1.03,10.97-1.05,15.34-.64,4.89.46,8.58,1.44,10.25,2.13.36.81.1,1.67-.39,2.96-.76,1.97-2.05,3.72-3.78,5.23-1.37,1.2-2.7,2.1-3.37,2.4-.36.16-.82.47-1.4.77-1.5.76-3.05,1.19-4.48,1.47-1.12.22-2.02.3-2.68.36-1.52.14-2.98.23-4.93.32-6.07.29-11.62-.05-12.67.05-3.2.29-6.44-.12-9.15-.72-.56-1.03-.57-2.25-.65-3.59s-.39-2.66-.4-3.96c4.05-2.33,10.36-5.31,18.34-6.77Z"/><path class="cls-19" d="m345.54,67.29c5.68-1.02,10.92-1.03,15.27-.63,4.92.46,8.61,1.45,10.19,2.13.34.79.24,1.71-.55,2.84-.47,1.98-2.15,3.53-3.93,5-1.37,1.13-2.69,2.01-3.4,2.31-.37.16-.83.46-1.4.74-1.49.74-3.04,1.16-4.47,1.43-1.12.21-2.01.3-2.67.37-1.51.14-2.93.24-4.9.35-5.98.32-11.45.03-12.61.14-3.28.31-6.51-.06-9.1-.66-.54-.99-.48-2.19-.48-3.52s-.25-2.59-.19-3.85c4.06-2.3,10.34-5.23,18.24-6.66Z"/><path class="cls-2" d="m345.66,67.27c5.65-1,10.88-1.01,15.2-.61,4.95.46,8.64,1.46,10.13,2.13.32.76.17,1.65-.7,2.73-.53,1.88-2.25,3.34-4.08,4.78-1.36,1.07-2.68,1.91-3.42,2.22-.37.15-.84.44-1.4.71-1.48.71-3.02,1.12-4.46,1.39-1.12.21-2,.31-2.66.37-1.49.15-2.88.26-4.87.37-5.9.35-11.28.11-12.54.24-3.37.34-6.59,0-9.05-.59-.52-.96-.38-2.12-.31-3.46s-.12-2.51.02-3.74c4.07-2.27,10.33-5.15,18.15-6.55Z"/><path class="cls-26" d="m345.79,67.25c5.63-.98,10.83-.99,15.13-.59,4.98.47,8.67,1.47,10.08,2.14.3.74.1,1.58-.86,2.62-.59,1.79-2.35,3.16-4.23,4.56-1.36,1.01-2.67,1.82-3.45,2.12-.38.15-.84.42-1.41.68-1.48.68-3.01,1.08-4.44,1.35-1.12.21-1.99.31-2.65.37-1.47.15-2.83.27-4.84.4-5.81.38-11.11.19-12.47.33-3.45.36-6.67.06-9-.53-.49-.93-.29-2.06-.14-3.39.13-1.21.02-2.44.23-3.64,4.07-2.25,10.31-5.07,18.06-6.43Z"/><path class="cls-30" d="m345.92,67.22c5.6-.96,10.78-.97,15.06-.57,5.01.47,8.69,1.48,10.02,2.14.28.71.03,1.51-1.01,2.5-.65,1.69-2.45,2.98-4.38,4.34-1.35.95-2.65,1.73-3.47,2.03-.38.14-.85.41-1.41.66-1.47.65-2.99,1.04-4.43,1.31-1.12.21-1.98.31-2.64.38-1.45.16-2.78.28-4.82.42-5.72.41-10.94.27-12.4.43-3.54.39-6.75.12-8.95-.47-.47-.9-.2-1.99.03-3.32.2-1.17.15-2.37.44-3.53,4.08-2.22,10.3-4.98,17.97-6.32Z"/><path class="cls-21" d="m346.04,67.2c5.57-.94,10.73-.94,14.99-.55,5.04.47,8.72,1.49,9.96,2.14.27.69-.05,1.45-1.17,2.39-.72,1.6-2.54,2.79-4.53,4.11-1.34.89-2.64,1.64-3.5,1.94-.39.14-.86.39-1.41.63-1.46.62-2.97,1-4.42,1.28-1.12.21-1.97.31-2.62.38-1.43.16-2.73.29-4.79.45-5.64.44-10.77.35-12.34.53-3.63.41-6.83.18-8.9-.41-.45-.86-.11-1.92.2-3.26.26-1.12.29-2.3.65-3.43,4.09-2.2,10.28-4.9,17.87-6.21Z"/><path class="cls-21" d="m346.17,67.18c5.54-.93,10.69-.92,14.92-.53,5.07.48,8.75,1.5,9.91,2.15.25.66-.12,1.38-1.32,2.28-.78,1.5-2.64,2.61-4.68,3.89-1.33.83-2.63,1.55-3.52,1.84-.4.13-.86.37-1.42.6-1.45.6-2.96.97-4.41,1.24-1.12.21-1.96.31-2.61.39-1.41.17-2.68.3-4.76.47-5.55.47-10.6.42-12.27.62-3.71.44-6.9.24-8.85-.35-.43-.83-.25-1.94.37-3.19.12-1.11.42-2.22.86-3.32,4.09-2.17,10.26-4.82,17.78-6.09Z"/><path class="cls-17" d="m346.29,67.15c5.51-.91,10.64-.9,14.85-.51,5.1.48,8.78,1.51,9.85,2.15.23.64-.19,1.31-1.48,2.16-.84,1.41-2.73,2.44-4.83,3.67-1.32.78-2.62,1.46-3.55,1.75-.4.13-.87.36-1.42.58-1.44.57-2.94.93-4.39,1.2-1.11.21-1.95.31-2.6.39-1.39.17-2.63.31-4.73.5-5.46.49-10.43.5-12.2.72-3.8.46-6.98.3-8.8-.29-.4-.8.05-1.79.54-3.12.37-1.02.56-2.15,1.07-3.22,4.1-2.14,10.25-4.73,17.69-5.98Z"/><path class="cls-8" d="m346.42,67.13c5.49-.89,10.59-.88,14.78-.49,5.13.48,8.8,1.52,9.8,2.16.21.61-.26,1.25-1.63,2.05-.9,1.31-2.82,2.26-4.98,3.44-1.31.72-2.61,1.37-3.57,1.66-.41.12-.88.34-1.42.55-1.43.54-2.92.89-4.38,1.16-1.11.21-1.94.31-2.59.4-1.38.17-2.58.32-4.7.52-5.38.52-10.26.58-12.14.81-3.88.49-7.06.36-8.76-.23-.38-.76.13-1.72.71-3.06.42-.97.69-2.08,1.28-3.11,4.11-2.12,10.23-4.65,17.59-5.87Z"/><path class="cls-6" d="m346.55,67.1c5.46-.87,10.54-.86,14.71-.47,5.16.48,8.83,1.53,9.74,2.16.19.59-.34,1.18-1.79,1.94-.96,1.22-2.91,2.09-5.13,3.22-1.3.67-2.6,1.28-3.6,1.56-.41.12-.88.32-1.42.52-1.42.51-2.91.85-4.37,1.12-1.11.21-1.93.32-2.57.4-1.36.18-2.53.33-4.68.55-5.29.54-10.09.65-12.07.91-3.97.51-7.14.42-8.71-.16-.36-.73.2-1.66.88-2.99.48-.93.83-2.01,1.49-3.01,4.12-2.09,10.22-4.57,17.5-5.76Z"/><path class="cls-23" d="m346.67,67.08c5.43-.86,10.5-.84,14.64-.45,5.19.49,8.86,1.54,9.68,2.16.17.56-.41,1.11-1.94,1.83-1.02,1.12-3,1.92-5.28,3-1.29.61-2.58,1.19-3.62,1.47-.42.11-.89.31-1.43.49-1.41.48-2.89.82-4.35,1.08-1.11.2-1.92.32-2.56.4-1.34.18-2.48.34-4.65.57-5.2.57-9.92.73-12,1-4.06.54-7.21.49-8.66-.1-.34-.7.27-1.6,1.05-2.92.52-.88.96-1.93,1.7-2.9,4.12-2.06,10.2-4.49,17.41-5.64Z"/><path class="cls-24" d="m346.8,67.06c5.4-.84,10.45-.81,14.57-.43,5.22.49,8.89,1.55,9.63,2.17.16.54-.48,1.05-2.1,1.71-1.09,1.03-3.09,1.75-5.42,2.77-1.28.56-2.57,1.1-3.65,1.38-.42.11-.9.29-1.43.47-1.4.46-2.87.78-4.34,1.05-1.11.2-1.91.32-2.55.41-1.32.19-2.43.35-4.62.6-5.12.59-9.75.8-11.94,1.1-4.14.56-7.29.55-8.61-.04-.31-.67.34-1.55,1.22-2.86.57-.84,1.1-1.86,1.91-2.79,4.13-2.04,10.18-4.4,17.32-5.53Z"/><path class="cls-29" d="m346.92,67.03c5.37-.82,10.4-.79,14.5-.41,5.25.49,8.92,1.56,9.57,2.17.14.51-.68.71-2.25,1.6-1.29.73-3.18,1.58-5.57,2.55-1.26.51-2.56,1.02-3.67,1.28-.43.1-.9.28-1.43.44-1.39.43-2.86.74-4.33,1.01-1.11.2-1.9.32-2.54.41-1.3.19-2.38.35-4.59.62-5.03.62-9.58.88-11.87,1.19-4.23.59-7.37.61-8.56.02-.29-.63.4-1.5,1.39-2.79.62-.81,1.23-1.79,2.12-2.69,4.14-2.01,10.17-4.32,17.22-5.42Z"/><path class="cls-16" d="m347.05,67.01c5.35-.8,10.35-.77,14.43-.39,5.28.5,8.94,1.57,9.51,2.18.12.48-.73.66-2.41,1.49-1.32.65-3.27,1.42-5.72,2.33-1.25.46-2.55.93-3.69,1.19-.43.1-.91.26-1.44.41-1.38.4-2.84.7-4.31.97-1.11.2-1.89.32-2.52.42-1.28.2-2.33.36-4.56.65-4.95.64-9.41.95-11.8,1.29-4.32.61-7.45.67-8.51.08-.27-.6.46-1.45,1.56-2.72.67-.77,1.37-1.71,2.33-2.58,4.14-1.98,10.15-4.24,17.13-5.3Z"/><path class="cls-12" d="m347.18,66.99c5.32-.79,10.3-.75,14.36-.37,5.31.5,8.97,1.58,9.46,2.18.1.46-.78.62-2.56,1.37-1.36.58-3.35,1.26-5.87,2.1-1.24.41-2.54.84-3.72,1.1-.44.09-.92.24-1.44.38-1.37.37-2.82.66-4.3.93-1.11.2-1.88.32-2.51.42-1.27.2-2.28.37-4.54.67-4.86.66-9.24,1.03-11.73,1.39-4.4.64-7.52.73-8.46.14-.25-.57.52-1.41,1.74-2.66.71-.74,1.5-1.64,2.54-2.48,4.15-1.96,10.14-4.16,17.04-5.19Z"/><path class="cls-10" d="m347.3,66.96c5.29-.77,10.26-.73,14.29-.35,5.34.5,9,1.59,9.4,2.18.08.43-.83.58-2.72,1.26-1.39.5-3.44,1.11-6.02,1.88-1.23.37-2.53.76-3.74,1-.44.09-.92.23-1.44.36-1.36.34-2.81.63-4.29.89-1.11.2-1.87.32-2.5.43-1.25.2-2.24.38-4.51.7-4.78.68-9.07,1.1-11.67,1.48-4.49.66-7.6.79-8.41.2-.22-.53.58-1.37,1.91-2.59.76-.7,1.64-1.57,2.75-2.37,4.16-1.93,10.12-4.07,16.94-5.08Z"/><path class="cls-20" d="m347.43,66.94c5.26-.75,10.21-.71,14.22-.33,5.37.5,9.03,1.6,9.35,2.19.06.41-.89.55-2.87,1.15-1.44.43-3.53.96-6.17,1.66-1.22.32-2.51.67-3.77.91-.45.09-.93.21-1.44.33-1.35.32-2.79.59-4.27.85-1.1.2-1.86.32-2.49.43-1.23.21-2.19.38-4.48.72-4.69.7-8.9,1.17-11.6,1.58-4.58.69-7.68.85-8.36.26-.2-.5.64-1.33,2.08-2.52.81-.68,1.77-1.5,2.97-2.27,4.17-1.9,10.11-3.99,16.85-4.96Z"/><path class="cls-3" d="m347.55,66.92c5.23-.73,10.16-.68,14.15-.31,5.4.51,9.05,1.61,9.29,2.19.05.38-.94.52-3.03,1.03-1.48.37-3.62.81-6.32,1.44-1.21.28-2.5.58-3.79.82-.46.08-.94.19-1.45.3-1.35.29-2.77.55-4.26.82-1.1.2-1.85.32-2.47.43-1.21.21-2.14.39-4.45.75-4.61.72-8.73,1.25-11.53,1.67-4.67.71-7.76.91-8.31.33-.18-.47.71-1.3,2.25-2.46.86-.65,1.91-1.42,3.18-2.16,4.17-1.88,10.09-3.91,16.76-4.85Z"/><path class="cls-27" d="m347.68,66.89c5.21-.71,10.11-.66,14.08-.29,5.43.51,9.08,1.62,9.23,2.19.03.36-1,.49-3.18.92-1.53.3-3.7.67-6.47,1.21-1.2.24-2.49.5-3.82.72-.46.08-.94.18-1.45.28-1.34.26-2.76.51-4.25.78-1.1.2-1.84.32-2.46.44-1.19.21-2.09.39-4.43.77-4.52.74-8.56,1.32-11.47,1.77-4.75.74-7.83.97-8.26.39-.16-.44.77-1.27,2.42-2.39.92-.62,2.04-1.35,3.39-2.06,4.18-1.85,10.07-3.83,16.67-4.74Z"/><path class="cls-5" d="m347.81,66.87c5.18-.7,10.07-.64,14.01-.27,5.46.51,9.11,1.63,9.18,2.2,0,.33-1.07.47-3.34.81-1.59.24-3.79.53-6.62.99-1.19.19-2.48.41-3.84.63-.47.07-.95.16-1.45.25-1.33.23-2.74.47-4.24.74-1.1.19-1.83.33-2.45.44-1.18.22-2.04.4-4.4.8-4.44.76-8.39,1.39-11.4,1.86-4.84.76-7.91,1.03-8.21.45-.13-.4.84-1.24,2.59-2.32.97-.6,2.18-1.28,3.6-1.95,4.19-1.82,10.06-3.74,16.57-4.62Z"/><path class="cls-7" d="m351.19,71.72c-3.14.55-3.15.62-6.81,1.27-11.23,2-19.21,3.42-19.5,2.47-.17-.58,2.37-2.3,6.57-4.1s10.04-3.66,16.48-4.51c12.36-1.63,23.09.99,23.06,1.95-.02.72-6.11.51-19.81,2.92Z"/><path class="cls-11" d="m146.08,13.68c-11.59-7.48-23.73-5.52-27.58.55-2.34,3.7-1.92,9.43.46,13.45,1.68,2.83,4.25,4.68,12.41,7.76,5.26,1.99,12.55,4.38,21.6,6.26"/><path class="cls-11" d="m145.93,13.66c6.76-12.03,18.4-15.97,24.63-12.4,3.8,2.17,6.11,7.43,5.88,12.11-.16,3.29-1.57,6.12-7.35,12.66-3.72,4.22-9.05,9.74-16.17,15.63"/><path class="cls-32" d="m122.65,19.56c.55,1.1.1,2.7-.92,3.04-.66.22-1.44-.15-1.85-.66-.9-1.12-.29-3.27.79-3.56.72-.19,1.61.44,1.98,1.19Z"/><path class="cls-32" d="m132.75,12.71c.29.66.27,1.66-.27,2.23-1.3,1.34-4.3-1.16-6.55.26-1.35.85-1.33,2.42-2.43,2.49-.77.05-1.58-.66-1.82-1.42-.48-1.5,1.23-3.31,2.51-4.14,2.93-1.93,7.66-1.44,8.57.59Z"/><path class="cls-1" d="m142.72,39.2c1.72.5,3.53.99,5.41,1.45,1.63.4,3.21.74,4.75,1.05,3.09-2.58,5.61-4.77,7.38-6.34,0,0,7.57-6.66,12.92-13.34.96-1.2,2.79-3.57,3.29-7,.11-.73.13-1.33.13-1.72.05-.88.31-7.53-4.49-11.21-1.31-1-2.67-1.54-3.83-1.84-2.21,1.38-5.36,3.56-8.72,6.71s-6.93,7.28-10,12.57c-4.48,7.72-6.15,14.97-6.85,19.66Z"/><path class="cls-15" d="m171.99,2.05c4.66,3.57,4.27,10.06,4.17,11.1-.04.38-.04.98-.15,1.69-.52,3.36-2.32,5.71-3.29,6.93-.83,1.04-1.71,2.08-2.6,3.09-2.15,2.43-4.32,4.65-6.18,6.47-2.27,2.24-3.92,3.7-3.95,3.73-1.52,1.83-4.25,3.78-7.27,6.34-1.51-.26-3.06-.58-4.66-.91-1.87-.39-3.65-.8-5.32-1.3.3-2.18.86-5.02,1.85-8.25,1.07-3.46,2.64-7.35,4.96-11.36,1.06-1.82,2.17-3.51,3.32-5.08,2.16-2.94,4.44-5.41,6.63-7.47,2.05-1.93,4.02-3.5,5.75-4.74,1.09-.78,2.08-1.44,2.94-1.98,1.18.24,2.54.75,3.81,1.72Z"/><path class="cls-18" d="m171.86,1.98c4.51,3.46,4.02,9.79,3.84,11-.05.38-.05.97-.17,1.67-.53,3.29-2.31,5.62-3.29,6.86-.81,1.03-1.69,2.06-2.57,3.08-2.13,2.44-4.22,4.59-6.09,6.46-2.21,2.21-3.84,3.66-3.89,3.73-1.52,1.85-4.2,3.81-7.16,6.34-1.49-.21-3.01-.49-4.57-.77-1.85-.33-3.61-.66-5.24-1.15.27-2.12.82-4.96,1.83-8.23,1.07-3.44,2.63-7.32,4.95-11.33,1.05-1.82,2.16-3.5,3.31-5.07,2.15-2.93,4.42-5.4,6.6-7.47,2.04-1.93,4-3.5,5.72-4.74,1.09-.79,2.07-1.44,2.93-1.98,1.2.19,2.56.65,3.8,1.6Z"/><path class="cls-31" d="m171.73,1.92c4.36,3.35,3.77,9.52,3.52,10.89-.07.37-.07.96-.19,1.65-.55,3.23-2.3,5.53-3.29,6.8-.8,1.03-1.66,2.05-2.54,3.06-2.11,2.45-4.12,4.53-6,6.44-2.15,2.18-3.75,3.62-3.83,3.72-1.52,1.87-4.15,3.83-7.04,6.34-1.46-.16-2.95-.41-4.48-.63-1.83-.26-3.56-.52-5.15-1,.24-2.05.79-4.9,1.81-8.21,1.06-3.43,2.63-7.3,4.94-11.31,1.04-1.81,2.15-3.49,3.3-5.06,2.14-2.92,4.4-5.4,6.57-7.46,2.03-1.93,3.98-3.5,5.69-4.75,1.08-.79,2.07-1.44,2.91-1.98,1.23.13,2.59.56,3.79,1.48Z"/><path class="cls-4" d="m171.6,1.86c4.21,3.24,3.53,9.24,3.19,10.78-.08.37-.09.95-.21,1.63-.58,3.16-2.29,5.44-3.29,6.73-.79,1.02-1.64,2.04-2.51,3.05-2.1,2.46-4.02,4.47-5.91,6.42-2.09,2.16-3.66,3.58-3.77,3.72-1.51,1.88-4.1,3.86-6.93,6.34-1.43-.11-2.89-.33-4.4-.49-1.82-.19-3.52-.38-5.06-.84.22-1.98.75-4.85,1.79-8.19,1.06-3.42,2.63-7.28,4.93-11.28,1.04-1.8,2.14-3.48,3.28-5.05,2.13-2.92,4.38-5.39,6.54-7.46,2.02-1.93,3.96-3.5,5.67-4.75,1.08-.79,2.06-1.45,2.9-1.99,1.25.08,2.61.46,3.77,1.36Z"/><path class="cls-25" d="m171.48,1.8c4.07,3.13,3.3,8.97,2.87,10.68-.09.37-.1.94-.23,1.61-.59,3.09-2.28,5.36-3.29,6.67-.78,1.01-1.62,2.03-2.47,3.03-2.09,2.47-3.92,4.42-5.82,6.4-2.04,2.13-3.57,3.54-3.71,3.72-1.51,1.9-4.05,3.89-6.81,6.35-1.41-.05-2.84-.25-4.31-.35-1.81-.13-3.48-.24-4.98-.69.19-1.92.72-4.79,1.77-8.17,1.06-3.4,2.62-7.26,4.92-11.25,1.03-1.79,2.13-3.47,3.27-5.04,2.12-2.91,4.36-5.38,6.51-7.45,2.01-1.92,3.94-3.5,5.64-4.75,1.07-.79,2.05-1.45,2.89-1.99,1.27.02,2.63.37,3.76,1.24Z"/><path class="cls-14" d="m171.35,1.74c3.92,3.02,3.06,8.69,2.54,10.57-.1.36-.12.93-.25,1.59-.61,3.03-2.27,5.27-3.29,6.6-.77,1.01-1.6,2.01-2.44,3.02-2.07,2.48-3.82,4.36-5.73,6.38s-3.49,3.5-3.65,3.71c-1.51,1.92-4,3.92-6.7,6.35-1.38,0-2.79-.16-4.22-.21-1.8-.06-3.44-.1-4.89-.54.16-1.85.68-4.73,1.75-8.14,1.06-3.39,2.62-7.24,4.9-11.22,1.02-1.78,2.12-3.46,3.26-5.03,2.11-2.9,4.34-5.37,6.48-7.44,1.99-1.92,3.92-3.5,5.61-4.75,1.07-.79,2.04-1.45,2.88-1.99,1.3-.04,2.65.27,3.75,1.12Z"/><path class="cls-13" d="m171.22,1.68c3.77,2.91,2.83,8.42,2.22,10.46-.11.36-.13.92-.27,1.56-.63,2.96-2.27,5.18-3.29,6.54-.76,1-1.58,2-2.41,3-2.06,2.49-3.72,4.3-5.64,6.36s-3.4,3.46-3.59,3.71c-1.5,1.94-3.95,3.94-6.59,6.35-1.36.05-2.73-.08-4.13-.07-1.79.01-3.4.04-4.81-.39.13-1.78.65-4.67,1.73-8.12,1.06-3.37,2.62-7.22,4.89-11.19,1.02-1.78,2.11-3.45,3.24-5.02,2.1-2.89,4.32-5.36,6.45-7.44,1.98-1.92,3.9-3.5,5.58-4.76,1.06-.79,2.03-1.45,2.87-2,1.32-.09,2.67.17,3.73,1Z"/><path class="cls-9" d="m171.09,1.62c3.62,2.8,2.61,8.15,1.89,10.35-.12.36-.15.91-.29,1.54-.65,2.9-2.26,5.09-3.29,6.47-.75,1-1.56,1.99-2.38,2.99-2.04,2.5-3.62,4.24-5.55,6.35s-3.31,3.42-3.53,3.7c-1.5,1.96-3.9,3.97-6.47,6.35-1.33.1-2.68.01-4.04.07-1.78.08-3.35.18-4.72-.24.1-1.72.61-4.61,1.71-8.1,1.05-3.36,2.61-7.2,4.88-11.16,1.01-1.77,2.09-3.44,3.23-5.01,2.09-2.89,4.29-5.36,6.42-7.43,1.97-1.92,3.88-3.5,5.56-4.76,1.05-.79,2.02-1.46,2.86-2,1.35-.15,2.69.08,3.72.88Z"/><path class="cls-28" d="m170.97,1.55c3.47,2.69,2.39,7.88,1.57,10.25-.12.36-.16.9-.31,1.52-.66,2.83-2.25,5.01-3.29,6.41-.74.99-1.54,1.98-2.34,2.97-2.02,2.51-3.52,4.18-5.46,6.33-1.81,2.01-3.23,3.38-3.47,3.7-1.5,1.98-3.85,4-6.36,6.35-1.31.15-2.63.1-3.95.21-1.78.15-3.31.32-4.63-.09.07-1.65.58-4.55,1.69-8.08,1.05-3.35,2.61-7.18,4.87-11.13,1.01-1.76,2.08-3.43,3.21-5,2.08-2.88,4.27-5.35,6.39-7.42,1.96-1.92,3.86-3.5,5.53-4.76,1.05-.79,2.01-1.46,2.84-2,1.37-.2,2.72-.01,3.71.76Z"/><path class="cls-22" d="m170.84,1.49c3.32,2.58,2.17,7.61,1.24,10.14-.13.36-.18.89-.33,1.5-.68,2.77-2.24,4.92-3.29,6.34-.73.98-1.52,1.97-2.31,2.96-2.01,2.52-3.42,4.12-5.37,6.31-1.75,1.98-3.14,3.34-3.41,3.7-1.5,1.99-3.8,4.02-6.25,6.35-1.28.2-2.58.19-3.86.35-1.77.22-3.27.46-4.55.06.04-1.58.54-4.49,1.68-8.06,1.05-3.33,2.61-7.16,4.86-11.11,1-1.75,2.07-3.42,3.2-4.99,2.06-2.87,4.25-5.34,6.36-7.42,1.95-1.92,3.84-3.5,5.5-4.77,1.04-.79,2-1.46,2.83-2.01,1.4-.26,2.74-.11,3.69.63Z"/><path class="cls-19" d="m170.71,1.43c3.17,2.47,1.95,7.34.92,10.03-.14.35-.19.88-.35,1.48-.7,2.7-2.23,4.83-3.29,6.28-.72.98-1.5,1.95-2.28,2.94-1.99,2.52-3.32,4.06-5.28,6.29-1.7,1.95-3.06,3.29-3.35,3.69-1.49,2.01-3.75,4.05-6.13,6.35-1.26.25-2.53.29-3.77.49-1.77.3-3.23.59-4.46.21.01-1.52.51-4.43,1.66-8.04,1.05-3.32,2.6-7.14,4.84-11.08.99-1.74,2.06-3.41,3.19-4.98,2.05-2.87,4.23-5.33,6.33-7.41,1.94-1.92,3.82-3.5,5.47-4.77,1.04-.79,1.99-1.46,2.82-2.01,1.42-.32,2.76-.2,3.68.51Z"/><path class="cls-2" d="m170.58,1.37c3.02,2.36,1.74,7.07.59,9.93-.14.35-.21.87-.37,1.46-.72,2.63-2.22,4.74-3.29,6.21-.71.97-1.48,1.94-2.25,2.93-1.98,2.53-3.23,3.99-5.19,6.27-1.65,1.91-2.97,3.25-3.29,3.69-1.49,2.03-3.7,4.08-6.02,6.36-1.23.3-2.48.38-3.68.64-1.76.38-3.19.73-4.37.36-.02-1.45.47-4.37,1.64-8.02,1.05-3.3,2.6-7.12,4.83-11.05.99-1.74,2.05-3.4,3.17-4.97,2.04-2.86,4.21-5.32,6.3-7.4,1.93-1.91,3.8-3.5,5.45-4.77,1.03-.8,1.98-1.47,2.81-2.02,1.44-.37,2.78-.3,3.67.39Z"/><path class="cls-26" d="m170.46,1.31c2.87,2.25,1.53,6.81.27,9.82-.15.35-.22.86-.39,1.43-.73,2.57-2.21,4.65-3.29,6.15-.7.96-1.46,1.93-2.21,2.92-1.96,2.54-3.13,3.93-5.1,6.25-1.59,1.88-2.89,3.21-3.23,3.68-1.49,2.05-3.65,4.1-5.9,6.36-1.21.35-2.43.48-3.59.78-1.76.45-3.14.87-4.29.51-.05-1.38.44-4.31,1.62-8,1.04-3.29,2.6-7.09,4.82-11.02.98-1.73,2.04-3.39,3.16-4.96,2.03-2.85,4.19-5.32,6.27-7.4,1.92-1.91,3.78-3.5,5.42-4.77,1.03-.8,1.97-1.47,2.8-2.02,1.47-.43,2.8-.39,3.65.27Z"/><path class="cls-30" d="m170.33,1.25c2.73,2.14,1.33,6.54-.06,9.71-.15.35-.24.85-.41,1.41-.75,2.5-2.2,4.57-3.29,6.08-.69.96-1.43,1.92-2.18,2.9-1.94,2.55-3.03,3.87-5,6.23-1.54,1.85-2.8,3.17-3.17,3.68-1.49,2.07-3.6,4.13-5.79,6.36-1.18.4-2.38.58-3.51.92-1.76.54-3.1,1.01-4.2.66-.08-1.32.4-4.25,1.6-7.97,1.04-3.28,2.59-7.07,4.81-10.99.97-1.72,2.03-3.38,3.14-4.95,2.02-2.84,4.17-5.31,6.24-7.39,1.91-1.91,3.76-3.5,5.39-4.78,1.02-.8,1.97-1.47,2.79-2.02,1.49-.48,2.82-.49,3.64.15Z"/><path class="cls-21" d="m170.2,1.19c2.58,2.03,1.13,6.28-.38,9.6-.16.35-.25.84-.43,1.39-.77,2.44-2.2,4.48-3.29,6.02-.68.95-1.41,1.91-2.15,2.89-1.93,2.56-2.94,3.81-4.91,6.22-1.49,1.81-2.72,3.13-3.11,3.68-1.49,2.09-3.55,4.16-5.68,6.36-1.15.45-2.33.68-3.42,1.06-1.76.62-3.06,1.15-4.11.81-.11-1.25.37-4.19,1.58-7.95,1.04-3.26,2.59-7.05,4.8-10.96.97-1.71,2.02-3.37,3.13-4.94,2.01-2.84,4.15-5.3,6.21-7.39,1.9-1.91,3.74-3.5,5.36-4.78,1.02-.8,1.96-1.47,2.77-2.03,1.52-.54,2.85-.58,3.63.03Z"/><path class="cls-21" d="m170.07,1.12c2.43,1.92.93,6.02-.71,9.5-.16.35-.27.83-.45,1.37-.78,2.37-2.19,4.39-3.29,5.95-.67.94-1.39,1.89-2.12,2.87-1.91,2.57-2.84,3.74-4.82,6.2-1.44,1.78-2.64,3.08-3.05,3.67-1.48,2.11-3.5,4.18-5.56,6.36-1.13.5-2.28.78-3.33,1.2-1.75.71-3.02,1.29-4.03.96-.14-1.18.33-4.13,1.56-7.93,1.04-3.25,2.59-7.03,4.79-10.93.96-1.7,2-3.35,3.12-4.93,2-2.83,4.12-5.29,6.19-7.38,1.89-1.91,3.72-3.5,5.34-4.78,1.01-.8,1.95-1.48,2.76-2.03,1.54-.6,2.87-.68,3.61-.09Z"/><path class="cls-17" d="m169.95,1.06c2.28,1.81.73,5.77-1.03,9.39-.17.35-.28.82-.47,1.35-.8,2.31-2.18,4.3-3.29,5.89-.66.94-1.37,1.88-2.08,2.86-1.89,2.58-2.75,3.68-4.73,6.18-1.38,1.74-2.55,3.04-2.99,3.67-1.48,2.13-3.45,4.21-5.45,6.36-1.1.55-2.23.88-3.24,1.34-1.75.8-2.98,1.43-3.94,1.12-.16-1.12.3-4.07,1.54-7.91,1.04-3.23,2.58-7.01,4.77-10.9.96-1.7,1.99-3.34,3.1-4.92,1.99-2.82,4.1-5.28,6.16-7.37,1.88-1.91,3.7-3.5,5.31-4.78,1.01-.8,1.94-1.48,2.75-2.03,1.57-.65,2.89-.77,3.6-.21Z"/><path class="cls-8" d="m169.82,1c2.13,1.7.54,5.51-1.36,9.28-.17.34-.3.81-.49,1.33-.82,2.24-2.17,4.21-3.29,5.82-.65.93-1.35,1.87-2.05,2.84-1.88,2.59-2.65,3.61-4.64,6.16-1.33,1.71-2.47,3-2.93,3.66-1.48,2.15-3.4,4.24-5.33,6.36-1.08.6-2.18.99-3.15,1.48-1.74.89-2.93,1.57-3.85,1.27-.19-1.05.26-4.01,1.52-7.89,1.03-3.22,2.58-6.99,4.76-10.88.95-1.69,1.98-3.33,3.09-4.91,1.98-2.82,4.08-5.27,6.13-7.37,1.86-1.91,3.68-3.5,5.28-4.79,1-.8,1.93-1.48,2.74-2.04,1.59-.71,2.91-.87,3.59-.33Z"/><path class="cls-6" d="m169.69.94c1.98,1.58.35,5.26-1.68,9.18-.18.34-.31.8-.51,1.3-.83,2.18-2.17,4.12-3.29,5.75-.64.92-1.33,1.86-2.02,2.83-1.86,2.6-2.56,3.55-4.55,6.14-1.28,1.67-2.39,2.95-2.87,3.66-1.48,2.17-3.35,4.26-5.22,6.37-1.05.65-2.13,1.09-3.06,1.62-1.73.98-2.89,1.71-3.77,1.42-.22-.98.23-3.95,1.5-7.87,1.03-3.21,2.58-6.97,4.75-10.85.94-1.68,1.97-3.32,3.07-4.9,1.96-2.81,4.06-5.27,6.1-7.36,1.85-1.9,3.65-3.5,5.26-4.79,1-.8,1.92-1.48,2.73-2.04,1.61-.76,2.93-.97,3.57-.45Z"/><path class="cls-23" d="m169.56.88c1.84,1.47.17,5.01-2.01,9.07-.18.34-.33.79-.53,1.28-.85,2.11-2.16,4.03-3.29,5.69-.63.92-1.31,1.85-1.99,2.81-1.84,2.61-2.47,3.48-4.46,6.12-1.23,1.63-2.31,2.91-2.81,3.65-1.48,2.19-3.3,4.29-5.11,6.37-1.03.7-2.08,1.2-2.97,1.76-1.72,1.08-2.85,1.85-3.68,1.57-.25-.92.19-3.9,1.48-7.85,1.03-3.19,2.57-6.95,4.74-10.82.94-1.67,1.96-3.31,3.06-4.89,1.95-2.8,4.04-5.26,6.07-7.35,1.84-1.9,3.63-3.5,5.23-4.79.99-.8,1.91-1.49,2.71-2.04,1.64-.82,2.95-1.06,3.56-.58Z"/><path class="cls-24" d="m169.44.82c1.69,1.36-.02,4.76-2.33,8.96-.19.34-.34.78-.55,1.26-.86,2.05-2.15,3.94-3.29,5.62-.62.91-1.28,1.84-1.95,2.8-1.83,2.62-2.37,3.41-4.37,6.11-1.18,1.6-2.22,2.86-2.75,3.65-1.48,2.21-3.25,4.32-4.99,6.37-1,.76-2.02,1.31-2.88,1.9-1.71,1.18-2.81,1.99-3.59,1.72-.28-.85.16-3.84,1.46-7.83,1.03-3.18,2.57-6.93,4.73-10.79.93-1.67,1.95-3.3,3.05-4.88,1.94-2.79,4.02-5.25,6.04-7.35,1.83-1.9,3.61-3.5,5.2-4.8.99-.8,1.9-1.49,2.7-2.05,1.66-.88,2.98-1.16,3.55-.7Z"/><path class="cls-29" d="m169.31.76c1.54,1.25-.2,4.51-2.66,8.85-.19.34-.36.77-.57,1.24-.88,1.98-2.14,3.86-3.29,5.56-.61.9-1.26,1.82-1.92,2.78-1.81,2.63-2.28,3.35-4.28,6.09-1.14,1.56-2.14,2.82-2.69,3.65-1.48,2.23-3.2,4.34-4.88,6.37-.98.81-1.96,1.41-2.79,2.04-1.69,1.28-2.77,2.13-3.51,1.87-.31-.78.12-3.78,1.44-7.8,1.03-3.16,2.57-6.91,4.72-10.76.92-1.66,1.94-3.29,3.03-4.87,1.93-2.79,4-5.24,6.01-7.34,1.82-1.9,3.59-3.5,5.17-4.8.98-.81,1.89-1.49,2.69-2.05,1.69-.93,3-1.25,3.53-.82Z"/><path class="cls-16" d="m169.18.69c1.39,1.14-.38,4.27-2.98,8.75-.2.34-.37.76-.59,1.22-.89,1.92-2.14,3.77-3.29,5.49-.6.89-1.24,1.81-1.89,2.77-1.79,2.64-2.19,3.28-4.19,6.07-1.09,1.52-2.06,2.78-2.63,3.64-1.48,2.25-3.15,4.37-4.76,6.37-.95.86-1.91,1.52-2.7,2.18-1.67,1.38-2.72,2.27-3.42,2.02-.34-.72.09-3.72,1.42-7.78,1.02-3.15,2.56-6.88,4.7-10.73.92-1.65,1.93-3.28,3.02-4.87,1.92-2.78,3.98-5.23,5.98-7.33,1.81-1.9,3.57-3.5,5.15-4.8.98-.81,1.88-1.49,2.68-2.06,1.71-.99,3.02-1.35,3.52-.94Z"/><path class="cls-12" d="m169.05.63c1.24,1.03-.56,4.02-3.31,8.64-.2.34-.39.75-.61,1.2-.91,1.85-2.13,3.68-3.29,5.43-.59.89-1.22,1.8-1.86,2.75-1.78,2.65-2.11,3.21-4.1,6.05-1.04,1.48-1.98,2.73-2.57,3.64-1.48,2.27-3.1,4.4-4.65,6.37-.93.91-1.85,1.63-2.62,2.32-1.65,1.48-2.68,2.41-3.33,2.17-.37-.65.05-3.66,1.4-7.76,1.02-3.14,2.56-6.86,4.69-10.7.91-1.64,1.92-3.27,3.01-4.86,1.91-2.77,3.96-5.23,5.95-7.33,1.8-1.9,3.55-3.51,5.12-4.8.97-.81,1.87-1.5,2.67-2.06,1.74-1.04,3.04-1.44,3.51-1.06Z"/><path class="cls-10" d="m168.93.57c1.1.91-.73,3.78-3.63,8.53-.21.34-.4.74-.63,1.17-.92,1.79-2.12,3.59-3.29,5.36-.58.88-1.2,1.79-1.82,2.74-1.76,2.66-2.02,3.14-4.01,6.03-.99,1.45-1.9,2.69-2.51,3.63-1.47,2.29-3.05,4.42-4.54,6.37-.9.96-1.79,1.74-2.53,2.46-1.62,1.59-2.64,2.55-3.25,2.32-.4-.58.02-3.6,1.38-7.74,1.02-3.12,2.56-6.84,4.68-10.68.91-1.63,1.9-3.26,2.99-4.85,1.9-2.77,3.93-5.22,5.92-7.32,1.79-1.89,3.53-3.51,5.09-4.81.97-.81,1.87-1.5,2.66-2.06,1.76-1.1,3.06-1.54,3.49-1.18Z"/><path class="cls-20" d="m168.8.51c.95.8-.9,3.55-3.96,8.43-.21.34-.42.73-.65,1.15-.94,1.72-2.12,3.5-3.29,5.3-.57.87-1.18,1.78-1.79,2.72-1.74,2.68-1.94,3.07-3.92,6.01-.95,1.41-1.82,2.64-2.45,3.63-1.47,2.32-3,4.45-4.42,6.38-.87,1.01-1.73,1.85-2.44,2.6-1.6,1.69-2.6,2.69-3.16,2.47-.43-.52-.02-3.54,1.36-7.72,1.02-3.11,2.55-6.82,4.67-10.65.9-1.63,1.89-3.25,2.98-4.84,1.89-2.76,3.91-5.21,5.89-7.32,1.78-1.89,3.51-3.51,5.06-4.81.96-.81,1.86-1.5,2.64-2.07,1.78-1.16,3.09-1.63,3.48-1.3Z"/><path class="cls-3" d="m168.67.45c.8.69-1.07,3.31-4.28,8.32-.22.34-.43.73-.67,1.13-.95,1.66-2.11,3.41-3.29,5.23-.56.87-1.15,1.77-1.76,2.71-1.72,2.69-1.86,2.99-3.83,6-.9,1.37-1.74,2.6-2.39,3.63-1.47,2.34-2.95,4.48-4.31,6.38-.85,1.06-1.66,1.96-2.35,2.74-1.56,1.8-2.56,2.83-3.07,2.62-.46-.45-.05-3.48,1.34-7.7,1.02-3.09,2.55-6.8,4.66-10.62.89-1.62,1.88-3.24,2.96-4.83,1.87-2.75,3.89-5.2,5.86-7.31,1.77-1.89,3.49-3.51,5.04-4.81.96-.81,1.85-1.5,2.63-2.07,1.81-1.21,3.11-1.73,3.46-1.42Z"/><path class="cls-27" d="m168.54.39c.66.58-1.24,3.07-4.61,8.21-.22.34-.45.72-.68,1.11-.96,1.59-2.1,3.32-3.29,5.17-.55.86-1.13,1.76-1.73,2.7-1.7,2.7-1.78,2.92-3.74,5.98-.86,1.33-1.66,2.55-2.33,3.62-1.47,2.36-2.9,4.51-4.19,6.38-.82,1.11-1.6,2.06-2.26,2.89-1.53,1.9-2.52,2.97-2.99,2.77-.49-.39-.08-3.42,1.32-7.68,1.01-3.08,2.55-6.78,4.65-10.59.89-1.61,1.87-3.23,2.95-4.82,1.86-2.74,3.87-5.19,5.83-7.3,1.76-1.89,3.47-3.51,5.01-4.82.95-.81,1.84-1.51,2.62-2.07,1.83-1.27,3.13-1.82,3.45-1.54Z"/><path class="cls-5" d="m168.41.32c.51.46-1.41,2.84-4.93,8.1-.23.34-.46.71-.7,1.09-.97,1.53-2.1,3.23-3.29,5.1-.54.85-1.11,1.74-1.69,2.68-1.69,2.71-1.7,2.85-3.65,5.96-.81,1.29-1.58,2.51-2.27,3.62-1.47,2.38-2.85,4.53-4.08,6.38-.8,1.16-1.54,2.17-2.17,3.03-1.49,2.01-2.47,3.11-2.9,2.92-.52-.32-.12-3.36,1.3-7.66,1.01-3.07,2.54-6.76,4.63-10.56.88-1.6,1.86-3.22,2.94-4.81,1.85-2.74,3.85-5.19,5.8-7.3,1.75-1.89,3.45-3.51,4.98-4.82.95-.81,1.83-1.51,2.61-2.08,1.86-1.32,3.15-1.92,3.44-1.66Z"/><path class="cls-7" d="m157.35,17.03c-1.67,2.72-1.62,2.77-3.56,5.94-5.95,9.74-10.17,16.65-11.07,16.24-.55-.25-.15-3.3,1.28-7.63s3.91-9.95,7.54-15.33c3.49-5.17,7.5-9.33,10.72-12.11s5.67-4.2,6.02-3.87c.53.49-3.66,4.91-10.94,16.76Z"/><path class="cls-11" d="m25.62,152.1c-13.53-2.72-24.11,3.55-25.46,10.6-.83,4.3,1.66,9.48,5.35,12.35,2.6,2.02,5.67,2.8,14.39,2.68,5.62-.07,13.28-.52,22.39-2.08"/><path class="cls-11" d="m25.48,152.14c1.89-13.67,11.29-21.59,18.39-20.55,4.33.63,8.4,4.68,9.9,9.12,1.05,3.12.78,6.27-2.2,14.47-1.92,5.29-4.86,12.37-9.33,20.46"/><path class="cls-32" d="m5.96,166.15c.91.82,1.08,2.48.25,3.16-.54.44-1.39.39-1.96.06-1.24-.71-1.47-2.94-.57-3.6.6-.44,1.66-.18,2.28.38Z"/><path class="cls-32" d="m12.86,156.07c.51.5.86,1.45.56,2.17-.72,1.72-4.42.49-6,2.63-.95,1.29-.35,2.74-1.35,3.21-.7.32-1.71-.04-2.21-.66-.99-1.22-.06-3.53.82-4.77,2.02-2.87,6.6-4.14,8.19-2.58Z"/><path class="cls-1" d="m31.83,177.09c1.79-.16,3.64-.37,5.57-.63,1.66-.23,3.26-.48,4.81-.76,1.93-3.53,3.47-6.49,4.55-8.6,0,0,4.61-8.97,7.15-17.14.46-1.47,1.29-4.35.51-7.72-.17-.72-.37-1.29-.51-1.64-.28-.84-2.46-7.12-8.29-8.79-1.58-.45-3.05-.46-4.24-.32-1.56,2.1-3.69,5.27-5.66,9.44s-3.79,9.31-4.71,15.35c-1.34,8.82-.25,16.18.82,20.81Z"/><path class="cls-15" d="m45.33,131.99c5.69,1.52,7.85,7.49,8.15,8.3.13.35.33.92.49,1.64.73,3.31-.08,6.16-.55,7.7-1.11,3.59-2.61,7.37-3.95,10.49-1.66,3.85-3.03,6.54-3.07,6.66-.75,2.28-2.58,5.12-4.46,8.63-1.5.33-3.07.6-4.68.89-1.89.34-3.69.63-5.44.78-.42-1.72-.84-3.93-1.12-6.51-.44-4.04-.52-8.96.32-14.42.91-5.94,2.69-11,4.63-15.11,1.93-4.09,4.02-7.22,5.55-9.3,1.15-.16,2.59-.17,4.13.24Z"/><path class="cls-18" d="m45.05,132.17c5.55,1.36,7.7,7.03,8.01,7.82.13.34.32.91.47,1.64.67,3.25-.1,6.08-.59,7.69-1.08,3.57-2.56,7.33-3.89,10.5-1.61,3.83-2.92,6.43-3,6.67-.74,2.32-2.53,5.17-4.36,8.65-1.46.38-2.99.68-4.55,1.02-1.85.41-3.61.78-5.31.93-.42-1.66-.86-3.9-1.14-6.55-.43-4.06-.51-9.02.36-14.51.9-5.83,2.65-10.82,4.55-14.86,1.89-4.01,3.93-7.1,5.43-9.16,1.13-.18,2.52-.2,4.02.17Z"/><path class="cls-31" d="m44.77,132.36c5.42,1.21,7.56,6.56,7.88,7.33.14.33.3.9.45,1.64.61,3.18-.13,6-.63,7.68-1.06,3.54-2.51,7.3-3.83,10.5-1.57,3.81-2.82,6.32-2.93,6.67-.74,2.36-2.48,5.23-4.27,8.68-1.42.42-2.91.75-4.42,1.15-1.82.49-3.53.93-5.18,1.08-.43-1.6-.88-3.86-1.16-6.58-.43-4.08-.48-9.08.4-14.6s2.6-10.63,4.47-14.62c1.85-3.94,3.84-6.97,5.32-9.02,1.1-.2,2.45-.24,3.91.09Z"/><path class="cls-4" d="m44.49,132.54c5.29,1.06,7.42,6.1,7.74,6.84.14.32.29.88.43,1.63.56,3.12-.16,5.92-.68,7.67-1.04,3.52-2.47,7.27-3.77,10.51-1.52,3.79-2.72,6.2-2.87,6.68-.73,2.4-2.43,5.28-4.17,8.71-1.38.47-2.83.83-4.29,1.28-1.79.56-3.44,1.09-5.06,1.22-.44-1.55-.9-3.83-1.17-6.62-.42-4.1-.45-9.14.43-14.69s2.56-10.44,4.39-14.38c1.81-3.86,3.76-6.85,5.2-8.88,1.07-.22,2.38-.27,3.8.01Z"/><path class="cls-25" d="m44.21,132.72c5.16.9,7.28,5.63,7.6,6.36.14.31.28.87.41,1.63.51,3.06-.19,5.84-.72,7.66-1.02,3.49-2.42,7.23-3.71,10.52-1.48,3.77-2.62,6.09-2.8,6.68-.73,2.44-2.38,5.34-4.07,8.74-1.34.52-2.76.9-4.16,1.41-1.76.64-3.36,1.24-4.93,1.37-.44-1.49-.91-3.8-1.19-6.66-.4-4.11-.43-9.2.47-14.78s2.52-10.25,4.32-14.13c1.76-3.79,3.67-6.73,5.09-8.74,1.04-.23,2.31-.3,3.69-.06Z"/><path class="cls-14" d="m43.93,132.9c5.03.75,7.14,5.17,7.47,5.87.14.3.27.86.39,1.63.46,2.99-.22,5.76-.76,7.64-1,3.47-2.37,7.2-3.65,10.52-1.44,3.74-2.53,5.98-2.73,6.69-.72,2.48-2.34,5.39-3.98,8.76-1.3.57-2.68.99-4.03,1.54-1.74.72-3.28,1.4-4.8,1.52-.45-1.43-.92-3.77-1.2-6.69-.4-4.13-.41-9.25.51-14.87s2.48-10.07,4.24-13.89c1.72-3.71,3.58-6.61,4.97-8.6,1.01-.25,2.25-.34,3.58-.14Z"/><path class="cls-13" d="m43.65,133.09c4.91.59,7,4.71,7.33,5.39.14.29.26.85.37,1.63.41,2.93-.25,5.68-.81,7.63-.99,3.44-2.33,7.17-3.59,10.53-1.39,3.72-2.43,5.86-2.67,6.7-.72,2.52-2.29,5.44-3.88,8.79-1.26.62-2.61,1.07-3.9,1.67-1.71.8-3.19,1.55-4.68,1.67-.46-1.37-.94-3.74-1.22-6.73-.39-4.15-.39-9.31.55-14.96.88-5.3,2.44-9.88,4.16-13.64,1.68-3.64,3.49-6.48,4.86-8.45.98-.27,2.18-.37,3.48-.21Z"/><path class="cls-9" d="m43.37,133.27c4.78.44,6.86,4.24,7.19,4.9.15.29.25.84.35,1.62.36,2.86-.28,5.6-.85,7.62-.97,3.41-2.28,7.13-3.52,10.54-1.35,3.7-2.34,5.75-2.6,6.7-.71,2.56-2.24,5.5-3.79,8.82-1.22.67-2.54,1.15-3.77,1.81-1.69.89-3.11,1.71-4.55,1.82-.46-1.31-.96-3.71-1.24-6.77-.38-4.17-.37-9.37.58-15.05.87-5.19,2.39-9.69,4.08-13.4,1.64-3.56,3.4-6.36,4.74-8.31.96-.29,2.11-.4,3.37-.29Z"/><path class="cls-28" d="m43.09,133.45c4.66.28,6.72,3.78,7.06,4.41.15.28.24.83.33,1.62.32,2.8-.3,5.52-.89,7.61-.95,3.39-2.23,7.1-3.46,10.54-1.31,3.67-2.24,5.63-2.53,6.71-.71,2.6-2.19,5.55-3.69,8.84-1.18.72-2.46,1.24-3.64,1.94-1.67.98-3.03,1.86-4.42,1.96-.47-1.26-.98-3.68-1.25-6.8-.37-4.19-.35-9.43.62-15.14.86-5.08,2.35-9.5,4.01-13.15,1.59-3.49,3.31-6.24,4.63-8.17.93-.31,2.05-.44,3.26-.36Z"/><path class="cls-22" d="m42.81,133.63c4.53-.41,6.57,3.31,6.92,3.93.15.27.23.81.31,1.62.28,2.73-.33,5.44-.93,7.6-.93,3.36-2.19,7.06-3.4,10.55s-2.15,5.52-2.47,6.71c-.7,2.64-2.14,5.61-3.6,8.87-1.14.77-2.39,1.33-3.51,2.07-1.65,1.07-2.94,2.01-4.3,2.11-.47-1.2-.99-3.65-1.27-6.84-.37-4.2-.33-9.49.66-15.23.85-4.98,2.31-9.32,3.93-12.91,1.55-3.41,3.23-6.12,4.51-8.03.9-.32,1.99-.33,3.15-.44Z"/><path class="cls-19" d="m42.52,133.82c4.38-.61,6.43,2.85,6.78,3.44.15.26.22.8.29,1.62.23,2.67-.36,5.36-.98,7.58-.92,3.33-2.15,7.03-3.34,10.55s-2.06,5.4-2.4,6.72c-.7,2.68-2.09,5.66-3.5,8.9-1.1.82-2.31,1.43-3.38,2.2-1.62,1.16-2.86,2.17-4.17,2.26-.48-1.14-1.01-3.61-1.29-6.88-.36-4.22-.31-9.55.7-15.32.85-4.87,2.27-9.13,3.85-12.66,1.51-3.34,3.14-5.99,4.4-7.89.87-.34,1.93-.36,3.04-.51Z"/><path class="cls-2" d="m42.24,134c4.24-.81,6.29,2.38,6.65,2.95.15.25.21.79.27,1.62.19,2.6-.39,5.27-1.02,7.57-.9,3.3-2.1,6.99-3.28,10.56s-1.97,5.28-2.33,6.72c-.69,2.72-2.04,5.71-3.4,8.92-1.06.87-2.23,1.52-3.25,2.33-1.6,1.26-2.78,2.32-4.04,2.41-.49-1.08-1.03-3.58-1.3-6.91-.35-4.24-.29-9.61.73-15.41.84-4.77,2.22-8.95,3.77-12.42,1.46-3.26,3.05-5.87,4.28-7.75.84-.36,1.87-.39,2.93-.59Z"/><path class="cls-26" d="m41.96,134.18c4.2-.36,6.15,1.92,6.51,2.47.16.24.2.78.25,1.61.16,2.53-.42,5.19-1.06,7.56-.89,3.28-2.06,6.96-3.22,10.57s-1.88,5.17-2.27,6.73c-.69,2.77-2,5.77-3.31,8.95-1.02.92-2.16,1.62-3.13,2.46-1.57,1.36-2.69,2.48-3.92,2.56-.49-1.02-1.04-3.55-1.32-6.95-.35-4.26-.27-9.67.77-15.5.83-4.66,2.18-8.76,3.69-12.18,1.42-3.19,2.96-5.75,4.16-7.61.81-.38,1.79-.58,2.82-.66Z"/><path class="cls-30" d="m41.68,134.37c4.09-.52,6.01,1.45,6.37,1.98.16.23.19.77.23,1.61.12,2.47-.45,5.11-1.11,7.55-.87,3.25-2.01,6.92-3.16,10.57s-1.79,5.05-2.2,6.74c-.68,2.81-1.95,5.82-3.21,8.98-.98.97-2.08,1.72-3,2.59-1.55,1.46-2.61,2.63-3.79,2.7-.5-.96-1.06-3.52-1.34-6.99-.34-4.27-.25-9.73.81-15.59.82-4.55,2.13-8.57,3.62-11.93,1.38-3.11,2.87-5.63,4.05-7.47.78-.4,1.73-.61,2.71-.74Z"/><path class="cls-21" d="m41.4,134.55c3.98-.69,5.87.99,6.24,1.49.16.22.19.75.22,1.61.08,2.4-.48,5.03-1.15,7.53-.86,3.22-1.97,6.89-3.1,10.58s-1.71,4.94-2.14,6.74c-.68,2.85-1.9,5.87-3.12,9-.94,1.02-2,1.82-2.87,2.72-1.52,1.57-2.53,2.79-3.66,2.85-.51-.91-1.08-3.49-1.35-7.02-.33-4.29-.23-9.79.85-15.68.81-4.45,2.09-8.38,3.54-11.69,1.33-3.04,2.78-5.5,3.93-7.33.76-.42,1.67-.65,2.61-.82Z"/><path class="cls-21" d="m41.12,134.73c3.88-.86,5.73.53,6.1,1.01.16.21.18.74.2,1.61.05,2.33-.51,4.95-1.19,7.52-.84,3.2-1.93,6.85-3.04,10.59-1.04,3.5-1.62,4.82-2.07,6.75-.67,2.89-1.85,5.93-3.02,9.03-.9,1.07-1.92,1.92-2.74,2.85-1.48,1.68-2.44,2.94-3.53,3-.51-.85-1.1-3.46-1.37-7.06-.33-4.31-.21-9.85.88-15.77.8-4.34,2.05-8.2,3.46-11.44,1.29-2.96,2.7-5.38,3.82-7.19.73-.43,1.6-.69,2.5-.89Z"/><path class="cls-17" d="m40.84,134.91c3.77-1.04,5.59.06,5.96.52.16.2.17.73.18,1.6.02,2.26-.54,4.87-1.23,7.51-.83,3.17-1.89,6.82-2.97,10.59-1,3.47-1.53,4.7-2,6.75-.67,2.93-1.8,5.98-2.92,9.06-.86,1.12-1.83,2.03-2.61,2.98-1.45,1.78-2.36,3.09-3.41,3.15-.52-.79-1.11-3.43-1.39-7.1-.32-4.33-.19-9.91.92-15.86.79-4.24,2.01-8.01,3.38-11.2,1.25-2.89,2.61-5.26,3.7-7.05.7-.45,1.54-.73,2.39-.97Z"/><path class="cls-8" d="m40.56,135.1c3.67-1.22,5.44-.4,5.83.04.17.19.16.72.16,1.6-.02,2.2-.58,4.79-1.28,7.5-.81,3.14-1.85,6.78-2.91,10.6-.96,3.45-1.45,4.59-1.94,6.76-.66,2.98-1.75,6.04-2.83,9.08-.81,1.17-1.75,2.13-2.48,3.11-1.41,1.89-2.28,3.25-3.28,3.3-.52-.73-1.13-3.39-1.4-7.13-.32-4.35-.17-9.97.96-15.95.78-4.13,1.96-7.82,3.31-10.95,1.21-2.81,2.52-5.14,3.59-6.91.67-.47,1.48-.77,2.28-1.04Z"/><path class="cls-6" d="m40.28,135.28c3.56-1.41,5.3-.87,5.69-.45.17.18.16.7.14,1.6-.05,2.13-.61,4.7-1.32,7.49-.8,3.11-1.81,6.74-2.85,10.61-.93,3.42-1.37,4.47-1.87,6.77-.66,3.02-1.71,6.09-2.73,9.11-.77,1.22-1.66,2.23-2.35,3.24-1.37,2.01-2.19,3.4-3.15,3.44-.53-.67-1.15-3.36-1.42-7.17-.31-4.36-.15-10.02,1-16.04.77-4.03,1.92-7.63,3.23-10.71,1.16-2.74,2.43-5.01,3.47-6.77.64-.49,1.41-.82,2.17-1.12Z"/><path class="cls-23" d="m40,135.46c3.45-1.61,5.16-1.33,5.55-.94.17.17.15.69.12,1.6-.08,2.06-.64,4.62-1.36,7.47-.78,3.09-1.77,6.71-2.79,10.61-.89,3.4-1.28,4.35-1.8,6.77-.66,3.06-1.66,6.14-2.64,9.14-.73,1.27-1.57,2.34-2.22,3.37-1.32,2.12-2.11,3.56-3.03,3.59-.54-.62-1.17-3.33-1.44-7.21-.3-4.38-.14-10.08,1.03-16.13.76-3.92,1.88-7.45,3.15-10.46,1.12-2.66,2.34-4.89,3.36-6.63.61-.51,1.35-.86,2.06-1.19Z"/><path class="cls-24" d="m39.72,135.65c3.34-1.81,5.02-1.8,5.42-1.42.17.16.15.68.1,1.59-.1,1.99-.67,4.54-1.41,7.46s-1.73,6.67-2.73,10.62c-.86,3.37-1.2,4.23-1.74,6.78-.65,3.11-1.61,6.2-2.54,9.16-.69,1.32-1.48,2.44-2.09,3.51-1.27,2.23-2.03,3.71-2.9,3.74-.54-.56-1.19-3.3-1.45-7.24-.3-4.4-.12-10.14,1.07-16.22.75-3.81,1.84-7.26,3.07-10.22,1.08-2.59,2.25-4.77,3.24-6.49.58-.52,1.29-.91,1.95-1.27Z"/><path class="cls-29" d="m39.43,135.83c3.22-2.01,4.88-2.26,5.28-1.91.17.15.14.67.08,1.59-.13,1.93-.7,4.46-1.45,7.45s-1.69,6.63-2.67,10.63c-.82,3.35-1.12,4.12-1.67,6.78-.65,3.15-1.56,6.25-2.45,9.19-.65,1.37-1.39,2.54-1.96,3.64-1.22,2.35-1.94,3.87-2.77,3.89-.55-.5-1.2-3.27-1.47-7.28-.29-4.42-.1-10.2,1.11-16.31.74-3.71,1.8-7.07,2.99-9.98,1.04-2.51,2.16-4.65,3.13-6.35.56-.54,1.22-.95,1.84-1.34Z"/><path class="cls-16" d="m39.15,136.01c3.1-2.23,4.74-2.73,5.15-2.4.18.14.14.66.06,1.59-.16,1.86-.73,4.38-1.49,7.44s-1.65,6.6-2.61,10.63c-.79,3.32-1.04,4-1.6,6.79-.64,3.19-1.51,6.31-2.35,9.22-.61,1.42-1.3,2.65-1.83,3.77-1.16,2.46-1.86,4.02-2.65,4.04-.56-.44-1.23-3.24-1.49-7.32-.3-4.43-.09-10.26,1.15-16.4.73-3.6,1.75-6.88,2.92-9.73,1-2.44,2.08-4.52,3.01-6.21.53-.56,1.16-1,1.74-1.42Z"/><path class="cls-12" d="m38.87,136.19c2.97-2.44,4.59-3.19,5.01-2.88.18.13.14.64.04,1.59-.18,1.79-.77,4.3-1.53,7.43s-1.61,6.56-2.55,10.64c-.75,3.3-.96,3.88-1.54,6.79-.64,3.24-1.46,6.36-2.25,9.25-.57,1.47-1.21,2.75-1.7,3.9-1.1,2.57-1.77,4.18-2.52,4.18-.56-.38-1.25-3.2-1.5-7.35-.29-4.45-.07-10.32,1.19-16.49.71-3.5,1.71-6.7,2.84-9.49.95-2.36,1.99-4.4,2.9-6.07.5-.58,1.09-1.05,1.63-1.49Z"/><path class="cls-10" d="m38.59,136.38c2.83-2.67,4.45-3.66,4.87-3.37.18.12.13.63.02,1.58-.2,1.73-.8,4.21-1.58,7.41-.72,2.95-1.58,6.52-2.49,10.65-.72,3.27-.88,3.76-1.47,6.8-.63,3.28-1.41,6.41-2.16,9.27-.53,1.52-1.12,2.85-1.57,4.03-1.04,2.68-1.69,4.33-2.39,4.33-.57-.33-1.26-3.17-1.52-7.39-.28-4.47-.06-10.38,1.22-16.58.7-3.39,1.67-6.51,2.76-9.24.91-2.29,1.9-4.28,2.78-5.93.47-.6,1.02-1.1,1.52-1.57Z"/><path class="cls-20" d="m38.31,136.56c2.68-2.89,4.31-4.12,4.74-3.86.18.11.13.62,0,1.58-.23,1.66-.83,4.13-1.62,7.4-.7,2.92-1.54,6.49-2.42,10.65-.69,3.24-.8,3.64-1.4,6.81-.63,3.32-1.37,6.47-2.06,9.3-.49,1.57-1.02,2.95-1.44,4.16-.97,2.79-1.61,4.48-2.26,4.48-.57-.27-1.28-3.14-1.54-7.43-.28-4.49-.04-10.45,1.26-16.67.69-3.29,1.63-6.32,2.68-9,.87-2.21,1.81-4.16,2.66-5.79.44-.61.95-1.15,1.41-1.65Z"/><path class="cls-3" d="m38.03,136.74c2.52-3.11,4.17-4.59,4.6-4.34.18.1.13.61-.02,1.58-.25,1.6-.87,4.05-1.66,7.39-.69,2.89-1.51,6.45-2.36,10.66-.65,3.22-.73,3.53-1.34,6.81s-1.32,6.52-1.97,9.33c-.45,1.62-.93,3.05-1.31,4.29-.91,2.9-1.52,4.64-2.14,4.63-.58-.21-1.3-3.11-1.55-7.46-.27-4.5-.03-10.51,1.3-16.76.68-3.18,1.59-6.13,2.6-8.75.83-2.13,1.72-4.03,2.55-5.65.41-.63.88-1.2,1.3-1.72Z"/><path class="cls-27" d="m37.75,136.93c2.35-3.34,4.03-5.05,4.46-4.83.19.09.14.6-.04,1.58-.27,1.53-.9,3.97-1.71,7.38-.68,2.86-1.47,6.41-2.3,10.66-.62,3.19-.65,3.41-1.27,6.82s-1.27,6.58-1.87,9.35c-.41,1.67-.83,3.15-1.19,4.42-.84,3.01-1.44,4.79-2.01,4.78-.59-.15-1.32-3.08-1.57-7.5-.26-4.52-.02-10.57,1.34-16.85.66-3.08,1.55-5.94,2.53-8.51.79-2.06,1.63-3.91,2.43-5.51.38-.65.8-1.25,1.19-1.8Z"/><path class="cls-5" d="m37.47,137.11c2.17-3.56,3.89-5.51,4.33-5.31.19.09.14.59-.06,1.57-.29,1.47-.94,3.88-1.75,7.37-.67,2.83-1.44,6.38-2.24,10.67-.59,3.17-.57,3.29-1.2,6.82s-1.22,6.63-1.78,9.38c-.37,1.72-.73,3.24-1.06,4.55-.77,3.12-1.36,4.95-1.88,4.92-.59-.09-1.33-3.05-1.59-7.54-.26-4.54-.02-10.63,1.37-16.94.65-2.97,1.51-5.76,2.45-8.26.75-1.98,1.55-3.79,2.32-5.37.36-.67.73-1.29,1.08-1.87Z"/><path class="cls-7" d="m37.33,151.09c-.56,3.14-.5,3.17-1.14,6.83-1.97,11.24-3.37,19.22-4.36,19.16-.6-.03-1.35-3.02-1.6-7.57s0-10.69,1.41-17.03c1.35-6.08,3.56-11.42,5.55-15.2s3.74-5.98,4.19-5.8c.67.27-1.61,5.91-4.05,19.6Z"/></svg>