<?xml version="1.0" encoding="UTF-8"?><svg xmlns="http://www.w3.org/2000/svg" width="1920" height="1080" xmlns:xlink="http://www.w3.org/1999/xlink" viewBox="0 0 1920 1080"><defs><style>.cls-1{fill:#e48765;}.cls-1,.cls-2,.cls-3,.cls-4,.cls-5,.cls-6,.cls-7,.cls-8,.cls-9,.cls-10,.cls-11,.cls-12,.cls-13,.cls-14,.cls-15,.cls-16,.cls-17,.cls-18,.cls-19,.cls-20,.cls-21,.cls-22,.cls-23,.cls-24,.cls-25,.cls-26,.cls-27,.cls-28,.cls-29,.cls-30,.cls-31,.cls-32,.cls-33,.cls-34,.cls-35,.cls-36,.cls-37,.cls-38,.cls-39,.cls-40,.cls-41,.cls-42,.cls-43,.cls-44,.cls-45,.cls-46,.cls-47,.cls-48,.cls-49,.cls-50,.cls-51,.cls-52{stroke-width:0px;}.cls-2{fill:#d9b7fa;}.cls-3{fill:#e5bbf5;}.cls-4{fill:#f3bfee;}.cls-53{opacity:.5;}.cls-5{fill:#ddb8f8;}.cls-6{fill:#f2bde9;}.cls-7{fill:#f5c0ed;}.cls-8{fill:#ebbdf2;}.cls-9{fill:#f6c0ed;}.cls-10{fill:#eabcf2;}.cls-11{fill:#e1b9f7;}.cls-12{fill:#f1beef;}.cls-13{fill:#dc8261;}.cls-14{fill:#f3cfed;}.cls-15{fill:url(#bone);}.cls-16{fill:none;}.cls-17{fill:#ed8c69;}.cls-18{fill:#f0bef0;}.cls-19{fill:#e0b9f7;}.cls-20{fill:#dfb9f7;}.cls-21{fill:#f28f6b;}.cls-22{fill:#dab7fa;}.cls-23{fill:#efbef0;}.cls-24{fill:#bfbfbf;}.cls-25{fill:#ccc;}.cls-26{fill:#0d0d0d;}.cls-27{fill:#fff;}.cls-28{fill:#e9bcf3;}.cls-29{fill:#ba6e52;}.cls-30{fill:#f6916d;}.cls-31{fill:#dbb8f9;}.cls-32{fill:#e4baf5;}.cls-33{fill:#f2bfef;}.cls-34{fill:#eb8b68;}.cls-35{fill:#e8bcf3;}.cls-36{fill:#e3baf6;}.cls-37{fill:#ecbdf1;}.cls-38{fill:#edbdf1;}.cls-39{fill:#deb9f8;}.cls-40{fill:#e6bbf4;}.cls-41{fill:#fa946f;}.cls-42{fill:#f4bfee;}.cls-43{fill:#e2baf6;}.cls-44{fill:#eebef0;}.cls-45{fill:#de8362;}.cls-46{fill:#58592e;}.cls-47{fill:#e7bbf4;}.cls-48{fill:#fcfcfc;}.cls-49{fill:#dcb8f9;}.cls-50{fill:#f2f2f2;}.cls-51{fill:#eb695c;}.cls-52{fill:#db8161;}</style><pattern id="bone" x="0" y="0" width="532" height="536" patternTransform="translate(-1 0)" patternUnits="userSpaceOnUse" viewBox="0 0 532 536"><rect class="cls-16" x="0" width="532" height="536"/><path class="cls-27" d="m573.86,443.58c-1.57,1.39.28,4.01-.64,9.45-.39,2.27-1.08,5.74-3.49,7.21-3.49,2.12-9.52-.67-13.11-4.09-4.8-4.56-3.32-8.38-7.39-16.19-1.9-3.65-5.46-7.34-12.49-14.56-8.23-8.45-14.9-14.47-16.34-15.76-14.46-12.99-21.69-19.49-28.46-22.42-2.11-.91-5.39-2.18-9.03-5.19-2.1-1.73-9.96-8.22-8.4-15.15.05-.22,1.05-4.37,4.52-6.21,3.5-1.85,6.46.26,7.92-1.43,1.87-2.16-2.33-6.39-.91-10.44,1.17-3.32,5.82-5.83,9.65-5.8,9.3.08,12.04,15.16,28.36,33.4,3.51,3.92,7.35,7.28,15.04,14,6.57,5.74,10.69,8.82,27.09,21.54,18.92,14.67,24.68,19.26,23.71,24.45-.56,2.97-3.4,6.56-6.81,7.53-4.07,1.15-7.35-1.99-9.22-.34Z"/><path class="cls-24" d="m512.07,360.81s.2-.45-2.09-3.02c-6.82-7.68-10.23-11.52-14.25-12.23-4.57-.82-8.43,1.43-8.43,1.43-.2-.49,3.89-4.12,8.39-3.99,9.54.28,16.73,17.55,16.37,17.81Z"/><path class="cls-24" d="m477.82,365.03c-2.53,2.9-2.77,5.51-3.25,5.42-.59-.12-1.22-4.22.93-7.16,1.23-1.69,3.49-3.16,5.84-3.43,1.27-.15,1.78.15,2.81-.31,2.11-.93,2.49-3.26,3.03-3.12.6.15,1.05,3.27-.45,4.6-1.18,1.05-2.45.02-4.85.86-1.89.66-3.04,1.98-4.05,3.14Z"/><path class="cls-24" d="m579.2,422.05c-.28.41-16.69-8.95-34.62-23.33-13.83-11.09-20.25-18.5-24.92-25.04-5.58-7.83-8.88-14.75-8.65-14.89.28-.17,5.4,9.25,15.37,19.87,3.31,3.52,6.1,6.06,8.3,8.01,19.27,17.07,44.87,34.86,44.51,35.39Z"/><path class="cls-24" d="m558.69,457.65c.23-.21-1.94-2.27-3.67-6.05-1.42-3.12-1.77-5.72-1.88-6.34-1.41-8.15-18.57-24.6-29.4-34.91-8.35-7.95-17.58-16.64-24.59-20.2-1.31-.67-4.5-2.15-9.79-4.92-3.69-1.93-6.32-3.4-6.44-3.2-.11.18,1.8,1.56,3.11,2.49,4.81,3.44,7.91,4.23,11.6,6.16,2.15,1.13,4.88,3.41,10.35,7.97,3.61,3.02,6.95,6.06,10.39,9.18,1.15,1.04,2.32,2.12,3.6,3.31,5.43,5.05,8.15,7.57,11.67,11.26,9.91,10.38,14.87,15.56,16.16,21.13.42,1.8.96,5.2,3.45,8.86,2.27,3.34,5.2,5.48,5.45,5.25Z"/><path class="cls-27" d="m307.86,577.58c-1.57,1.39.28,4.01-.64,9.45-.39,2.27-1.08,5.74-3.49,7.21-3.49,2.12-9.52-.67-13.11-4.09-4.8-4.56-3.32-8.38-7.39-16.19-1.9-3.65-5.46-7.34-12.49-14.56-8.23-8.45-14.9-14.47-16.34-15.76-14.46-12.99-21.69-19.49-28.46-22.42-2.11-.91-5.39-2.18-9.03-5.19-2.1-1.73-9.96-8.22-8.4-15.15.05-.22,1.05-4.37,4.52-6.21,3.5-1.85,6.46.26,7.92-1.43,1.87-2.16-2.33-6.39-.91-10.44,1.17-3.32,5.82-5.83,9.65-5.8,9.3.08,12.04,15.16,28.36,33.4,3.51,3.92,7.35,7.28,15.04,14,6.57,5.74,10.69,8.82,27.09,21.54,18.92,14.67,24.68,19.26,23.71,24.45-.56,2.97-3.4,6.56-6.81,7.53-4.07,1.15-7.35-1.99-9.22-.34Z"/><path class="cls-24" d="m246.07,494.81s.2-.45-2.09-3.02c-6.82-7.68-10.23-11.52-14.25-12.23-4.57-.82-8.43,1.43-8.43,1.43-.2-.49,3.89-4.12,8.39-3.99,9.54.28,16.73,17.55,16.37,17.81Z"/><path class="cls-24" d="m211.82,499.03c-2.53,2.9-2.77,5.51-3.25,5.42-.59-.12-1.22-4.22.93-7.16,1.23-1.69,3.49-3.16,5.84-3.43,1.27-.15,1.78.15,2.81-.31,2.11-.93,2.49-3.26,3.03-3.12.6.15,1.05,3.27-.45,4.6-1.18,1.05-2.45.02-4.85.86-1.89.66-3.04,1.98-4.05,3.14Z"/><path class="cls-24" d="m313.2,556.05c-.28.41-16.69-8.95-34.62-23.33-13.83-11.09-20.25-18.5-24.92-25.04-5.58-7.83-8.88-14.75-8.65-14.89.28-.17,5.4,9.25,15.37,19.87,3.31,3.52,6.1,6.06,8.3,8.01,19.27,17.07,44.87,34.86,44.51,35.39Z"/><path class="cls-24" d="m292.69,591.65c.23-.21-1.94-2.27-3.67-6.05-1.42-3.12-1.77-5.72-1.88-6.34-1.41-8.15-18.57-24.6-29.4-34.91-8.35-7.95-17.58-16.64-24.59-20.2-1.31-.67-4.5-2.15-9.79-4.92-3.69-1.93-6.32-3.4-6.44-3.2-.11.18,1.8,1.56,3.11,2.49,4.81,3.44,7.91,4.23,11.6,6.16,2.15,1.13,4.88,3.41,10.35,7.97,3.61,3.02,6.95,6.06,10.39,9.18,1.15,1.04,2.32,2.12,3.6,3.31,5.43,5.05,8.15,7.57,11.67,11.26,9.91,10.38,14.87,15.56,16.16,21.13.42,1.8.96,5.2,3.45,8.86,2.27,3.34,5.2,5.48,5.45,5.25Z"/><path class="cls-27" d="m41.86,443.58c-1.57,1.39.28,4.01-.64,9.45-.39,2.27-1.08,5.74-3.49,7.21-3.49,2.12-9.52-.67-13.11-4.09-4.8-4.56-3.32-8.38-7.39-16.19-1.9-3.65-5.46-7.34-12.49-14.56-8.23-8.45-14.9-14.47-16.34-15.76-14.46-12.99-21.69-19.49-28.46-22.42-2.11-.91-5.39-2.18-9.03-5.19-2.1-1.73-9.96-8.22-8.4-15.15.05-.22,1.05-4.37,4.52-6.21,3.5-1.85,6.46.26,7.92-1.43,1.87-2.16-2.33-6.39-.91-10.44,1.17-3.32,5.82-5.83,9.65-5.8,9.3.08,12.04,15.16,28.36,33.4,3.51,3.92,7.35,7.28,15.04,14,6.57,5.74,10.69,8.82,27.09,21.54,18.92,14.67,24.68,19.26,23.71,24.45-.56,2.97-3.4,6.56-6.81,7.53-4.07,1.15-7.35-1.99-9.22-.34Z"/><path class="cls-24" d="m52.36,443.64c-4.18,2.22-9.87.71-9.99-.58-.16-1.7,9.43-2.01,10.66-6.83.5-1.98-.47-4.49-1.37-6.86-1.87-4.92-4.68-7.09-4.45-7.31.46-.44,12.02,7.6,10.69,14.34-.15.76-.73,2.45-1.99,4.12-.35.47-1.61,2.1-3.54,3.13Z"/><path class="cls-24" d="m37.74,460.24c-4.87,2.55-11.18-2.13-11.04-2.6.11-.37,4.27,1.48,8.18-.66.66-.36,1.38-.76,2.03-1.57,2.42-3.06-.54-6.66,1.66-9.98,1.28-1.93,3.55-2.64,3.81-2.37.22.24-1.53,1.62-1.23,3.34.07.4.22.67.27.76.83,1.63,1.53,10.36-3.66,13.08Z"/><path class="cls-24" d="m47.2,422.05c-.28.41-16.69-8.95-34.62-23.33-13.83-11.09-20.25-18.5-24.92-25.04-5.58-7.83-8.88-14.75-8.65-14.89.28-.17,5.4,9.25,15.37,19.87,3.31,3.52,6.1,6.06,8.3,8.01,19.27,17.07,44.87,34.86,44.51,35.39Z"/><path class="cls-24" d="m26.69,457.65c.23-.21-1.94-2.27-3.67-6.05-1.42-3.12-1.77-5.72-1.88-6.34-1.41-8.15-18.57-24.6-29.4-34.91-8.35-7.95-17.58-16.64-24.59-20.2-1.31-.67-4.5-2.15-9.79-4.92-3.69-1.93-6.32-3.4-6.44-3.2-.11.18,1.8,1.56,3.11,2.49,4.81,3.44,7.91,4.23,11.6,6.16,2.15,1.13,4.88,3.41,10.35,7.97,3.61,3.02,6.95,6.06,10.39,9.18,1.15,1.04,2.32,2.12,3.6,3.31,5.43,5.05,8.15,7.57,11.67,11.26,9.91,10.38,14.87,15.56,16.16,21.13.42,1.8.96,5.2,3.45,8.86,2.27,3.34,5.2,5.48,5.45,5.25Z"/><path class="cls-27" d="m573.86,175.58c-1.57,1.39.28,4.01-.64,9.45-.39,2.27-1.08,5.74-3.49,7.21-3.49,2.12-9.52-.67-13.11-4.09-4.8-4.56-3.32-8.38-7.39-16.19-1.9-3.65-5.46-7.34-12.49-14.56-8.23-8.45-14.9-14.47-16.34-15.76-14.46-12.99-21.69-19.49-28.46-22.42-2.11-.91-5.39-2.18-9.03-5.19-2.1-1.73-9.96-8.22-8.4-15.15.05-.22,1.05-4.37,4.52-6.21,3.5-1.85,6.46.26,7.92-1.43,1.87-2.16-2.33-6.39-.91-10.44,1.17-3.32,5.82-5.83,9.65-5.8,9.3.08,12.04,15.16,28.36,33.4,3.51,3.92,7.35,7.28,15.04,14,6.57,5.74,10.69,8.82,27.09,21.54,18.92,14.67,24.68,19.26,23.71,24.45-.56,2.97-3.4,6.56-6.81,7.53-4.07,1.15-7.35-1.99-9.22-.34Z"/><path class="cls-24" d="m512.07,92.81s.2-.45-2.09-3.02c-6.82-7.68-10.23-11.52-14.25-12.23-4.57-.82-8.43,1.43-8.43,1.43-.2-.49,3.89-4.12,8.39-3.99,9.54.28,16.73,17.55,16.37,17.81Z"/><path class="cls-24" d="m477.82,97.03c-2.53,2.9-2.77,5.51-3.25,5.42-.59-.12-1.22-4.22.93-7.16,1.23-1.69,3.49-3.16,5.84-3.43,1.27-.15,1.78.15,2.81-.31,2.11-.93,2.49-3.26,3.03-3.12.6.15,1.05,3.27-.45,4.6-1.18,1.05-2.45.02-4.85.86-1.89.66-3.04,1.98-4.05,3.14Z"/><path class="cls-24" d="m579.2,154.05c-.28.41-16.69-8.95-34.62-23.33-13.83-11.09-20.25-18.5-24.92-25.04-5.58-7.83-8.88-14.75-8.65-14.89.28-.17,5.4,9.25,15.37,19.87,3.31,3.52,6.1,6.06,8.3,8.01,19.27,17.07,44.87,34.86,44.51,35.39Z"/><path class="cls-24" d="m558.69,189.65c.23-.21-1.94-2.27-3.67-6.05-1.42-3.12-1.77-5.72-1.88-6.34-1.41-8.15-18.57-24.6-29.4-34.91-8.35-7.95-17.58-16.64-24.59-20.2-1.31-.67-4.5-2.15-9.79-4.92-3.69-1.93-6.32-3.4-6.44-3.2-.11.18,1.8,1.56,3.11,2.49,4.81,3.44,7.91,4.23,11.6,6.16,2.15,1.13,4.88,3.41,10.35,7.97,3.61,3.02,6.95,6.06,10.39,9.18,1.15,1.04,2.32,2.12,3.6,3.31,5.43,5.05,8.15,7.57,11.67,11.26,9.91,10.38,14.87,15.56,16.16,21.13.42,1.8.96,5.2,3.45,8.86,2.27,3.34,5.2,5.48,5.45,5.25Z"/><path class="cls-27" d="m307.86,309.58c-1.57,1.39.28,4.01-.64,9.45-.39,2.27-1.08,5.74-3.49,7.21-3.49,2.12-9.52-.67-13.11-4.09-4.8-4.56-3.32-8.38-7.39-16.19-1.9-3.65-5.46-7.34-12.49-14.56-8.23-8.45-14.9-14.47-16.34-15.76-14.46-12.99-21.69-19.49-28.46-22.42-2.11-.91-5.39-2.18-9.03-5.19-2.1-1.73-9.96-8.22-8.4-15.15.05-.22,1.05-4.37,4.52-6.21,3.5-1.85,6.46.26,7.92-1.43,1.87-2.16-2.33-6.39-.91-10.44,1.17-3.32,5.82-5.83,9.65-5.8,9.3.08,12.04,15.16,28.36,33.4,3.51,3.92,7.35,7.28,15.04,14,6.57,5.74,10.69,8.82,27.09,21.54,18.92,14.67,24.68,19.26,23.71,24.45-.56,2.97-3.4,6.56-6.81,7.53-4.07,1.15-7.35-1.99-9.22-.34Z"/><path class="cls-24" d="m246.07,226.81s.2-.45-2.09-3.02c-6.82-7.68-10.23-11.52-14.25-12.23-4.57-.82-8.43,1.43-8.43,1.43-.2-.49,3.89-4.12,8.39-3.99,9.54.28,16.73,17.55,16.37,17.81Z"/><path class="cls-24" d="m318.36,309.64c-4.18,2.22-9.87.71-9.99-.58-.16-1.7,9.43-2.01,10.66-6.83.5-1.98-.47-4.49-1.37-6.86-1.87-4.92-4.68-7.09-4.45-7.31.46-.44,12.02,7.6,10.69,14.34-.15.76-.73,2.45-1.99,4.12-.35.47-1.61,2.1-3.54,3.13Z"/><path class="cls-24" d="m211.82,231.03c-2.53,2.9-2.77,5.51-3.25,5.42-.59-.12-1.22-4.22.93-7.16,1.23-1.69,3.49-3.16,5.84-3.43,1.27-.15,1.78.15,2.81-.31,2.11-.93,2.49-3.26,3.03-3.12.6.15,1.05,3.27-.45,4.6-1.18,1.05-2.45.02-4.85.86-1.89.66-3.04,1.98-4.05,3.14Z"/><path class="cls-24" d="m303.74,326.24c-4.87,2.55-11.18-2.13-11.04-2.6.11-.37,4.27,1.48,8.18-.66.66-.36,1.38-.76,2.03-1.57,2.42-3.06-.54-6.66,1.66-9.98,1.28-1.93,3.55-2.64,3.81-2.37.22.24-1.53,1.62-1.23,3.34.07.4.22.67.27.76.83,1.63,1.53,10.36-3.66,13.08Z"/><path class="cls-24" d="m313.2,288.05c-.28.41-16.69-8.95-34.62-23.33-13.83-11.09-20.25-18.5-24.92-25.04-5.58-7.83-8.88-14.75-8.65-14.89.28-.17,5.4,9.25,15.37,19.87,3.31,3.52,6.1,6.06,8.3,8.01,19.27,17.07,44.87,34.86,44.51,35.39Z"/><path class="cls-24" d="m292.69,323.65c.23-.21-1.94-2.27-3.67-6.05-1.42-3.12-1.77-5.72-1.88-6.34-1.41-8.15-18.57-24.6-29.4-34.91-8.35-7.95-17.58-16.64-24.59-20.2-1.31-.67-4.5-2.15-9.79-4.92-3.69-1.93-6.32-3.4-6.44-3.2-.11.18,1.8,1.56,3.11,2.49,4.81,3.44,7.91,4.23,11.6,6.16,2.15,1.13,4.88,3.41,10.35,7.97,3.61,3.02,6.95,6.06,10.39,9.18,1.15,1.04,2.32,2.12,3.6,3.31,5.43,5.05,8.15,7.57,11.67,11.26,9.91,10.38,14.87,15.56,16.16,21.13.42,1.8.96,5.2,3.45,8.86,2.27,3.34,5.2,5.48,5.45,5.25Z"/><path class="cls-27" d="m41.86,175.58c-1.57,1.39.28,4.01-.64,9.45-.39,2.27-1.08,5.74-3.49,7.21-3.49,2.12-9.52-.67-13.11-4.09-4.8-4.56-3.32-8.38-7.39-16.19-1.9-3.65-5.46-7.34-12.49-14.56-8.23-8.45-14.9-14.47-16.34-15.76-14.46-12.99-21.69-19.49-28.46-22.42-2.11-.91-5.39-2.18-9.03-5.19-2.1-1.73-9.96-8.22-8.4-15.15.05-.22,1.05-4.37,4.52-6.21,3.5-1.85,6.46.26,7.92-1.43,1.87-2.16-2.33-6.39-.91-10.44,1.17-3.32,5.82-5.83,9.65-5.8,9.3.08,12.04,15.16,28.36,33.4,3.51,3.92,7.35,7.28,15.04,14,6.57,5.74,10.69,8.82,27.09,21.54,18.92,14.67,24.68,19.26,23.71,24.45-.56,2.97-3.4,6.56-6.81,7.53-4.07,1.15-7.35-1.99-9.22-.34Z"/><path class="cls-24" d="m52.36,175.64c-4.18,2.22-9.87.71-9.99-.58-.16-1.7,9.43-2.01,10.66-6.83.5-1.98-.47-4.49-1.37-6.86-1.87-4.92-4.68-7.09-4.45-7.31.46-.44,12.02,7.6,10.69,14.34-.15.76-.73,2.45-1.99,4.12-.35.47-1.61,2.1-3.54,3.13Z"/><path class="cls-24" d="m37.74,192.24c-4.87,2.55-11.18-2.13-11.04-2.6.11-.37,4.27,1.48,8.18-.66.66-.36,1.38-.76,2.03-1.57,2.42-3.06-.54-6.66,1.66-9.98,1.28-1.93,3.55-2.64,3.81-2.37.22.24-1.53,1.62-1.23,3.34.07.4.22.67.27.76.83,1.63,1.53,10.36-3.66,13.08Z"/><path class="cls-24" d="m47.2,154.05c-.28.41-16.69-8.95-34.62-23.33-13.83-11.09-20.25-18.5-24.92-25.04-5.58-7.83-8.88-14.75-8.65-14.89.28-.17,5.4,9.25,15.37,19.87,3.31,3.52,6.1,6.06,8.3,8.01,19.27,17.07,44.87,34.86,44.51,35.39Z"/><path class="cls-24" d="m26.69,189.65c.23-.21-1.94-2.27-3.67-6.05-1.42-3.12-1.77-5.72-1.88-6.34-1.41-8.15-18.57-24.6-29.4-34.91-8.35-7.95-17.58-16.64-24.59-20.2-1.31-.67-4.5-2.15-9.79-4.92-3.69-1.93-6.32-3.4-6.44-3.2-.11.18,1.8,1.56,3.11,2.49,4.81,3.44,7.91,4.23,11.6,6.16,2.15,1.13,4.88,3.41,10.35,7.97,3.61,3.02,6.95,6.06,10.39,9.18,1.15,1.04,2.32,2.12,3.6,3.31,5.43,5.05,8.15,7.57,11.67,11.26,9.91,10.38,14.87,15.56,16.16,21.13.42,1.8.96,5.2,3.45,8.86,2.27,3.34,5.2,5.48,5.45,5.25Z"/><path class="cls-27" d="m307.86,41.58c-1.57,1.39.28,4.01-.64,9.45-.39,2.27-1.08,5.74-3.49,7.21-3.49,2.12-9.52-.67-13.11-4.09-4.8-4.56-3.32-8.38-7.39-16.19-1.9-3.65-5.46-7.34-12.49-14.56-8.23-8.45-14.9-14.47-16.34-15.76-14.46-12.99-21.69-19.49-28.46-22.42-2.11-.91-5.39-2.18-9.03-5.19-2.1-1.73-9.96-8.22-8.4-15.15.05-.22,1.05-4.37,4.52-6.21,3.5-1.85,6.46.26,7.92-1.43,1.87-2.16-2.33-6.39-.91-10.44,1.17-3.32,5.82-5.83,9.65-5.8,9.3.08,12.04,15.16,28.36,33.4,3.51,3.92,7.35,7.28,15.04,14,6.57,5.74,10.69,8.82,27.09,21.54,18.92,14.67,24.68,19.26,23.71,24.45-.56,2.97-3.4,6.56-6.81,7.53-4.07,1.15-7.35-1.99-9.22-.34Z"/><path class="cls-24" d="m318.36,41.64c-4.18,2.22-9.87.71-9.99-.58-.16-1.7,9.43-2.01,10.66-6.83.5-1.98-.47-4.49-1.37-6.86-1.87-4.92-4.68-7.09-4.45-7.31.46-.44,12.02,7.6,10.69,14.34-.15.76-.73,2.45-1.99,4.12-.35.47-1.61,2.1-3.54,3.13Z"/><path class="cls-24" d="m303.74,58.24c-4.87,2.55-11.18-2.13-11.04-2.6.11-.37,4.27,1.48,8.18-.66.66-.36,1.38-.76,2.03-1.57,2.42-3.06-.54-6.66,1.66-9.98,1.28-1.93,3.55-2.64,3.81-2.37.22.24-1.53,1.62-1.23,3.34.07.4.22.67.27.76.83,1.63,1.53,10.36-3.66,13.08Z"/><path class="cls-24" d="m313.2,20.05c-.28.41-16.69-8.95-34.62-23.33-13.83-11.09-20.25-18.5-24.92-25.04-5.58-7.83-8.88-14.75-8.65-14.89.28-.17,5.4,9.25,15.37,19.87,3.31,3.52,6.1,6.06,8.3,8.01,19.27,17.07,44.87,34.86,44.51,35.39Z"/><path class="cls-24" d="m292.69,55.65c.23-.21-1.94-2.27-3.67-6.05-1.42-3.12-1.77-5.72-1.88-6.34-1.41-8.15-18.57-24.6-29.4-34.91-8.35-7.95-17.58-16.64-24.59-20.2-1.31-.67-4.5-2.15-9.79-4.92-3.69-1.93-6.32-3.4-6.44-3.2-.11.18,1.8,1.56,3.11,2.49,4.81,3.44,7.91,4.23,11.6,6.16,2.15,1.13,4.88,3.41,10.35,7.97,3.61,3.02,6.95,6.06,10.39,9.18,1.15,1.04,2.32,2.12,3.6,3.31,5.43,5.05,8.15,7.57,11.67,11.26,9.91,10.38,14.87,15.56,16.16,21.13.42,1.8.96,5.2,3.45,8.86,2.27,3.34,5.2,5.48,5.45,5.25Z"/></pattern></defs><g id="background"><rect class="cls-46" x=".18" y=".18" width="1919.82" height="1079.67"/><rect class="cls-15" y="0" width="1919.82" height="1079.67"/></g><g id="game_over"><path class="cls-41" d="m709.14,634.39c.31-.37-14.85-12.54-14.56-12.91s15.73,10.7,16.01,10.32-8.08-7.04-7.81-7.43,11.21,6.15,11.47,5.75-9.66-7.32-9.42-7.73,3.68,1.01,3.92.6-6.32-4.47-6.1-4.89-6.22-3.9-6.01-4.33-.09-.67.1-1.11,23.96,9.24,24.14,8.8-21.8-9.64-21.64-10.08,12.72,3.69,12.88,3.24-11.99-4.76-11.85-5.22,13.03,2.93,13.15,2.47-6.01-2.52-5.9-2.99,5.5.3,5.6-.17,3.22-.44,3.3-.91,8.51.15,8.58-.32,1.05-1.24,1.1-1.71-19.75-3.1-19.71-3.58,12.27-.08,12.3-.55-1.92-1.19-1.91-1.67-8.19-1.06-8.19-1.53,7.54-1.08,7.52-1.56-16.74-.01-16.77-.49,10.21-1.51,10.16-1.99,10.58-2.18,10.52-2.65-15.76,1.22-15.83.75,4.93-1.64,4.85-2.11,12.06-3.5,11.96-3.96-9.42,1.05-9.54.58,11.33-4.18,11.2-4.64-17.78,4.18-17.93,3.72,19.09-7.45,18.93-7.9-11.83,3.02-12.01,2.58,1.36-1.68,1.17-2.12-10.48,3.58-10.68,3.15,15.43-8.47,15.22-8.89-18.56,8.47-18.78,8.05,15.82-9.89,15.58-10.3-20.06,11.02-20.31,10.61,2.11-2.01,1.85-2.41,4.21-3.75,3.93-4.14,4.68-4.58,4.39-4.96-5.6,3.35-5.91,2.98,4.14-4.7,3.82-5.05-1.36-.06-1.69-.4-4.96,3.71-5.3,3.38-1.86.96-2.21.64-.62-.28-.98-.59-.13-.88-.5-1.18,9.02-13.51,8.63-13.79-3.37,2.75-3.76,2.48-3.75,3.95-4.16,3.7c-.41-.25,3.47-7.9,3.05-8.14s-7.7,12.09-8.12,11.87,4.17-10.35,3.74-10.56,3.18-10.1,2.74-10.29-8.91,18.71-9.35,18.53,1.4-6.22.95-6.38-2.27,4.06-2.73,3.92-1.16,1.19-1.62,1.07,2-11.66,1.53-11.77-4.4,15.94-4.86,15.85.09-4.15-.38-4.23-.1-4.85-.57-4.92-.92.15-1.39.1.22-16.51-.25-16.54-1.94,14.82-2.42,14.81-.96,6.03-1.44,6.02-1.18-15.35-1.66-15.33-1.39-2.74-1.87-2.71-.73,6.5-1.2,6.54,1.13,18.44.65,18.5-3.3-17.95-3.77-17.87-1.65-2.84-2.12-2.76-.35,4.06-.81,4.16,2.9,16.19,2.44,16.3-1.43-2.94-1.89-2.82-2.21-4.8-2.67-4.66-6.71-16.85-7.16-16.7,4.94,16.89,4.49,17.06,2.61,8.53,2.17,8.71-3.27-5.84-3.7-5.64-4.53-7.52-4.96-7.31,4.78,11.38,4.36,11.61-8.32-13.42-8.74-13.18,7.63,14.89,7.22,15.13,1.54,3.58,1.14,3.84-.69-.07-1.09.2-13.12-16.98-13.5-16.7-3.51-2.56-3.88-2.27.36,2.49-.01,2.79,5.45,8.06,5.09,8.38-3.55-2.39-3.9-2.06-.94.59-1.28.93,7.23,8.33,6.9,8.67,4.38,4.91,4.07,5.27-8.62-6.48-8.92-6.11-13.39-9.41-13.68-9.03,4.61,5.11,4.32,5.5,7.21,6.43,6.93,6.82-.06,1.02-.32,1.42-4.6-1.79-4.85-1.38.49,1.4.26,1.82c-.27.39-2.88-.86-3.15-.47s11.19,8.88,10.92,9.28-17.03-10.55-17.3-10.15-4.79-2.1-5.06-1.71,17.87,13.37,17.6,13.77,1.98,2.49,1.71,2.89-18.24-11.23-18.51-10.83,6.38,5.49,6.12,5.88,10.1,7.96,9.83,8.35-17.13-10.36-17.4-9.96,3.15,3.27,2.88,3.67,3.84,3.72,3.57,4.12-12.27-7-12.54-6.6,20.13,14.5,19.86,14.9-20.89-12.66-21.15-12.26,3.56,3.51,3.3,3.92-1.05.47-1.31.87,7.26,5.9,6.99,6.3,8.59,6.73,8.32,7.14-8.54-4.42-8.8-4.02-.13,1.05-.39,1.46,7.51,5.98,7.25,6.38-7.65-3.79-7.91-3.39-1.93-.1-2.19.3,2.29,2.6,2.03,3-9.26-4.76-9.52-4.35,16.35,11.51,16.09,11.92-3.9-1.35-4.16-.95-20.15-11.57-20.4-11.16,11.62,8.45,11.36,8.85-11.72-6.2-11.97-5.79,19.35,13.21,19.09,13.62-6.21-2.75-6.46-2.34-3.54-1.07-3.79-.66-3.11-.79-3.36-.39-4.59-1.69-4.84-1.28,16.89,11.48,16.64,11.89-4.7-1.77-4.95-1.36-11.6-5.95-11.85-5.54-1.09.47-1.34.88-3.61-1.05-3.86-.64,9.23,6.69,8.98,7.11-14.13-7.36-14.38-6.95,6.87,5.25,6.62,5.67-8.73-4.08-8.98-3.66,23.13,14.88,22.89,15.29-2.06-.13-2.31.29-7.77-3.49-8.02-3.08,7.84,5.72,7.6,6.13-12.89-6.46-13.13-6.04,6.95,5.17,6.71,5.59-1.87.02-2.11.43,2.5,2.55,2.26,2.97,1.96,2.23,1.72,2.65-3.3-.81-3.54-.39-18.74-9.65-18.98-9.23,13.89,9.06,13.65,9.48,6.64,4.88,6.4,5.3-22.15-11.47-22.39-11.05,15.3,9.77,15.06,10.19-6.99-2.84-7.23-2.42-1.7.16-1.93.58-4.93-1.64-5.17-1.22c-.23.42-4.11-1.18-4.35-.76s15.43,9.69,15.2,10.11,7.52,5.25,7.29,5.67-6.37-2.44-6.6-2.02-11.76-5.37-11.99-4.95.4,1.32.17,1.74,3.48,3,3.26,3.42.08,1.14-.15,1.56-10.18-4.42-10.41-4,17.01,10.28,16.78,10.7-11.14-4.91-11.37-4.49.09,1.14-.13,1.57-9.27-3.85-9.5-3.43,9.62,6.22,9.39,6.64-6.61-2.41-6.84-1.99-6.78-2.48-7-2.05,16.8,9.94,16.57,10.36,1.65,1.94,1.43,2.36-12.44-5.42-12.66-4.99-.3.94-.52,1.36-8.13-3.12-8.35-2.69,25.77,14.39,25.55,14.82-22.34-10.42-22.56-9.99,1.08,1.65.86,2.08-.27.96-.49,1.38-1.76.2-1.98.63,15.55,8.96,15.33,9.39-15.69-6.85-15.91-6.42,13.02,7.63,12.8,8.06,2.24,2.18,2.02,2.61-16.41-7.12-16.62-6.69-6.18-1.98-6.39-1.55,15.09,8.56,14.87,8.99,3.6,2.84,3.39,3.27-18.89-8.21-19.1-7.78,13.62,7.75,13.41,8.18,7.67,4.8,7.46,5.23-4.43-1.1-4.64-.67-1.15.5-1.36.93-17.24-7.24-17.45-6.81,6.52,4.21,6.31,4.64-3.87-.77-4.08-.34.17,1.16-.04,1.59,11.83,6.68,11.63,7.11-5.4-1.5-5.61-1.06-13.36-5.22-13.56-4.78,7.12,4.42,6.92,4.85-.98.61-1.18,1.05,18.43,9.63,18.23,10.07-8.83-3.05-9.04-2.62-3.08-.37-3.28.06,6.78,4.16,6.58,4.6-8.74-2.96-8.94-2.52,9.37,5.32,9.18,5.76-15.69-6.08-15.89-5.64,3.19,2.51,3,2.94,13.85,7.29,13.66,7.72-25.26-10.28-25.45-9.85,16.14,8.27,15.95,8.71,7.5,4.37,7.31,4.81-14.22-5.26-14.42-4.83-4.41-.89-4.6-.45,17.92,8.92,17.73,9.36-2.05.13-2.24.57,2.35,2.05,2.16,2.49-13.23-4.71-13.42-4.27,9.41,5.1,9.22,5.54,1.56,1.69,1.37,2.13-22.89-8.78-23.08-8.34,15.08,7.49,14.89,7.93,2.6,2.13,2.41,2.58-7.49-2.14-7.68-1.7-7.51-2.12-7.69-1.68-.84.7-1.03,1.14,15.43,7.48,15.25,7.92-6.2-1.56-6.38-1.12,2.61,2.11,2.42,2.55-17.62-6.23-17.81-5.79,5.7,3.39,5.52,3.83,7.66,4.16,7.48,4.6-15.51-5.28-15.69-4.84-1.16.58-1.34,1.02-1.45.46-1.63.9,4.04,7.23,3.86,7.67c.26.4,14.19-3.09,14.45-2.69s-15.78,11.43-15.53,11.82,16.06-9.34,16.32-8.94-14.4,10.52-14.14,10.92,4.75-1.96,5.01-1.56,3.88-1.39,4.14-1,4.1-1.54,4.36-1.14-.6,1.52-.34,1.92,10.49-5.7,10.75-5.31-.25,1.3,0,1.7-13.33,9.83-13.07,10.23,4.89-2.05,5.15-1.66,12.4-6.95,12.66-6.55-18.08,12.93-17.83,13.32,19.29-11.44,19.55-11.04-6.3,5.24-6.04,5.64,6.85-3.33,7.11-2.93-.49,1.46-.23,1.85-18.75,13.36-18.49,13.75,15.45-8.94,15.71-8.54-3.19,3.22-2.94,3.62-3.5,3.41-3.24,3.81,1.28.3,1.54.7,11.44-6.32,11.7-5.93-4.76,4.24-4.5,4.64-9.85,7.56-9.59,7.95,6.51-3.11,6.77-2.71-5.41,4.66-5.15,5.06,11.07-6.08,11.33-5.69,3.36-1.06,3.62-.66.1,1.07.36,1.47,6.83-3.32,7.09-2.92-10.61,8.05-10.35,8.45-13.29,9.8-13.03,10.2,8.82-4.62,9.08-4.22,5.67-13.39,5.93-12.99c.33-.35,9.67,20.45,10.01,20.1s-12.57-13.38-12.23-13.73,1.98.58,2.32.23.17-1.16.5-1.51,3.01,1.54,3.34,1.2,5.5,3.9,5.83,3.55-6.67-7.64-6.34-7.99,6.07,4.42,6.4,4.07-12.84-13.44-12.52-13.79,17.95,15.6,18.28,15.25-14.28-14.74-13.95-15.09,18.6,16.13,18.93,15.78-8.32-9.11-7.99-9.46-4.27-5.29-3.94-5.64,2.76,1.26,3.08.91,5.32,3.64,5.65,3.28-4.34-5.34-4.02-5.69,8.02,6.12,8.35,5.76-.76-2.01-.43-2.37-2.97-4.05-2.64-4.4.91-.46,1.24-.82-3.13-4.17-2.81-4.52,3.76,2.15,4.09,1.79,3.9,2.26,4.22,1.9,1.84.38,2.16.02,7.74,5.73,8.06,5.37-1.59-2.76-1.27-3.11-7.06-7.7-6.74-8.05-4.88-5.7-4.56-6.06,11.38,8.97,11.7,8.61-.84-2.06-.52-2.42-12.78-12.75-12.46-13.11,10.77,8.36,11.09,8.01-9.05-9.37-8.73-9.73,9.72,7.39,10.04,7.03-9.51-9.74-9.19-10.1,10.89,8.39,11.21,8.03.98-.41,1.3-.77,5.37,3.45,5.68,3.09-6.3-6.84-5.99-7.2-6.88-7.32-6.57-7.69,8.97,6.61,9.29,6.24-4.64-5.34-4.33-5.7,12.35,9.52,12.66,9.15-9.28-9.37-8.97-9.73,2.8,1.17,3.12.81,10.87,8.16,11.19,7.8-11.9-11.58-11.58-11.94,14.68,11.41,14.99,11.05-.62-1.82-.31-2.19-4.13-4.84-3.82-5.2-2.32-3.26-2.01-3.63,7.45,5.11,7.76,4.74-11.27-10.9-10.96-11.27,12.53,9.42,12.84,9.05-8.05-8.12-7.74-8.49-5.49-5.91-5.18-6.28,9.44,6.74,9.75,6.37-6.72-6.94-6.41-7.3,7.22,4.84,7.53,4.47,5.73,3.55,6.03,3.19-17.56-15.99-17.25-16.36,19.15,14.79,19.45,14.42,1.09-.35,1.4-.72-6.45-6.63-6.14-7,3.29,1.49,3.6,1.12-12.85-11.91-12.55-12.28,10.2,7.22,10.51,6.85,5.57,3.35,5.88,2.98-14.93-13.55-14.62-13.92,20.46,15.59,20.76,15.22-19.2-17-18.9-17.38,17.14,12.8,17.44,12.43-2.98-3.68-2.67-4.05-7.36-7.24-7.06-7.61-.92-1.98-.62-2.35.78-.59,1.08-.97,2.38.7,2.69.33,12.99,9.26,13.3,8.89-10.91-10.03-10.6-10.41,7.52,4.82,7.82,4.44,1.03-.41,1.33-.78,3.41,1.49,3.71,1.12,3.97,1.93,4.27,1.55-18.21-15.74-17.91-16.12,14.49,10.3,14.79,9.92-8.07-7.63-7.77-8.01,11.38,7.78,11.68,7.4-10.96-9.89-10.66-10.26-4.84-5.03-4.54-5.4,11.82,8.08,12.12,7.71,1.38-.14,1.67-.52-5.04-5.17-4.74-5.55,3.38,1.43,3.68,1.04,1.69.1,1.99-.28,12.99,8.87,13.29,8.49-5.53-5.53-5.24-5.91-14.18-12.19-13.88-12.58,18.23,12.86,18.53,12.47c.29-.38-2.56-3.19-2.26-3.57s2.2.47,2.49.09-6.4-6.12-6.11-6.5,9.94,6.39,10.23,6.01-17.91-14.88-17.62-15.26-.08-1.25.21-1.63,5.73,3.17,6.02,2.79,4.66,2.33,4.94,1.95,6.8,3.94,7.09,3.56-13.84-11.64-13.55-12.02,10.58,6.77,10.86,6.39,4.27,2.01,4.56,1.63-13.56-11.35-13.27-11.74,13.53,8.93,13.82,8.55,5.6,2.97,5.88,2.59-8.18-7.29-7.89-7.67-5.39-5.19-5.1-5.57-.41-1.48-.12-1.86,1.18-.3,1.47-.69,8.35,4.97,8.63,4.59,2.69.79,2.97.4-13.98-11.44-13.69-11.83,19.49,13.09,19.77,12.71-10.76-9.05-10.48-9.44-2.02-2.65-1.74-3.04,10.31,6.32,10.59,5.93,5.96,3.13,6.24,2.75-10.65-8.9-10.37-9.28-5.75-5.33-5.47-5.72-1.99-2.6-1.71-2.99,8.27,4.78,8.54,4.39,4.43,2,4.7,1.61-3.95-4-3.68-4.39-3.57-3.72-3.29-4.1,8.3,4.75,8.58,4.36-5.96-5.41-5.69-5.8,4.65,2.14,4.93,1.75,1.21-.31,1.49-.7,3.09,1.01,3.36.62-8.98-7.48-8.7-7.87,8.22,4.62,8.5,4.23,8.6,4.86,8.87,4.47-13.12-10.34-12.85-10.73,7.13,3.82,7.4,3.42-4.23-4.1-3.96-4.5,5.71,2.81,5.98,2.42-4.53-4.3-4.26-4.69,4.9,2.23,5.17,1.84,10.98,6.4,11.25,6.01-.45-1.48-.18-1.88-17.72-13.32-17.45-13.71,14.71,8.92,14.98,8.53-10.35-8.23-10.08-8.62,14.01,8.4,14.28,8-15.43-11.64-15.16-12.04,5.9,2.86,6.17,2.47,12.93,7.6,13.2,7.21-16.86-12.54-16.6-12.93,4.48,1.88,4.74,1.48,7.79,4.09,8.05,3.7,5.34,3,5.6,2.6Z"/><path class="cls-45" d="m695.07,559.98c-.08.47,7.1,5.34,7.01,5.81s3.17,1.62,3.08,2.09-10.4-1.01-10.49-.54-12.14-1.5-12.23-1.03,14.91,4.03,14.81,4.5-6.62-.44-6.73.03-6.24-.44-6.35.03,13.51,4.02,13.41,4.49,10.85,3.57,10.74,4.04-21.71-4.2-21.83-3.73,8.86,3.16,8.75,3.62-1.75.56-1.87,1.02,5.76,2.51,5.64,2.97,2.26,1.64,2.14,2.11.07,1.07-.06,1.53-10.86-2.01-10.99-1.54,14.99,5.31,14.85,5.77-2.75.28-2.89.74-17.69-4.25-17.83-3.79,4.91,2.48,4.77,2.93-2.7.15-2.84.61,10.88,4.47,10.74,4.93-5.21-.64-5.36-.19-11.96-2.95-12.11-2.49,2.68,1.87,2.52,2.32,16.79,6.78,16.64,7.23-.81.8-.97,1.26-19.91-6.03-20.07-5.58-4.8-.78-4.96-.33.58,1.16.41,1.61,25.6,10.58,25.43,11.03-.54.9-.71,1.35-5.79-1.14-5.96-.69-3.93-.47-4.11-.03,5.49,3.26,5.32,3.71-4.17-.6-4.35-.15-.18,1-.36,1.45-11.54-3.75-11.72-3.31,11.28,5.8,11.1,6.25-15.73-5.68-15.92-5.24-.44.81-.63,1.24,17,8.52,16.81,8.95-16.11-6.11-16.31-5.67,17.05,8.75,16.85,9.18-19.14-7.67-19.34-7.24.55,1.27.35,1.7-5.28-1.47-5.49-1.03-1.07.49-1.28.92,13.06,7.29,12.86,7.72.16,1.15-.05,1.58-3.77-.78-3.98-.35-2.94-.4-3.15.03,1.65,1.88,1.44,2.31,6.51,4.38,6.29,4.81-16.39-7.34-16.61-6.91.62,1.35.4,1.77-3.5-.81-3.72-.38,19.7,11.48,19.47,11.9-4.02-1.03-4.25-.61,3.96,3.25,3.73,3.67,1.7,2.07,1.47,2.49-19.79-9.77-20.02-9.35,3.92,3.24,3.69,3.65-.71.67-.95,1.09,6.98,5.04,6.75,5.45-.14,1.04-.38,1.45-15.06-7.57-15.3-7.15,9.32,6.47,9.08,6.89,2.8,2.75,2.56,3.16-7.44-3.28-7.68-2.87,5.84,4.57,5.6,4.99,1.27,1.88,1.02,2.29-8.76-4.17-9.01-3.77-6.79-3.05-7.04-2.64,13.52,9.38,13.27,9.79-8.67-4.24-8.92-3.83,1.21,1.85.95,2.26,2.9,2.93,2.65,3.34-4.91-1.98-5.17-1.58-3.44-1.08-3.69-.68,16.84,11.91,16.58,12.31-10.21-5.42-10.47-5.02-7.51-3.75-7.78-3.35,15.76,11.43,15.5,11.83-16.4-9.63-16.67-9.23,8.38,6.68,8.12,7.08-11.12-6.26-11.39-5.87,9.52,7.5,9.25,7.9-3.59-1.26-3.86-.87,5.83,5.11,5.56,5.51,5.49,4.93,5.22,5.32-.25,1.03-.52,1.42-21.67-13.76-21.94-13.37,19.05,14.35,18.77,14.75-11.4-6.75-11.67-6.36,10,8.18,9.72,8.57-11.45-6.87-11.73-6.48,4.72,4.51,4.44,4.9-4.98-2.36-5.26-1.97-3.05-1.01-3.33-.62-7.38-4.14-7.66-3.75-1.25.24-1.53.63,15.62,12.49,15.34,12.87-10.45-6.42-10.73-6.03,1.04,1.93.75,2.32,6.05,5.63,5.77,6.02-6.65-3.71-6.93-3.32,12.87,10.73,12.59,11.12-8.84-5.35-9.12-4.97-9.18-5.66-9.47-5.28,12.06,10.23,11.77,10.61-4.68-2.31-4.97-1.93-10.56-6.77-10.85-6.39,6.94,6.45,6.65,6.83-10.14-6.52-10.43-6.14,13.93,11.82,13.64,12.2-16.82-11.68-17.11-11.3,9.07,8.16,8.78,8.54-2.07-.39-2.36-.01,8.15,7.51,7.86,7.89-14.47-10.01-14.77-9.63,15.5,13.27,15.21,13.64-15.28-10.7-15.57-10.32,17.43,14.85,17.14,15.23-2.85-1-3.15-.62-4.99-2.69-5.29-2.32-5.68-3.26-5.98-2.88,4.49,4.77,4.19,5.15-5.45-3.09-5.75-2.71.16,1.35-.13,1.73,4.21,4.58,3.91,4.96.95,1.99.65,2.37-.44.89-.74,1.26-1.07.38-1.37.76-13.24-9.4-13.54-9.02,2.67,3.37,2.37,3.74,3.58,4.11,3.28,4.49-7.26-4.63-7.56-4.26,10.53,9.74,10.23,10.12-9.25-6.25-9.55-5.88-8.76-5.88-9.06-5.5,15.47,13.79,15.17,14.16-5.5-3.24-5.81-2.87,2.94,3.63,2.64,4,.54,1.68.24,2.05-9.73-6.71-10.04-6.33,12.19,11.2,11.89,11.57-3.78-1.85-4.08-1.47-4.31-2.28-4.61-1.91-.4.91-.71,1.28-13.34-9.7-13.64-9.33,10.92,10.2,10.62,10.57,4.07,4.58,3.76,4.95-12.47-9-12.78-8.63-2.76-1.03-3.07-.66,4.36,4.82,4.05,5.19,13.65,12.47,13.35,12.84-14.68-10.83-14.99-10.46-2.98-1.21-3.29-.84,2.42,3.23,2.11,3.6,12.08,11.18,11.78,11.55-3.08-1.29-3.39-.92-4.64-2.58-4.95-2.21-14.59-10.76-14.9-10.39,12.96,11.9,12.66,12.27,6.27,6.39,5.97,6.76-5.75-3.48-6.05-3.11-7.35-4.79-7.65-4.42,8.92,8.56,8.62,8.93-12.79-9.25-13.1-8.88,12.32,11.33,12.02,11.7,2.38,3.18,2.08,3.55-.94.46-1.24.83-17.2-12.82-17.51-12.45-3.83-1.88-4.13-1.51,1.07,2.12.77,2.49,6.9,6.86,6.6,7.23-3.83-1.87-4.13-1.5-.78.61-1.08.98,7.94,7.67,7.64,8.04,4.5,4.86,4.2,5.24-8.96-6.02-9.26-5.65-13.31-9.5-13.61-9.12,4.67,5,4.37,5.37,6.89,6.77,6.59,7.14-.19,1.07-.49,1.45-4.38-2.28-4.68-1.91.3,1.46,0,1.84-2.83-1.03-3.13-.65,10.57,9.62,10.27,9.99-16.27-11.68-16.57-11.31-4.63-2.43-4.93-2.05,16.92,14.56,16.62,14.94,4.1-3.47,3.81-3.1c.25.39-19.16,5.99-18.9,6.38s7.51-3.79,7.76-3.4,11.25-6.23,11.5-5.84-16.24,11.7-15.99,12.09,4.23-1.65,4.48-1.26,4.91-2.09,5.16-1.71-11.3,8.48-11.05,8.86,21.27-12.76,21.52-12.37-9.68,20.17-9.43,20.56c.33-.35,7.81-8.18,8.15-8.53s1.12-.27,1.45-.62-6.06-7.13-5.73-7.47-7.21-8.19-6.87-8.54,7.59,5.91,7.92,5.56.33-1.01.66-1.36-6.28-7.26-5.95-7.61,6.82,5.14,7.15,4.79,1.88.46,2.21.11-1.77-2.98-1.44-3.33,8.21,6.4,8.54,6.05-13.92-14.36-13.59-14.71,3.58,2.06,3.91,1.71,17.62,15.14,17.95,14.79-9.83-10.48-9.5-10.83,10.34,8.3,10.67,7.94-16.51-16.62-16.18-16.97,5.58,3.87,5.91,3.52,3.27,1.72,3.6,1.37,2.9,1.37,3.23,1.02,4.18,2.54,4.51,2.18-14.39-14.5-14.06-14.85,4.27,2.63,4.6,2.27,10.24,8.06,10.57,7.71,1.16-.25,1.48-.6,3.34,1.73,3.66,1.38-7.77-8.35-7.45-8.7,12.43,9.96,12.76,9.6-5.73-6.48-5.41-6.84,7.77,5.7,8.09,5.34-19.8-19.1-19.48-19.45,2,.53,2.32.17,6.94,4.94,7.26,4.58-6.57-7.14-6.25-7.5,11.37,8.86,11.69,8.5-5.8-6.44-5.48-6.79,1.83.35,2.15,0-1.95-2.99-1.63-3.35-1.48-2.57-1.16-2.93,3.07,1.45,3.39,1.09,16.44,13.19,16.76,12.82-11.81-11.65-11.49-12.01-5.53-6.11-5.21-6.47,19.4,15.68,19.71,15.32-13.03-12.64-12.71-13,6.27,4.19,6.59,3.83,1.69.19,2-.17,4.49,2.61,4.8,2.25,3.79,1.99,4.1,1.62-13.15-12.61-12.83-12.98-6.3-6.67-5.98-7.04,5.74,3.68,6.06,3.32,10.41,7.66,10.72,7.29-.12-1.37.19-1.74-2.8-3.65-2.49-4.02.15-1.13.46-1.5,9.05,6.42,9.36,6.05-14.53-13.56-14.21-13.93,9.89,7.1,10.2,6.74.14-1.14.45-1.51,8.27,5.69,8.58,5.32-8.12-8.08-7.81-8.44,5.96,3.74,6.27,3.37,6.11,3.84,6.42,3.47-14.35-13.22-14.04-13.59-1.21-2.24-.9-2.61,11.03,7.91,11.33,7.54.49-.85.8-1.22,7.29,4.76,7.59,4.39-22.15-19.51-21.84-19.88,19.63,14.91,19.94,14.54-.71-1.84-.4-2.21.47-.87.77-1.24,1.76.18,2.06-.19-13.28-12.07-12.98-12.44,13.87,10.04,14.17,9.67-11.08-10.24-10.78-10.61-1.72-2.62-1.41-2.99,14.5,10.48,14.8,10.1,5.6,3.27,5.91,2.89-12.89-11.61-12.59-11.98-2.9-3.55-2.6-3.93,16.66,12.11,16.96,11.73-11.61-10.52-11.31-10.89-6.44-6.35-6.14-6.73,4.09,2.03,4.39,1.66,1.24-.24,1.54-.62,15.24,10.84,15.54,10.46-5.44-5.54-5.14-5.91,3.6,1.6,3.9,1.23.09-1.17.39-1.55-10.07-9.12-9.77-9.5,4.94,2.65,5.24,2.27,11.87,8.04,12.17,7.66-5.97-5.89-5.67-6.27,1.09-.38,1.39-.76-15.83-13.49-15.53-13.88,7.94,4.94,8.23,4.55,2.92,1.04,3.22.66c.29-.38-5.67-5.57-5.38-5.95s7.86,4.84,8.15,4.46-7.94-7.29-7.65-7.67,13.92,9.45,14.21,9.07-2.55-3.16-2.26-3.54-11.85-10.22-11.56-10.6,22.28,15.73,22.57,15.35-13.85-11.71-13.56-12.09-6.31-5.96-6.02-6.35,12.65,8.36,12.94,7.98,4.09,1.88,4.38,1.49-15.41-12.77-15.13-13.15,2.03.34,2.32-.04-1.81-2.53-1.53-2.92,11.8,7.62,12.08,7.24-7.98-7.13-7.7-7.51-1.13-2.01-.84-2.4,20.25,13.82,20.53,13.43-12.95-10.76-12.66-11.15-2.03-2.68-1.75-3.06,6.79,3.82,7.08,3.43,6.81,3.81,7.09,3.42.98-.48,1.26-.86-13.26-10.87-12.98-11.26,5.67,2.96,5.95,2.57-2.04-2.66-1.76-3.05,15.67,10.19,15.95,9.8-4.75-4.63-4.47-5.02-6.46-5.85-6.18-6.24,13.83,8.78,14.11,8.4,1.26-.29,1.54-.68,1.52-.11,1.8-.49-3.83-3.93-3.55-4.32-11.32-9.26-11.05-9.65,16.41,10.51,16.69,10.12-14.57-11.53-14.29-11.92,15.08,9.52,15.36,9.13-3.56-3.71-3.29-4.1-2.72-3.1-2.45-3.49-2.94-3.24-2.67-3.63,1.64-.02,1.91-.41-9.2-7.61-8.93-8,1.3-.24,1.57-.64,14.11,8.68,14.38,8.29-3.73-3.77-3.46-4.16-11.1-8.87-10.83-9.26,18.8,11.86,19.07,11.47-17.89-13.52-17.62-13.92,7.23,3.84,7.51,3.45-5.69-5.06-5.42-5.45,1.53-.09,1.8-.49,19.51,12.21,19.78,11.81-14.17-10.84-13.91-11.24,4.2,1.71,4.47,1.32,4.5,1.91,4.77,1.51-.22-1.3.05-1.7-10.27-8.09-10-8.49,5.75,2.74,6.02,2.35,10.8,6.12,11.06,5.73-5.4-4.78-5.14-5.18,6.17,3.49,6.43,3.09c.31-.37-9.43-8.35-9.14-8.73s-2.24-2.66-1.95-3.05.84-.3,1.11-.7-5.92-4.69-5.66-5.09,11.66,6.42,11.91,6.01,14.84,7.28,15.07,6.86-8.11-5.82-7.89-6.25-14.32-8.15-14.11-8.58,23.52,9.82,23.71,9.39-16.41-8.22-16.23-8.66,2.02-.12,2.19-.57-.34-1.05-.18-1.5,3.37.13,3.51-.33,6.71.84,6.84.38-9.52-3.48-9.41-3.95,7.48.69,7.58.22-18.07-4.29-17.99-4.76,23.61,2.92,23.68,2.44-20.19-3.57-20.14-4.04,24.58,1.46,24.62.98-12.18-2.02-12.16-2.5-6.68-1.15-6.67-1.63,2.89-.8,2.89-1.28,6.36-1.1,6.34-1.58-6.84-.62-6.88-1.09,9.93-1.82,9.89-2.3-2.03-.91-2.09-1.39-5.01-.33-5.09-.8.2-1.01.11-1.48-5.19.15-5.3-.32,3.92-1.82,3.8-2.29,3.99-2.11,3.86-2.57,1.24-1.52,1.09-1.98,8.68-4.25,8.52-4.71-3.31-.24-3.48-.69-10.07,2.83-10.26,2.39-7.16,2.2-7.36,1.77,12.6-7.18,12.38-7.61-2.33-.14-2.55-.56-16.13,8.08-16.37,7.67,11.21-7.76,10.96-8.16-11.31,6.43-11.58,6.03,9.51-7.66,9.23-8.05-11.3,7.56-11.59,7.18,10.18-9.24,9.87-9.6-.31-1.08-.63-1.43,3.85-5.14,3.51-5.48-7.3,5.77-7.65,5.44-7.35,6.82-7.71,6.49,6.69-8.89,6.32-9.2-5.03,4.94-5.41,4.64,2.17-9.4,1.78-9.68Z"/><path class="cls-27" d="m534.51,911.72c-91.17,22.63-183.12,45.46-287.27-1-21.1-9.41-38.1-19.62-50.71-28.08,2.86-19.13,8.09-42.65,17.94-68.42,7.58-19.84,16.25-36.7,24.47-50.5,28.29,8.68,70.01,17.85,120.71,16.29,70.46-2.16,124.58-24,154.97-39.1,7.29,10.08,17.99,25.65,29.36,45.61,30.18,52.98,46.95,78.78,38.58,98.21-6.65,15.42-25.33,21.35-48.05,26.99Z"/><path class="cls-25" d="m354.54,886.86c-23.73-5.22-48.62-10.7-74.76-16.45-11.06-15.62-23.92-36.79-33.93-62.47-7.54-19.32-11.41-36-13.43-49.05,31.79,10.09,61.83,19.62,90.27,28.64,3.31,12.8,7.22,26.64,11.86,41.51,6.16,19.75,12.91,39.1,19.98,57.8Z"/><path class="cls-25" d="m473.27,912.46c-28.64-7.04-56.11-13.79-82.48-20.27-.67-20.16-1.15-40.02-1.43-59.56-.23-15.9-.33-31.23-.31-46.01,27.42-8.65,55.4-17.48,83.95-26.49,1.27,15.03,2.21,31.15,2.7,48.38.98,34.91-.02,69.79-2.42,103.94Z"/><path class="cls-48" d="m345.33,886.73l-78.07-15c-10.05-14.44-21.82-34.48-31.03-59.98-7.2-19.95-10.99-38.13-13.01-52.98,33.36,6.66,66.73,13.33,100.09,19.99,2.11,15.32,4.74,31.35,8.01,47.99,4.18,21.31,8.94,41.33,14.01,59.98Z"/><path class="cls-48" d="m480.45,918.72c-27.36-8.33-54.72-16.66-82.08-24.99-2.49-20.66-4.83-41.65-7.01-62.98-1.82-17.87-3.49-35.53-5-52.98l90.09-17.99c1.73,17.63,3.1,35.97,4,54.98,1.76,36.93,1.53,71.69,0,103.97Z"/><path class="cls-25" d="m532.91,696.08c-4.44,55.27-101.87,91.71-175.9,93.09-56.46,1.05-150.17-17.35-161.71-74.47-5.15-25.48,8-49.03,21.28-72.78,4.11-7.36,58.59-101.37,150.37-96.47,58.7,3.14,96.65,44.81,120.58,71.08,26.41,29,47.59,52.25,45.39,79.55Z"/><path class="cls-27" d="m557.02,690.41c-5.1,53.2-117.14,88.28-202.27,89.6-64.92,1.01-172.68-16.7-185.96-71.68-5.92-24.53,9.2-47.19,24.47-70.05,4.73-7.08,67.37-97.58,172.91-92.86,67.5,3.02,111.14,43.13,138.65,68.42,30.37,27.91,54.72,50.29,52.2,76.57Z"/><path class="cls-41" d="m539.08,648.06c-1.56,1.97-4.59,5.71-9.79,8.15-9.33,4.37-17.65.82-26.1,0-15.85-1.53-26.88,7.1-35.89,11.4-31.59,15.09-58.83-13.23-115.82-11.4-53.69,1.72-77.23,28.39-104.4,13.03-6.43-3.63-17.77-12.29-35.89-14.66-13.84-1.81-17.81,1.85-24.47-1.63-16.94-8.84-14.05-44.45-13.05-60.28.9-14.19,3.31-53.14,28.62-66.4,2.95-1.55,5.58-2.43,7.37-2.94,0,0,7.08-2.05,14.74-1.47,5.39.4,8.98,2.14,28.01,13.25,15.67,9.15,20.48,12.2,26.54,17.67,3.24,2.92,5.73,5.54,7.37,7.36,6.7-3.97,14.82-8.04,24.36-11.45,20.69-7.39,39.3-8.52,52.2-8.15,9.9.93,20.85,2.46,32.62,4.89,11.41,2.36,21.77,5.19,30.99,8.15,21.75-10.32,43.5-20.63,65.25-30.95,4.38-1.49,19.51-6.03,32.62,1.63,10.02,5.85,13.3,15.58,17.94,29.32,5.46,16.16,5.27,31.41,4.89,61.9-.15,12.18-.76,23.24-8.16,32.58Z"/><path class="cls-26" d="m315.3,641.81c.78-1.94-15.66-6.12-29.06-23.07-4.11-5.2-6.12-9.31-6.97-8.92-1.39.64.44,13.16,8.61,21.95,10.31,11.1,26.68,11.9,27.43,10.04Z"/><path class="cls-26" d="m394.01,642.19c-.78-1.94,15.66-6.12,29.06-23.07,4.11-5.2,6.12-9.31,6.97-8.92,1.39.64-.44,13.16-8.61,21.95-10.31,11.1-26.68,11.9-27.43,10.04Z"/><path class="cls-26" d="m442.6,682.62c.99,2.11,17.79-.96,28.39-3.65,11.61-2.95,27.58-8.44,26.82-10.63-.69-2.02-15.45-1.19-28.25,1.93-14.38,3.51-27.92,10.33-26.97,12.35Z"/><path class="cls-26" d="m441.99,692.6c-.04,2.25,17,4.3,28.1,4.89,12.16.65,29.53.2,29.83-2.07.28-2.08-13.84-5.62-27.18-6.45-14.99-.93-30.72,1.46-30.76,3.62Z"/><path class="cls-26" d="m441.56,702.3c-.53,2.21,15.79,6.61,26.59,8.75,11.83,2.34,29.03,4.32,29.83,2.14.73-2.01-12.39-7.47-25.34-10.15-14.55-3.01-30.56-2.85-31.07-.73Z"/><path class="cls-45" d="m468.94,548.68c17.97-10.25,31.09-17.73,42.41-13.03,12.69,5.27,15.81,22.8,19.57,43.98,3.32,18.69,6.36,54.1-3.26,57.02-6.85,2.08-11.47-14.93-34.26-34.21-25.9-21.92-47.54-23.31-47.31-34.21.14-6.6,8.18-11.19,22.84-19.55Z"/><path class="cls-45" d="m273.37,568.85c.05-5.77-8.01-10.23-23.02-18.54-15.11-8.36-22.66-12.54-29.36-11.4-21.23,3.61-30.94,45.24-29.36,73.31.34,5.98,1.11,19.81,6.52,21.18,6.97,1.77,11.61-19.65,32.62-37.47,21.49-18.21,42.52-17.77,42.6-27.07Z"/><path class="cls-26" d="m322.85,705.37c.4,1.16,13.72-1.45,26.37-7.93,5.05-2.59,11.73-6.68,11.33-7.54-.55-1.17-14.05,3.94-23.37,8.05-6.3,2.78-14.66,6.46-14.33,7.42Z"/><path class="cls-26" d="m395.19,700.32c-.13.84-9.71,1.25-19.96-1.82-9.59-2.87-17-7.96-16.67-8.69.18-.4,4.74.92,13.88,3.57,1.86.54,3.2.94,3.96,1.16,16.51,4.9,18.86,5.35,18.8,5.77Z"/><path class="cls-26" d="m305.23,719.66c.72.81,15.35-5.51,17.74-17.28,3.18-15.65-17.48-30.03-17.81-29.74-.3.25,15.49,12.1,13.94,26.58-1.33,12.38-14.57,19.64-13.86,20.44Z"/><path class="cls-26" d="m411.56,716.73c-.78.75-14.85-6.75-16.27-18.67-1.89-15.86,19.88-28.5,20.19-28.19.28.27-16.43,10.79-16.07,25.36.31,12.44,12.91,20.76,12.14,21.51Z"/><path class="cls-26" d="m269.58,684.12c-.99,2.11-17.79-.96-28.39-3.65-11.61-2.95-27.58-8.44-26.82-10.63.69-2.02,15.45-1.19,28.25,1.93,14.38,3.51,27.92,10.33,26.97,12.35Z"/><path class="cls-26" d="m270.18,694.1c.04,2.25-17,4.3-28.1,4.89-12.16.65-29.53.2-29.83-2.07-.28-2.08,13.84-5.62,27.18-6.45,14.99-.93,30.72,1.46,30.76,3.62Z"/><path class="cls-26" d="m270.62,703.8c.53,2.21-15.79,6.61-26.59,8.75-11.83,2.34-29.03,4.32-29.83,2.14-.73-2.01,12.39-7.47,25.34-10.15,14.55-3.01,30.56-2.85,31.07-.73Z"/><path class="cls-26" d="m367.43,693.18c.27-.42-2.38-1.87-4.8-5.2-2.49-3.43-2.86-6.27-3.75-6.16-.9.11-.39,2.91-2.25,5.91-2.04,3.28-5.41,4.38-5.21,4.79.22.44,3.62-1.85,8.08-1.67s7.61,2.81,7.92,2.32Z"/><path class="cls-6" d="m965.91,1080H0v-213.41c203.45,2.72,406.9,5.43,610.35,8.15,48.99,6.72,126.57,24.46,210.17,76.57,67.38,42,114.96,91.54,145.39,128.7Z"/></g><g id="point"><path class="cls-51" d="m613.91,997.27c.57,2.62,0,5.2,0,5.2-.35,2.25-1.1,4.02-1.71,5.2-1.7,1.72-4.43,4.84-8.55,6.93-6.84,3.47-13.2,5.77-17.11,6.93-44.83,13.36-83.82,12.13-83.82,12.13-19.22.12-47.69-2.17-80.4-8.66-16.01-3.18-35.74-8.31-37.63-19.06-.25-1.4-.14-2.62,0-3.47,0,0,0,0,0,0,0-.05-.29-1.73,0-3.46,4.24-24.86,95.26-25.38,117.07-25.5,28.23-.16,106.8-.61,112.15,23.77Z"/><path class="cls-34" d="m613.05,996.11c0,14.76-61.78,29.47-114.38,29.46-52.45-.01-114.37-14.68-114.38-29.46,0-14.85,62.56-29.77,116.11-29.46,51.5.3,112.64,14.78,112.64,29.46Z"/><path class="cls-52" d="m600.22,993.8c-11.44,3.78-24,7.36-37.63,10.4-22.58,5.04-43.36,7.57-61.58,8.66-15.28.66-35.35-.05-58.16-5.2-16.5-3.72-30.53-8.89-41.79-13.94.72-12.81,2.02-26.71,4.16-41.51,2.12-14.7,4.79-28.31,7.7-40.72,11.3,7.52,40.41,24.71,81.25,25.12,43.54.44,74.46-18.46,85.53-25.99,4.23,12,8.34,25.31,11.97,39.85,3.87,15.49,6.61,30.02,8.55,43.32Z"/><path class="cls-13" d="m579.7,912.36c0,14.76-43.17,27.74-82.11,27.72-38.83-.01-85.53-12.95-85.53-27.72,0-14.85,45.46-28.03,85.1-27.72,38.13.3,82.54,13.05,82.54,27.72Z"/><path class="cls-29" d="m572.85,914.1c0,6.62-8.56,10.12-20.53,13.86-14.7,4.59-34.99,8.67-56.45,8.66-18.37,0-33.4-3.13-47.9-6.93-16.15-4.23-30.79-9.54-30.79-17.33,0-14.85,42.46-24.57,82.11-24.26,38.13.3,73.55,11.31,73.56,25.99Z"/><path class="cls-17" d="m549.76,1006.8c-13.24,3.5-30.06,6.58-49.61,6.93-11.38.21-21.72-.54-30.79-1.73-.54-9.98-.64-21.01,0-32.92.84-15.49,2.78-29.44,5.13-41.59,10.32,1.77,23.76,3.02,39.34,1.73,11.23-.93,21.02-2.96,29.08-5.2,2.06,14.9,3.81,30.51,5.13,46.78.72,8.85,1.28,17.52,1.71,25.99Z"/><path class="cls-1" d="m600.22,993.8c-4.56,1.16-9.12,2.31-13.68,3.47-1.06-10.78-2.46-22.06-4.28-33.79-2.23-14.4-4.85-28-7.7-40.72,1.14-3.47,2.28-6.93,3.42-10.4-.33-2.72-.21-3.41,0-3.47,1.33-.35,9.19,24.22,14.54,45.92,3.88,15.76,6.24,29.19,7.7,38.99Z"/><path class="cls-1" d="m411.2,998.14c-1.71-.58-3.42-1.16-5.13-1.73s-3.42-1.16-5.13-1.73c.5-16.87,1.96-30.93,3.42-41.59,3.3-24.03,8.48-44.76,8.55-45.05h0v6.93h0c.41,1.74,1.32,2.96,1.71,3.47.36.47.87,1.03,1.71,1.73,1.88,1.57,4.71,3.22,5.13,3.47-3.49,12.29-6.69,26.83-8.55,43.32-1.28,11.28-1.74,21.74-1.71,31.19Z"/><path class="cls-30" d="m573.71,921.89c-4.22,2.86-9.94,6.11-17.11,8.66-5.07,1.8-9.73,2.85-13.68,3.47.59,5.17,1.16,10.37,1.71,15.59,2.04,19.37,3.74,38.43,5.13,57.18,7.55-1.29,15.56-2.98,23.95-5.2,4.14-1.1,8.14-2.26,11.97-3.47-.55-10.68-1.61-22.29-3.42-34.66-2.24-15.32-5.26-29.23-8.55-41.59Z"/><ellipse class="cls-50" cx="500.15" cy="975.61" rx="28.22" ry="28.59"/></g><g id="life"><path class="cls-14" d="m213.44,923.21c-34.08-36.36-78.36-40.16-97.16-22.3-11.46,10.89-15.04,31.32-10.21,47.51,3.4,11.39,10.79,20.11,36.69,38.08,16.7,11.58,40.15,26.36,70.24,40.88"/><path class="cls-14" d="m212.93,923.02c34.27-36.19,78.57-39.75,97.28-21.79,11.4,10.94,14.88,31.4,9.97,47.56-3.46,11.38-10.89,20.05-36.89,37.89-16.76,11.5-40.29,26.15-70.45,40.52"/><path class="cls-50" d="m126.11,923.22c.95,4.32-2.03,9.56-5.9,9.82-2.51.17-4.92-1.79-5.9-3.93-2.16-4.69,1.85-11.71,5.9-11.78,2.68-.05,5.25,2.96,5.9,5.89Z"/><path class="cls-50" d="m167.57,908.09c.45,2.56-.51,6.07-2.92,7.55-5.74,3.53-14.04-7.85-23.18-4.85-5.48,1.8-6.81,7.31-10.73,6.59-2.73-.51-4.94-3.71-5.13-6.57-.36-5.67,7.23-10.49,12.43-12.31,11.98-4.19,28.12,1.69,29.52,9.6Z"/><path class="cls-2" d="m179.2,1009.63c5.59,3.28,11.49,6.56,17.7,9.82,5.36,2.82,10.62,5.43,15.73,7.86,13.09-6.34,23.85-11.79,31.46-15.71,0,0,32.41-16.69,57.03-35.35,4.43-3.36,12.93-10.06,17.7-21.6,1.01-2.46,1.62-4.55,1.97-5.89.95-3.05,7.71-26.08-5.9-43.21-3.7-4.66-8.02-7.76-11.8-9.82-8.98,2.89-21.93,7.75-36.49,15.84-14.56,8.09-30.71,19.41-46.1,35.23-22.48,23.11-34.73,47.01-41.3,62.85Z"/><path class="cls-22" d="m314.5,905.21c13.19,16.61,6.12,38.98,4.86,42.55-.46,1.3-1,3.39-2.02,5.8-4.77,11.3-13.16,17.94-17.64,21.38-3.79,2.89-7.77,5.74-11.79,8.5-9.64,6.62-19.18,12.45-27.3,17.22-10,5.87-17.13,9.58-17.26,9.67-6.95,5.08-18.22,9.51-31.07,15.82-5.07-2.23-10.23-4.71-15.54-7.29-6.2-3.01-12.08-6.01-17.53-9.21,2.99-7.39,7.43-16.88,13.79-27.33,6.78-11.16,15.69-23.37,27.35-35.37,5.28-5.44,10.66-10.36,16.05-14.8,10.2-8.41,20.38-15.1,29.89-20.41,8.85-4.94,17.11-8.69,24.24-11.52,4.54-1.8,8.63-3.23,12.11-4.37,3.92,1.89,8.26,4.85,11.86,9.38Z"/><path class="cls-31" d="m314.11,904.88c12.77,16.09,5.49,37.82,3.81,41.89-.52,1.27-1.04,3.34-2.07,5.71-4.77,11.06-13.05,17.65-17.58,21.15-3.74,2.89-7.69,5.72-11.66,8.47-9.59,6.67-18.78,12.34-26.97,17.23-9.76,5.84-16.79,9.52-17.05,9.71-6.95,5.14-18.07,9.65-30.67,15.92-5.02-2.03-10.1-4.38-15.35-6.72-6.2-2.76-12.06-5.49-17.36-8.61,2.83-7.19,7.26-16.7,13.7-27.27,6.76-11.11,15.66-23.3,27.29-35.28,5.25-5.42,10.62-10.33,16-14.78,10.15-8.4,20.3-15.09,29.78-20.41,8.81-4.95,17.04-8.71,24.15-11.56,4.52-1.81,8.59-3.25,12.07-4.39,4.05,1.71,8.42,4.53,11.92,8.95Z"/><path class="cls-49" d="m313.71,904.56c12.35,15.57,4.87,36.64,2.77,41.22-.57,1.25-1.1,3.3-2.13,5.62-4.79,10.8-12.94,17.35-17.53,20.92-3.7,2.88-7.6,5.7-11.54,8.45-9.54,6.72-18.38,12.22-26.64,17.25-9.53,5.8-16.44,9.45-16.83,9.75-6.95,5.2-17.92,9.78-30.27,16.02-4.98-1.83-9.97-4.05-15.16-6.15-6.2-2.52-12.04-4.96-17.19-8,2.67-6.98,7.08-16.52,13.61-27.21,6.74-11.06,15.63-23.23,27.22-35.2,5.23-5.39,10.57-10.3,15.94-14.76,10.11-8.38,20.22-15.08,29.67-20.42,8.77-4.95,16.97-8.73,24.06-11.59,4.5-1.82,8.56-3.27,12.03-4.41,4.19,1.54,8.58,4.22,11.98,8.51Z"/><path class="cls-5" d="m313.32,904.23c11.93,15.05,4.27,35.47,1.72,40.56-.61,1.23-1.14,3.25-2.18,5.53-4.8,10.56-12.83,17.05-17.47,20.69-3.66,2.86-7.52,5.67-11.41,8.43-9.49,6.77-17.98,12.11-26.31,17.26-9.3,5.75-16.09,9.39-16.62,9.79-6.96,5.27-17.77,9.92-29.87,16.13-4.93-1.63-9.84-3.71-14.96-5.59-6.22-2.28-12.02-4.43-17.03-7.39,2.5-6.77,6.91-16.34,13.52-27.15,6.72-11.02,15.6-23.16,27.16-35.11,5.2-5.37,10.52-10.28,15.89-14.74,10.06-8.37,20.14-15.07,29.56-20.42,8.73-4.96,16.9-8.75,23.97-11.62,4.49-1.82,8.53-3.28,11.99-4.43,4.32,1.36,8.75,3.9,12.04,8.08Z"/><path class="cls-39" d="m312.93,903.9c11.5,14.53,3.68,34.3.68,39.9-.65,1.21-1.19,3.2-2.23,5.44-4.81,10.31-12.72,16.76-17.41,20.46-3.61,2.85-7.44,5.64-11.28,8.4-9.46,6.8-17.58,11.99-25.98,17.28-9.07,5.71-15.75,9.33-16.4,9.82-6.96,5.33-17.61,10.06-29.47,16.23-4.88-1.44-9.72-3.38-14.77-5.02-6.23-2.03-12-3.9-16.86-6.79,2.34-6.56,6.73-16.16,13.43-27.09,6.7-10.97,15.57-23.09,27.09-35.02,5.17-5.35,10.47-10.25,15.83-14.72,10.01-8.35,20.06-15.06,29.45-20.42,8.69-4.96,16.83-8.77,23.87-11.66,4.47-1.83,8.49-3.3,11.94-4.45,4.46,1.19,8.91,3.58,12.1,7.64Z"/><path class="cls-20" d="m312.53,903.57c11.08,14.01,3.11,33.13-.37,39.24-.68,1.19-1.24,3.16-2.28,5.35-4.81,10.07-12.61,16.46-17.36,20.24-3.57,2.84-7.35,5.62-11.16,8.38-9.42,6.84-17.18,11.88-25.65,17.29s-15.41,9.26-16.18,9.86c-6.97,5.4-17.46,10.19-29.07,16.34-4.84-1.24-9.6-3.04-14.58-4.45-6.26-1.78-11.98-3.37-16.69-6.18,2.18-6.35,6.56-15.99,13.34-27.03,6.68-10.92,15.54-23.02,27.03-34.93,5.14-5.33,10.43-10.23,15.78-14.7,9.97-8.33,19.97-15.05,29.34-20.43,8.66-4.97,16.76-8.79,23.78-11.69,4.45-1.84,8.46-3.31,11.9-4.47,4.59,1.01,9.07,3.27,12.16,7.2Z"/><path class="cls-19" d="m312.14,903.25c10.66,13.49,2.54,31.97-1.41,38.58-.7,1.18-1.29,3.11-2.34,5.26-4.82,9.82-12.5,16.16-17.3,20.01-3.53,2.83-7.27,5.59-11.03,8.36-9.37,6.89-16.78,11.76-25.31,17.31s-15.06,9.19-15.97,9.9c-6.98,5.46-17.31,10.33-28.67,16.44-4.79-1.04-9.49-2.69-14.39-3.89-6.29-1.54-11.95-2.84-16.52-5.58,2.02-6.15,6.38-15.81,13.25-26.98,6.66-10.87,15.51-22.95,26.96-34.85,5.11-5.31,10.38-10.2,15.72-14.68,9.92-8.32,19.89-15.04,29.23-20.43,8.62-4.97,16.69-8.81,23.69-11.73,4.43-1.85,8.43-3.33,11.86-4.5,4.73.84,9.23,2.95,12.23,6.77Z"/><path class="cls-11" d="m311.75,902.92c10.22,12.99,1.99,30.82-2.46,37.91-.73,1.16-1.33,3.07-2.39,5.17-4.82,9.57-12.39,15.86-17.24,19.78-3.48,2.82-7.19,5.57-10.9,8.33-9.33,6.94-16.38,11.64-24.98,17.33s-14.72,9.13-15.75,9.94c-6.98,5.53-17.16,10.47-28.27,16.55-4.75-.84-9.39-2.34-14.2-3.32-6.33-1.29-11.93-2.31-16.35-4.97,1.86-5.94,6.21-15.63,13.17-26.92,6.65-10.83,15.49-22.89,26.9-34.76,5.08-5.29,10.33-10.17,15.67-14.66,9.88-8.3,19.81-15.03,29.12-20.43,8.58-4.97,16.62-8.82,23.6-11.76,4.41-1.85,8.4-3.34,11.82-4.52,4.86.66,9.39,2.64,12.29,6.33Z"/><path class="cls-43" d="m311.35,902.59c9.79,12.47,1.46,29.68-3.5,37.25-.75,1.15-1.38,3.02-2.44,5.07-4.83,9.33-12.29,15.56-17.19,19.55-3.44,2.8-7.1,5.54-10.78,8.31-9.28,6.98-15.98,11.51-24.65,17.34-8.16,5.49-14.38,9.06-15.53,9.98-6.99,5.6-17.01,10.61-27.87,16.65-4.7-.64-9.28-1.99-14-2.75-6.37-1.03-11.91-1.78-16.18-4.36,1.7-5.73,6.04-15.45,13.08-26.86,6.63-10.78,15.46-22.82,26.83-34.67,5.06-5.26,10.29-10.15,15.61-14.64,9.83-8.29,19.73-15.02,29.01-20.43,8.54-4.98,16.55-8.84,23.5-11.79,4.39-1.86,8.36-3.36,11.77-4.54,5,.49,9.55,2.33,12.35,5.89Z"/><path class="cls-36" d="m310.96,902.27c9.37,11.95.93,28.54-4.54,36.59-.77,1.14-1.43,2.97-2.5,4.98-4.83,9.08-12.18,15.26-17.13,19.32-3.4,2.79-7.02,5.52-10.65,8.29-9.23,7.03-15.58,11.39-24.32,17.36-7.94,5.42-14.05,8.99-15.32,10.01-7,5.67-16.86,10.74-27.47,16.75-4.65-.45-9.19-1.63-13.81-2.19-6.42-.77-11.89-1.25-16.02-3.76,1.54-5.52,5.86-15.27,12.99-26.8,6.61-10.73,15.43-22.75,26.77-34.58,5.03-5.24,10.24-10.12,15.56-14.62,9.79-8.27,19.65-15.01,28.89-20.44,8.5-4.98,16.48-8.86,23.41-11.83,4.37-1.87,8.33-3.37,11.73-4.56,5.13.31,9.71,2.02,12.41,5.46Z"/><path class="cls-32" d="m310.57,901.94c8.94,11.44.42,27.41-5.59,35.93-.79,1.13-1.47,2.93-2.55,4.89-4.84,8.84-12.07,14.96-17.07,19.1-3.36,2.78-6.93,5.5-10.52,8.26-9.19,7.08-15.19,11.26-23.99,17.37-7.72,5.36-13.71,8.91-15.1,10.05-7.01,5.73-16.7,10.88-27.07,16.86-4.61-.25-9.09-1.26-13.62-1.62-6.48-.51-11.87-.72-15.85-3.15,1.38-5.31,5.69-15.09,12.9-26.74,6.59-10.69,15.4-22.68,26.7-34.5,5-5.22,10.19-10.09,15.5-14.6,9.74-8.25,19.56-14.99,28.78-20.44,8.46-4.99,16.41-8.88,23.32-11.86,4.36-1.88,8.3-3.39,11.69-4.58,5.27.13,9.87,1.7,12.47,5.02Z"/><path class="cls-3" d="m310.17,901.61c8.52,10.92-.09,26.3-6.63,35.27-.81,1.12-1.52,2.88-2.6,4.8-4.84,8.59-11.96,14.66-17.02,18.87-3.32,2.76-6.85,5.47-10.4,8.24-9.14,7.13-14.79,11.13-23.66,17.39-7.5,5.29-13.37,8.84-14.88,10.09-7.01,5.8-16.55,11.02-26.67,16.96-4.56-.05-9-.89-13.43-1.05-6.54-.24-11.85-.19-15.68-2.54,1.21-5.11,5.51-14.91,12.81-26.68,6.57-10.64,15.37-22.61,26.64-34.41,4.97-5.2,10.14-10.07,15.44-14.58,9.69-8.24,19.48-14.98,28.67-20.44,8.42-4.99,16.34-8.9,23.23-11.89,4.34-1.88,8.26-3.4,11.65-4.6,5.4-.04,10.03,1.39,12.53,4.59Z"/><path class="cls-40" d="m309.78,901.28c8.1,10.4-.58,25.19-7.68,34.6-.83,1.11-1.57,2.83-2.66,4.71-4.84,8.35-11.86,14.36-16.96,18.64-3.27,2.75-6.76,5.45-10.27,8.22-9.09,7.18-14.4,11-23.33,17.41-7.28,5.22-13.04,8.77-14.67,10.13-7.02,5.87-16.4,11.15-26.28,17.07-4.51.15-8.91-.51-13.23-.48-6.6.04-11.83.33-15.51-1.94,1.05-4.9,5.34-14.73,12.72-26.62,6.55-10.59,15.34-22.54,26.58-34.32,4.94-5.18,10.1-10.04,15.39-14.56,9.65-8.22,19.4-14.97,28.56-20.45,8.38-5,16.27-8.92,23.13-11.93,4.32-1.89,8.23-3.42,11.6-4.62,5.54-.22,10.19,1.07,12.59,4.15Z"/><path class="cls-47" d="m309.39,900.96c7.67,9.88-1.07,24.09-8.72,33.94-.85,1.1-1.61,2.79-2.71,4.62-4.84,8.1-11.75,14.06-16.9,18.41-3.23,2.73-6.68,5.43-10.14,8.2-9.05,7.22-14,10.87-23,17.42-7.06,5.15-12.7,8.69-14.45,10.17-7.03,5.94-16.25,11.29-25.88,17.17-4.47.35-8.82-.13-13.04.08-6.67.33-11.8.86-15.34-1.33.89-4.69,5.16-14.56,12.63-26.56,6.53-10.55,15.31-22.47,26.51-34.23,4.92-5.16,10.05-10.02,15.33-14.54,9.6-8.21,19.32-14.96,28.45-20.45,8.35-5,16.2-8.94,23.04-11.96,4.3-1.9,8.2-3.43,11.56-4.65,5.67-.39,10.35.76,12.65,3.71Z"/><path class="cls-35" d="m308.99,900.63c7.25,9.36-1.54,23-9.77,33.28-.87,1.09-1.66,2.74-2.76,4.53-4.84,7.86-11.64,13.75-16.84,18.18-3.19,2.72-6.59,5.4-10.02,8.17-9,7.27-13.61,10.74-22.67,17.44-6.85,5.07-12.37,8.61-14.23,10.21-7.04,6.01-16.1,11.43-25.48,17.27-4.42.55-8.73.27-12.85.65-6.73.63-11.78,1.39-15.18-.73.73-4.48,4.99-14.38,12.54-26.5,6.51-10.5,15.28-22.41,26.45-34.15,4.89-5.13,10-9.99,15.28-14.52,9.56-8.19,19.24-14.95,28.34-20.45,8.31-5.01,16.13-8.96,22.95-12,4.28-1.9,8.17-3.45,11.52-4.67,5.81-.57,10.51.44,12.71,3.28Z"/><path class="cls-35" d="m308.6,900.3c6.83,8.85-2.01,21.92-10.81,32.62-.89,1.08-1.71,2.7-2.81,4.44-4.84,7.62-11.54,13.45-16.79,17.96-3.15,2.7-6.51,5.38-9.89,8.15-8.95,7.32-13.22,10.6-22.33,17.45-6.64,4.99-12.04,8.54-14.02,10.24-7.06,6.08-15.95,11.56-25.08,17.38-4.37.74-8.64.66-12.66,1.22-6.8.94-11.76,1.92-15.01-.12.57-4.27,4.81-14.2,12.45-26.44,6.49-10.45,15.25-22.34,26.38-34.06,4.86-5.11,9.95-9.96,15.22-14.5,9.51-8.18,19.15-14.94,28.23-20.45,8.27-5.01,16.06-8.98,22.86-12.03,4.26-1.91,8.13-3.46,11.48-4.69,5.94-.74,10.68.13,12.77,2.84Z"/><path class="cls-28" d="m308.21,899.97c6.41,8.33-2.47,20.85-11.85,31.96-.91,1.07-1.75,2.65-2.87,4.35-4.84,7.37-11.43,13.15-16.73,17.73-3.11,2.69-6.42,5.36-9.76,8.13-8.9,7.37-12.83,10.46-22,17.47-6.42,4.91-11.7,8.46-13.8,10.28-7.07,6.15-15.79,11.7-24.68,17.48-4.33.94-8.55,1.07-12.47,1.78-6.86,1.25-11.74,2.45-14.84.49.41-4.07,4.64-14.02,12.36-26.38,6.47-10.41,15.22-22.27,26.32-33.97,4.83-5.09,9.91-9.94,15.17-14.48,9.47-8.16,19.07-14.93,28.12-20.46,8.23-5.01,15.99-9,22.76-12.06,4.24-1.92,8.1-3.48,11.44-4.71,6.08-.92,10.84-.19,12.83,2.41Z"/><path class="cls-10" d="m307.81,899.65c5.98,7.81-2.92,19.78-12.9,31.29-.93,1.07-1.8,2.6-2.92,4.26-4.84,7.13-11.33,12.85-16.67,17.5-3.07,2.67-6.34,5.34-9.64,8.1-8.85,7.42-12.45,10.31-21.67,17.49-6.21,4.83-11.37,8.38-13.58,10.32-7.08,6.22-15.64,11.84-24.28,17.59-4.28,1.14-8.46,1.48-12.27,2.35-6.92,1.58-11.72,2.98-14.67,1.09.25-3.86,4.46-13.84,12.27-26.32,6.46-10.36,15.19-22.2,26.25-33.88,4.8-5.07,9.86-9.91,15.11-14.46,9.42-8.14,18.99-14.92,28.01-20.46,8.19-5.02,15.92-9.02,22.67-12.1,4.23-1.93,8.07-3.49,11.39-4.73,6.21-1.09,11-.5,12.89,1.97Z"/><path class="cls-8" d="m307.42,899.32c5.56,7.29-3.36,18.73-13.94,30.63-.94,1.06-1.84,2.56-2.97,4.17-4.84,6.89-11.22,12.54-16.62,17.27-3.03,2.66-6.25,5.31-9.51,8.08-8.8,7.47-12.07,10.17-21.34,17.5-6.01,4.75-11.04,8.3-13.37,10.36-7.09,6.29-15.49,11.97-23.88,17.69-4.24,1.34-8.37,1.89-12.08,2.92-6.98,1.92-11.7,3.51-14.5,1.7.08-3.65,4.29-13.66,12.18-26.26,6.44-10.31,15.16-22.13,26.19-33.8,4.78-5.05,9.81-9.88,15.06-14.44,9.37-8.13,18.91-14.91,27.9-20.46,8.15-5.02,15.85-9.03,22.58-12.13,4.21-1.93,8.03-3.51,11.35-4.75,6.35-1.27,11.16-.82,12.96,1.53Z"/><path class="cls-37" d="m307.03,898.99c5.14,6.77-3.79,17.69-14.99,29.97-.96,1.05-1.89,2.51-3.03,4.07-4.84,6.64-11.12,12.24-16.56,17.04-2.99,2.64-6.17,5.29-9.38,8.06-8.76,7.52-11.69,10.02-21.01,17.52-5.8,4.66-10.72,8.21-13.15,10.4-7.11,6.37-15.34,12.11-23.48,17.79-4.19,1.54-8.27,2.31-11.89,3.49-7.02,2.27-11.68,4.04-14.33,2.31-.08-3.44,4.11-13.48,12.09-26.2,6.42-10.27,15.13-22.06,26.12-33.71,4.75-5.03,9.77-9.86,15-14.42,9.33-8.11,18.83-14.9,27.79-20.47,8.11-5.03,15.78-9.05,22.49-12.16,4.19-1.94,8-3.52,11.31-4.77,6.48-1.44,11.32-1.13,13.02,1.1Z"/><path class="cls-38" d="m306.63,898.66c4.72,6.25-4.22,16.66-16.03,29.31-.98,1.05-1.93,2.47-3.08,3.98-4.83,6.4-11.01,11.93-16.5,16.81-2.95,2.62-6.08,5.27-9.26,8.03-8.71,7.58-11.31,9.86-20.68,17.53-5.59,4.58-10.39,8.13-12.93,10.43-7.12,6.44-15.19,12.25-23.08,17.9-4.14,1.73-8.17,2.74-11.7,4.05-7.07,2.63-11.65,4.57-14.17,2.91-.24-3.23,3.94-13.31,12-26.14,6.4-10.22,15.1-21.99,26.06-33.62,4.72-5,9.72-9.83,14.95-14.4,9.28-8.1,18.75-14.89,27.68-20.47,8.07-5.03,15.71-9.07,22.39-12.2,4.17-1.95,7.97-3.54,11.27-4.79,6.62-1.62,11.48-1.45,13.08.66Z"/><path class="cls-44" d="m306.24,898.34c4.3,5.73-4.64,15.63-17.08,28.65-1,1.04-1.98,2.42-3.13,3.89-4.83,6.16-10.91,11.63-16.45,16.59-2.91,2.61-6,5.25-9.13,8.01-8.66,7.63-10.93,9.71-20.35,17.55-5.39,4.49-10.06,8.05-12.72,10.47-7.13,6.51-15.03,12.39-22.68,18-4.1,1.93-8.07,3.16-11.51,4.62-7.1,3-11.63,5.1-14,3.52-.4-3.03,3.76-13.13,11.92-26.08,6.38-10.17,15.07-21.92,25.99-33.53,4.69-4.98,9.67-9.81,14.89-14.38,9.24-8.08,18.66-14.88,27.57-20.47,8.03-5.04,15.64-9.09,22.3-12.23,4.15-1.95,7.94-3.55,11.22-4.82,6.75-1.79,11.65-1.76,13.14.23Z"/><path class="cls-23" d="m305.85,898.01c3.88,5.21-5.05,14.62-18.12,27.98-1.02,1.04-2.03,2.38-3.19,3.8-4.83,5.92-10.81,11.32-16.39,16.36-2.87,2.59-5.91,5.23-9,7.99-8.61,7.68-10.56,9.55-20.02,17.57-5.19,4.4-9.74,7.96-12.5,10.51-7.15,6.59-14.88,12.52-22.28,18.11-4.05,2.13-7.96,3.59-11.31,5.19-7.12,3.38-11.61,5.63-13.83,4.13-.56-2.82,3.59-12.95,11.83-26.03,6.36-10.13,15.04-21.86,25.93-33.45,4.66-4.96,9.62-9.78,14.84-14.36,9.19-8.07,18.58-14.87,27.46-20.47,8-5.04,15.57-9.11,22.21-12.27,4.13-1.96,7.9-3.57,11.18-4.84,6.89-1.97,11.81-2.08,13.2-.21Z"/><path class="cls-18" d="m305.45,897.68c3.46,4.69-5.46,13.61-19.17,27.32-1.03,1.03-2.07,2.33-3.24,3.71-4.82,5.68-10.71,11.02-16.33,16.13-2.83,2.57-5.82,5.2-8.88,7.96-8.56,7.73-10.2,9.38-19.69,17.58-4.98,4.31-9.41,7.88-12.28,10.55-7.16,6.66-14.73,12.66-21.88,18.21-4,2.33-7.84,4.02-11.12,5.75-7.14,3.77-11.59,6.15-13.66,4.73-.72-2.61,3.41-12.77,11.74-25.97,6.34-10.08,15.01-21.79,25.86-33.36,4.64-4.94,9.58-9.75,14.78-14.34,9.14-8.05,18.5-14.86,27.35-20.48,7.96-5.05,15.5-9.13,22.12-12.3,4.12-1.97,7.87-3.58,11.14-4.86,7.02-2.14,11.97-2.39,13.26-.65Z"/><path class="cls-12" d="m305.06,897.35c3.04,4.16-5.86,12.61-20.21,26.66-1.05,1.03-2.11,2.29-3.29,3.62-4.81,5.44-10.6,10.71-16.27,15.9-2.79,2.56-5.74,5.18-8.75,7.94-8.5,7.78-9.84,9.21-19.35,17.6-4.79,4.22-9.09,7.79-12.07,10.59-7.18,6.73-14.58,12.8-21.49,18.31-3.96,2.53-7.73,4.45-10.93,6.32-7.14,4.16-11.57,6.68-13.49,5.34-.88-2.4,3.24-12.59,11.65-25.91,6.32-10.03,14.98-21.72,25.8-33.27,4.61-4.92,9.53-9.73,14.73-14.32,9.1-8.03,18.42-14.85,27.24-20.48,7.92-5.05,15.43-9.15,22.03-12.33,4.1-1.98,7.84-3.6,11.1-4.88,7.16-2.32,12.13-2.71,13.32-1.08Z"/><path class="cls-33" d="m304.67,897.03c2.63,3.64-6.26,11.63-21.25,26-1.07,1.03-2.16,2.24-3.34,3.53-4.8,5.21-10.5,10.4-16.22,15.67-2.75,2.54-5.65,5.16-8.62,7.92-8.45,7.84-9.48,9.04-19.02,17.61-4.59,4.12-8.76,7.7-11.85,10.62-7.2,6.81-14.43,12.93-21.09,18.42-3.91,2.73-7.6,4.88-10.74,6.89-7.13,4.56-11.55,7.21-13.33,5.94-1.04-2.19,3.06-12.41,11.56-25.85,6.3-9.99,14.95-21.65,25.73-33.18,4.58-4.9,9.48-9.7,14.67-14.3,9.05-8.02,18.34-14.84,27.13-20.48,7.88-5.05,15.36-9.17,21.93-12.37,4.08-1.98,7.8-3.61,11.06-4.9,7.29-2.5,12.29-3.03,13.38-1.52Z"/><path class="cls-4" d="m304.27,896.7c2.21,3.12-6.65,10.65-22.3,25.34-1.09,1.02-2.2,2.2-3.4,3.44-4.8,4.97-10.4,10.09-16.16,15.45-2.71,2.52-5.56,5.14-8.5,7.89-8.39,7.91-9.13,8.86-18.69,17.63-4.39,4.03-8.44,7.61-11.63,10.66-7.21,6.88-14.28,13.07-20.69,18.52-3.86,2.92-7.47,5.31-10.55,7.46-7.11,4.96-11.53,7.74-13.16,6.55-1.21-1.99,2.89-12.23,11.47-25.79,6.28-9.94,14.92-21.58,25.67-33.1,4.55-4.87,9.43-9.68,14.62-14.29,9.01-8,18.25-14.83,27.02-20.48,7.84-5.06,15.29-9.19,21.84-12.4,4.06-1.99,7.77-3.63,11.01-4.92,7.43-2.67,12.46-3.34,13.44-1.96Z"/><path class="cls-42" d="m303.88,896.37c1.8,2.59-7.03,9.67-23.34,24.67-1.11,1.02-2.25,2.16-3.45,3.35-4.79,4.74-10.3,9.79-16.1,15.22-2.68,2.5-5.48,5.12-8.37,7.87-8.34,7.96-8.79,8.67-18.36,17.64-4.2,3.93-8.12,7.53-11.42,10.7-7.23,6.96-14.12,13.21-20.29,18.63-3.82,3.12-7.34,5.74-10.35,8.02-7.08,5.36-11.5,8.27-12.99,7.16-1.37-1.78,2.71-12.06,11.38-25.73,6.26-9.89,14.89-21.51,25.6-33.01,4.52-4.85,9.39-9.65,14.56-14.27,8.96-7.99,18.17-14.81,26.91-20.49,7.8-5.06,15.22-9.21,21.75-12.43,4.04-2,7.74-3.64,10.97-4.94,7.56-2.85,12.62-3.66,13.5-2.39Z"/><path class="cls-7" d="m303.49,896.05c1.39,2.06-7.41,8.71-24.39,24.01-1.13,1.02-2.29,2.11-3.5,3.26-4.78,4.5-10.21,9.47-16.05,14.99-2.64,2.48-5.39,5.1-8.24,7.85-8.29,8.01-8.45,8.48-18.03,17.66-4,3.84-7.8,7.44-11.2,10.74-7.25,7.03-13.97,13.34-19.89,18.73-3.77,3.32-7.21,6.17-10.16,8.59-7.05,5.77-11.48,8.8-12.82,7.76-1.53-1.57,2.54-11.88,11.29-25.67,6.25-9.85,14.86-21.44,25.54-32.92,4.49-4.83,9.34-9.62,14.51-14.25,8.92-7.97,18.09-14.8,26.8-20.49,7.76-5.07,15.15-9.23,21.66-12.47,4.02-2,7.71-3.66,10.93-4.97,7.7-3.02,12.79-3.98,13.56-2.83Z"/><path class="cls-9" d="m250,944.82c-8.24,8.05-8.13,8.28-17.7,17.68-29.41,28.88-50.3,49.39-53.1,47.14-1.69-1.36,2.36-11.7,11.2-25.61,8.84-13.91,22.47-31.4,39.93-47.06,16.76-15.04,34.49-26.08,48.25-32.99s23.57-9.71,24.51-8.25c1.41,2.19-17.16,13.99-53.1,49.1Z"/><ellipse class="cls-50" cx="212.39" cy="966.77" rx="32.36" ry="32.78"/></g><g id="game_over_sign"><g id="ramme"><path class="cls-21" d="m1798.39,612.21c0,71.62-188.94,181.55-422.01,181.55s-406.38-120.3-406.38-191.92,162.89-269.73,395.96-269.73,432.43,208.48,432.43,280.1Z"/><path class="cls-21" d="m1511.83,358.05c-2.04-22.65,50.44-43.68,93.78-62.24,65.02-27.86,113.42-48.59,145.88-25.94,38.27,26.71,29.97,96.7,26.05,129.68-2.82,23.75-9.92,96.39-41.68,103.74-27.63,6.39-40.3-44.32-109.41-88.18-63.57-40.35-112.67-35.4-114.62-57.06Z"/><path class="cls-21" d="m1235.44,350.02c1.08-22.72-52.26-41.51-96.34-58.23-66.15-25.09-115.39-43.76-146.85-19.76-37.1,28.3-25.82,97.88-20.51,130.66,3.83,23.61,14.01,95.89,46.06,101.89,27.88,5.22,38.38-45.98,105.56-92.71,61.8-42.99,111.06-40.12,112.09-61.84Z"/><g class="cls-53"><path class="cls-50" d="m1777.54,607.63c0,65.24-178.42,165.38-398.51,165.38s-383.75-109.59-383.75-174.83,153.82-245.71,373.91-245.71,408.35,189.92,408.35,255.16Z"/><path class="cls-50" d="m1527.46,373.61c-1.93-20.63,27.12-37.31,68.04-54.22,61.4-25.38,109.7-49.41,140.36-28.77,36.14,24.33,25.7,93.24,22,123.28-2.66,21.64-18.06,72.32-48.05,79.02-26.1,5.82-28.52-22.29-93.78-62.25-60.03-36.75-86.73-37.33-88.57-57.05Z"/><path class="cls-50" d="m1225.28,373.61c1.02-20.69-31.31-36.64-72.94-51.87-62.47-22.85-116.17-52.99-145.88-31.12-35.04,25.78-14.57,96.27-9.55,126.14,3.61,21.51,20.96,70.69,51.23,76.16,26.33,4.76,25.13-24.86,88.57-67.43,58.36-39.16,87.6-32.08,88.57-51.87Z"/></g></g></g></svg>