<?xml version="1.0" encoding="UTF-8"?><svg id="play_button" xmlns="http://www.w3.org/2000/svg" width="385" height="116" viewBox="0 0 385 116"><defs><style>.cls-1{fill:#bfbfbf;}.cls-1,.cls-2,.cls-3{stroke-width:0px;}.cls-2{fill:#0d0d0d;}.cls-3{fill:#fff;}</style></defs><path class="cls-3" d="m360.08,57.46c-.44,5.8,8.33,7.45,17.02,20.1,3.63,5.27,8.97,13.54,7.01,21.1-2.84,10.95-20.27,16.98-34.05,17.08-18.38.14-22.83-10.32-46.07-18.09-10.86-3.63-25.08-4.14-53.08-5.02-32.76-1.03-57.71-.19-63.09,0-53.98,1.91-80.97,2.87-100.14,10.05-5.98,2.24-14.97,6.03-28.04,7.03-7.53.58-35.76,2.78-46.07-14.07-.33-.54-6.38-10.75-3-21.1,3.39-10.42,13.37-11.92,13.02-18.09-.45-7.92-17.03-8.27-22.03-19.09C-2.54,28.47,1.89,14.51,9.58,7.21c18.7-17.75,53.36,7.08,121.18,12.06,14.59,1.07,28.76.38,57.08-1,24.21-1.18,38.37-2.98,95.69-9.18C349.65,1.94,370.01.01,378.11,12.24c4.64,7,5.93,19.63,1,28.14-5.87,10.13-18.5,10.18-19.03,17.08Z"/><path class="cls-1" d="m76.67,11.23c-.02.12-.47-1.27-10.01-2.01-28.45-2.19-42.68-3.29-52.08,3.01C3.89,19.41.56,31.33.56,31.33c-1.36-.6-.21-15.72,9.01-24.12,19.54-17.81,67.33,2.82,67.1,4.02Z"/><path class="cls-1" d="m381.12,37.36c-4.04,12.47-18.29,20.43-21.03,18.09-3.6-3.09,14.91-22.17,8.01-34.17-2.83-4.93-9.63-8.06-16.02-11.05-13.26-6.21-23.06-5.14-23.03-6.03.06-1.76,38.67-7.98,49.07,8.04,1.18,1.81,3.28,6.29,4.01,12.06.2,1.61.87,7.29-1,13.06Z"/><path class="cls-1" d="m16.59,85.6c.58,10.64,5.15,16.34,4.01,17.08-1.4.9-10.59-6.07-12.02-16.08-.82-5.74.84-13.01,5.01-18.09,2.25-2.74,3.83-3.14,5.01-6.03,2.4-5.91-1.35-11.29,0-12.06,1.5-.86,8.43,4.49,8.01,10.05-.32,4.35-4.85,4.75-8.01,11.05-2.5,4.97-2.23,9.8-2,14.07Z"/><path class="cls-1" d="m384.12,98.66c-4.76,14.47-26.41,17.28-27.04,16.08-.5-.95,11.37-5.27,15.02-17.08.62-2,1.29-4.18,1-7.03-1.09-10.76-13.97-12.24-16.02-23.11-1.19-6.32,1.96-12.12,3-12.06.89.05.1,6.17,4.01,9.04.9.66,1.72.91,2,1,4.81,1.64,23.1,17.73,18.03,33.16Z"/><path class="cls-1" d="m329.04,4.2c.25,1.36-50.6,14.28-114.17,20.1-49.02,4.49-76.17,2.07-98.14-2.01-26.28-4.88-46.25-12.33-46.07-13.06.22-.87,28.67,8.06,69.1,10.05,13.41.66,23.88.35,32.05,0,71.47-3.04,156.91-16.82,157.23-15.07Z"/><path class="cls-1" d="m357.08,114.74c.06-.85-8.27-.79-19.03-5.02-8.88-3.49-14.6-8.01-16.02-9.04-18.6-13.55-84.62-13.35-126.18-13.06-32.04.22-67.27.64-88.13,7.03-3.9,1.19-13.13,4.39-29.04,9.04-11.08,3.25-19.17,5.38-19.03,6.03.12.58,6.62-.36,11.02-1,16.26-2.4,23.95-6.8,35.05-10.05,6.47-1.89,16.33-2.6,36.05-4.02,13.04-.94,25.57-1.28,38.49-1.68,4.32-.13,8.72-.24,13.59-.33,20.6-.39,30.9-.58,45.07,0,39.84,1.63,59.77,2.44,73.11,11.05,4.32,2.79,11.99,8.53,24.03,11.05,10.99,2.3,20.97.92,21.03,0Z"/><path class="cls-2" d="m156.66,57.71c-.33.15-.81.37-1.44.68-.64.31-1.37.66-2.2,1.04-.83.38-1.71.78-2.61,1.2-.91.42-1.77.83-2.58,1.23-.82.4-1.56.75-2.23,1.04-.67.29-1.15.51-1.44.66l.11,10.92c0,.11-.13.3-.38.57-.25.27-.45.45-.6.52-.58.15-.99-.08-1.22-.68-.24-.6-.4-1.38-.49-2.35-.09-.96-.16-1.99-.22-3.08-.05-1.09-.18-2.09-.38-3-.2-.91-.54-1.61-1.01-2.1-.47-.49-1.14-.59-2.01-.3-.04-.07-.08-.2-.14-.38-.05-.18-.08-.31-.08-.38,0-.47.12-.78.35-.93.24-.15.5-.28.79-.41.29-.13.55-.29.79-.49.24-.2.35-.57.35-1.12,0-1.46-.05-2.89-.16-4.31-.11-1.42-.24-2.86-.38-4.31-.15-1.46-.27-2.9-.38-4.34-.11-1.44-.16-2.87-.16-4.29v-2.57c.11-.29.26-.47.46-.55.2-.07.41-.11.63-.11.18,0,.4.04.65.11.22.07.33.25.33.55l2.18,18.29c0,.07.06.26.19.55.13.29.23.46.3.49h.49c.14-.04.44-.11.87-.22.44-.11,1.2-.39,2.29-.85,1.09-.45,2.59-1.15,4.52-2.07,1.92-.93,4.52-2.19,7.78-3.79l.22-12.4c0-.22.07-.46.22-.74.14-.27.33-.52.54-.74.22-.22.44-.39.65-.52.22-.13.44-.19.65-.19.33,0,.59.05.79.16.2.11.3.42.3.93,0,.11-.07.3-.22.57-.15.27-.24.45-.27.52,0,.15,0,.4-.03.76-.02.36-.03.76-.03,1.17v1.99c0,3.09.04,6.19.11,9.28.07,3.09.22,6.17.44,9.23.04.36.1,1.01.19,1.94.09.93.19,1.92.3,2.98.11,1.06.22,2.07.33,3.03.11.96.2,1.65.27,2.05,0,.07.02.18.05.33.04.15.09.31.16.49.07.18.13.35.16.49.04.15.07.24.11.27v.49c-.07.07-.18.17-.33.3-.15.13-.3.25-.46.36-.16.11-.32.21-.46.3-.15.09-.25.14-.33.14-.51.11-.93-.11-1.25-.66-.33-.55-.58-1.19-.76-1.94-.18-.75-.31-1.48-.38-2.21-.07-.73-.13-1.24-.16-1.53,0-.04,0-.31-.03-.82-.02-.51-.05-1.16-.08-1.94-.04-.78-.08-1.67-.14-2.65-.05-.98-.12-1.97-.19-2.95-.07-.98-.15-1.91-.25-2.78-.09-.87-.17-1.6-.24-2.18l-2.83,1.26Z"/><path class="cls-2" d="m167.11,64.97c0-2,.44-3.75,1.31-5.24.87-1.49,2.01-2.75,3.43-3.77,1.42-1.02,3-1.77,4.76-2.27,1.76-.49,3.53-.74,5.31-.74.94,0,1.82.17,2.64.52.82.35,1.6.82,2.34,1.42.74.6,1.41,1.29,1.99,2.07.58.78,1.08,1.59,1.5,2.43.42.84.73,1.68.95,2.54.22.86.33,1.68.33,2.48,0,1.86-.36,3.51-1.09,4.97-.73,1.46-1.71,2.68-2.94,3.69-1.23,1-2.63,1.77-4.19,2.29-1.56.53-3.16.79-4.79.79s-3.2-.26-4.6-.79c-1.4-.53-2.61-1.26-3.65-2.21-1.03-.95-1.84-2.12-2.42-3.52-.58-1.4-.87-2.96-.87-4.67Zm2.67-.44c0,1.13.21,2.21.63,3.25.42,1.04,1,1.94,1.74,2.7.74.76,1.62,1.37,2.64,1.83,1.02.46,2.1.68,3.26.68.62.07,1.37-.03,2.26-.3.89-.27,1.78-.67,2.67-1.2.89-.53,1.74-1.16,2.56-1.91.82-.75,1.5-1.56,2.04-2.46.54-.89.88-1.82,1.01-2.78.13-.96-.04-1.93-.49-2.89-.45-.96-1.28-1.89-2.48-2.78s-2.85-1.72-4.95-2.49c-1.2,0-2.44.17-3.73.52-1.29.35-2.46.87-3.51,1.56-1.05.69-1.92,1.57-2.61,2.62-.69,1.06-1.03,2.28-1.03,3.66Z"/><path class="cls-2" d="m229.74,74.2c0-.11,0-.25.03-.44.02-.18.03-.36.03-.55v-.49l.05-.33c0-.11.03-.42.08-.93.05-.51.12-1.05.19-1.64.07-.58.13-1.14.16-1.67.04-.53.05-.86.05-1.01-.07-.76-.24-1.76-.49-3-.25-1.24-.64-2.46-1.17-3.66-.53-1.2-1.19-2.24-1.99-3.11-.8-.87-1.74-1.31-2.83-1.31-.98,0-2,.25-3.07.74-1.07.49-2.07,1.13-2.99,1.91-.93.78-1.68,1.68-2.26,2.7-.62.98-.92,2.02-.92,3.11,0,.55.09,1.08.27,1.61.18.53.37,1.05.57,1.56.2.51.39,1.04.57,1.58.18.55.27,1.11.27,1.69,0,.44-.08.87-.24,1.31s-.55.66-1.17.66c-.65,0-1.19-.38-1.6-1.15-.42-.76-.8-1.74-1.14-2.92-.34-1.18-.71-2.45-1.09-3.79-.38-1.35-.85-2.61-1.42-3.79-.56-1.18-1.25-2.16-2.07-2.92-.82-.76-1.86-1.15-3.13-1.15-.98,0-1.85.21-2.61.63-.76.42-1.39.97-1.88,1.67-.49.69-.87,1.47-1.14,2.35-.27.87-.41,1.77-.41,2.67,0,1.46.1,2.89.3,4.29.2,1.4.3,2.81.3,4.23,0,.51-.05.97-.16,1.39-.11.42-.47.63-1.09.63-.4,0-.73-.1-1.01-.3-.27-.2-.5-.46-.68-.76-.18-.31-.33-.66-.44-1.04s-.2-.72-.27-1.01c.07-1.49.08-2.88.03-4.15-.05-1.27-.13-2.48-.22-3.63-.09-1.15-.18-2.3-.27-3.47-.09-1.16-.14-2.4-.14-3.71v-.38c0-.18,0-.37.03-.57.02-.2.03-.38.03-.55v-.36c.04-.07.13-.16.27-.27.14-.11.24-.2.27-.27h.27c.62,0,1.07.22,1.36.66.29.36.44.84.44,1.42.58-.62,1.1-1.1,1.55-1.45.45-.35.89-.61,1.31-.79.42-.18.85-.29,1.31-.33.45-.04,1.01-.05,1.66-.05,1.05,0,2,.11,2.86.33.85.22,1.62.54,2.31.96.69.42,1.32.97,1.9,1.67.58.66,1.16,1.42,1.74,2.29.04,0,.08,0,.14.03.05.02.1.03.14.03s.22-.17.54-.52c.33-.35.76-.76,1.31-1.26.54-.49,1.18-1.04,1.9-1.64.73-.6,1.49-1.16,2.29-1.67.8-.51,1.61-.94,2.45-1.28.83-.35,1.65-.52,2.45-.52,1.23,0,2.33.26,3.29.76.96.51,1.82,1.19,2.58,2.05.76.86,1.41,1.82,1.96,2.89.54,1.07,1,2.18,1.36,3.33.36,1.15.63,2.29.79,3.41.16,1.13.25,2.17.25,3.11,0,.36,0,.99-.03,1.88-.02.89-.11,1.8-.27,2.73-.16.93-.43,1.75-.79,2.46-.36.71-.87,1.06-1.52,1.06-.33,0-.56-.06-.71-.19-.15-.13-.25-.28-.33-.46-.07-.18-.11-.38-.11-.6v-.71Z"/><path class="cls-2" d="m236.05,61.48c0-1.89.28-3.7.84-5.43.56-1.73,1.38-3.25,2.45-4.56,1.07-1.31,2.38-2.36,3.92-3.14,1.54-.78,3.33-1.17,5.36-1.17,1.2.15,2.24.47,3.13.98.89.51,1.61,1.14,2.18,1.88.56.75.97,1.61,1.22,2.59.22.95.33,1.97.33,3.06,0,1.31-.38,2.49-1.14,3.55s-1.72,1.94-2.88,2.65c-1.16.71-2.41,1.26-3.75,1.64-1.34.38-2.59.57-3.75.57h-1.33c-.45,0-.86-.07-1.22-.22-.36-.14-.65-.36-.87-.66-.22-.29-.33-.73-.33-1.31,0-.18.03-.34.08-.46.05-.13.21-.22.46-.27.25-.05.63-.06,1.14-.03.51.07,1.2.18,2.07.33.51,0,1.24-.17,2.2-.52.96-.35,1.94-.79,2.94-1.34,1-.55,1.86-1.17,2.58-1.88.73-.71,1.09-1.41,1.09-2.1,0-.73-.12-1.45-.35-2.16-.24-.71-.59-1.34-1.06-1.88-.47-.55-1.03-.98-1.66-1.31-.63-.33-1.35-.46-2.15-.38-1.27.11-2.42.46-3.46,1.04-1.03.58-1.91,1.34-2.64,2.27-.73.93-1.29,1.96-1.69,3.08-.4,1.13-.6,2.31-.6,3.55,0,.95.02,1.89.05,2.84.04.95.17,1.88.41,2.79.24.91.62,1.78,1.14,2.62.53.84,1.29,1.57,2.29,2.21,1,.64,2.26,1.17,3.78,1.58,1.52.42,3.41.68,5.66.79l9.74-.66c-.58.8-1.32,1.46-2.2,1.97-.89.51-1.83.92-2.83,1.23-1,.31-1.99.54-2.97.68-.98.15-1.9.22-2.77.22-2.1,0-4.08-.35-5.93-1.04-1.85-.69-3.48-1.67-4.9-2.92s-2.53-2.78-3.35-4.59c-.82-1.8-1.22-3.83-1.22-6.09Z"/></svg>