<?xml version="1.0" encoding="UTF-8"?><svg id="Info" xmlns="http://www.w3.org/2000/svg" width="87" height="98" viewBox="0 0 87 98"><defs><style>.cls-1,.cls-2,.cls-3{stroke-width:0px;}.cls-2{fill:#f28f6b;}.cls-3{fill:#f2f2f2;opacity:.5;}</style></defs><ellipse class="cls-2" cx="43.5" cy="43.53" rx="43.5" ry="43.53"/><ellipse class="cls-3" cx="44" cy="43.03" rx="38" ry="38.03"/><path class="cls-1" d="m38.87,20.12c.04-.56.24-.91.58-1.05.34-.14.76-.19,1.28-.15.33-.02.75.21,1.25.7.5.49.91,1.02,1.21,1.61.31.59.46,1.12.48,1.59,0,.56-.37.87-1.13.9l-.35-.03c-.7-.06-1.28-.15-1.74-.28-.46-.13-.81-.31-1.05-.54-.24-.23-.4-.56-.49-.99-.08-.43-.1-1.02-.04-1.77Zm2.2,17.89c.01-.19.04-.54.08-1.05s.09-1.05.16-1.61c.07-.56.12-1.1.16-1.61s.07-.87.08-1.05c-.07-1.46.4-2.16,1.43-2.08.47.04.85.19,1.16.44.31.26.58.63.83,1.12-.33,2.42-.41,4.78-.24,7.08.17,2.3.39,4.57.67,6.83.27,2.26.52,4.52.74,6.8.22,2.28.24,4.63.05,7.06-.05.66-.3,1.29-.75,1.92-.45.62-1.07.9-1.86.84-.61-.05-1.09-.61-1.45-1.7-.36-1.09-.64-2.45-.84-4.09-.2-1.64-.34-3.45-.42-5.43-.08-1.98-.11-3.88-.08-5.69.02-1.81.07-3.43.13-4.86.06-1.43.12-2.4.16-2.92Z"/></svg>