<?xml version="1.0" encoding="UTF-8"?><svg id="Heart" xmlns="http://www.w3.org/2000/svg" width="112" height="70" viewBox="0 0 112 70"><defs><style>.cls-1{fill:#d9b7fa;}.cls-1,.cls-2,.cls-3,.cls-4,.cls-5,.cls-6,.cls-7,.cls-8,.cls-9,.cls-10,.cls-11,.cls-12,.cls-13,.cls-14,.cls-15,.cls-16,.cls-17,.cls-18,.cls-19,.cls-20,.cls-21,.cls-22,.cls-23,.cls-24,.cls-25,.cls-26,.cls-27,.cls-28,.cls-29,.cls-30,.cls-31,.cls-32{stroke-width:0px;}.cls-2{fill:#e5bbf5;}.cls-3{fill:#f3bfee;}.cls-4{fill:#ddb8f8;}.cls-5{fill:#f5c0ed;}.cls-6{fill:#ebbdf2;}.cls-7{fill:#f6c0ed;}.cls-8{fill:#eabcf2;}.cls-9{fill:#e1b9f7;}.cls-10{fill:#f1beef;}.cls-11{fill:#f3cfed;}.cls-12{fill:#f0bef0;}.cls-13{fill:#e0b9f7;}.cls-14{fill:#dfb9f7;}.cls-15{fill:#dab7fa;}.cls-16{fill:#efbef0;}.cls-17{fill:#e9bcf3;}.cls-18{fill:#dbb8f9;}.cls-19{fill:#e4baf5;}.cls-20{fill:#f2bfef;}.cls-21{fill:#e8bcf3;}.cls-22{fill:#e3baf6;}.cls-23{fill:#ecbdf1;}.cls-24{fill:#edbdf1;}.cls-25{fill:#deb9f8;}.cls-26{fill:#e6bbf4;}.cls-27{fill:#f4bfee;}.cls-28{fill:#e2baf6;}.cls-29{fill:#eebef0;}.cls-30{fill:#e7bbf4;}.cls-31{fill:#dcb8f9;}.cls-32{fill:#f2f2f2;}</style></defs><path class="cls-11" d="m55.9,16.8C38.57-1.71,16.05-3.65,6.49,5.45.66,10.99-1.16,21.4,1.3,29.64c1.73,5.8,5.49,10.24,18.66,19.39,8.49,5.9,20.42,13.42,35.72,20.82"/><path class="cls-11" d="m55.64,16.7C73.06-1.72,95.59-3.54,105.11,5.6c5.8,5.57,7.56,15.99,5.07,24.21-1.76,5.79-5.54,10.21-18.76,19.29-8.52,5.85-20.49,13.31-35.82,20.63"/><path class="cls-32" d="m11.49,16.8c.48,2.2-1.03,4.87-3,5-1.28.09-2.5-.91-3-2-1.1-2.39.94-5.96,3-6,1.36-.02,2.67,1.51,3,3Z"/><path class="cls-32" d="m32.57,9.1c.23,1.3-.26,3.09-1.49,3.85-2.92,1.8-7.14-4-11.79-2.47-2.79.92-3.46,3.72-5.46,3.35-1.39-.26-2.51-1.89-2.61-3.35-.18-2.89,3.68-5.34,6.32-6.27,6.09-2.13,14.3.86,15.01,4.89Z"/><path class="cls-1" d="m38.49,60.8c2.84,1.67,5.84,3.34,9,5,2.73,1.43,5.4,2.76,8,4,6.66-3.23,12.13-6,16-8,0,0,16.48-8.5,29-18,2.25-1.71,6.58-5.12,9-11,.52-1.25.82-2.32,1-3,.48-1.55,3.92-13.28-3-22-1.88-2.37-4.08-3.95-6-5-4.57,1.47-11.15,3.95-18.56,8.06s-15.62,9.88-23.44,17.94c-11.43,11.77-17.66,23.93-21,32Z"/><path class="cls-15" d="m107.29,7.63c6.71,8.46,3.11,19.85,2.47,21.66-.23.66-.51,1.73-1.03,2.95-2.42,5.75-6.69,9.13-8.97,10.88-1.93,1.48-3.96,2.93-6.01,4.33-4.9,3.37-9.76,6.34-13.88,8.76-5.08,2.99-8.7,4.87-8.77,4.92-3.53,2.58-9.27,4.84-15.8,8.05-2.58-1.13-5.2-2.4-7.9-3.71-3.15-1.53-6.14-3.06-8.91-4.69,1.52-3.76,3.77-8.57,6.99-13.88,3.45-5.69,7.99-11.92,13.93-18.04,2.7-2.78,5.44-5.29,8.2-7.56,5.17-4.27,10.34-7.67,15.16-10.36,4.52-2.53,8.73-4.44,12.36-5.88,2.3-.91,4.36-1.64,6.12-2.21,1.99.96,4.2,2.47,6.03,4.78Z"/><path class="cls-18" d="m107.09,7.47c6.49,8.19,2.79,19.25,1.94,21.33-.27.65-.53,1.7-1.05,2.91-2.42,5.63-6.63,8.99-8.94,10.77-1.91,1.47-3.92,2.92-5.94,4.32-4.88,3.4-9.55,6.28-13.71,8.77-4.96,2.97-8.52,4.84-8.66,4.94-3.53,2.62-9.19,4.91-15.59,8.11-2.55-1.03-5.13-2.23-7.8-3.42-3.15-1.41-6.13-2.79-8.83-4.38,1.43-3.65,3.68-8.48,6.95-13.85,3.44-5.66,7.97-11.88,13.9-18,2.68-2.77,5.42-5.28,8.17-7.55,5.15-4.26,10.3-7.66,15.11-10.37,4.5-2.53,8.69-4.45,12.32-5.9,2.29-.92,4.34-1.64,6.1-2.22,2.06.87,4.28,2.31,6.06,4.56Z"/><path class="cls-31" d="m106.89,7.3c6.28,7.93,2.48,18.66,1.41,20.99-.29.64-.56,1.68-1.08,2.86-2.44,5.5-6.58,8.83-8.91,10.65-1.89,1.47-3.87,2.91-5.88,4.31-4.85,3.42-9.35,6.22-13.55,8.78-4.84,2.95-8.35,4.81-8.55,4.96-3.54,2.65-9.11,4.98-15.39,8.16-2.53-.93-5.07-2.06-7.71-3.13-3.15-1.28-6.12-2.52-8.74-4.07,1.35-3.55,3.59-8.39,6.9-13.82,3.43-5.64,7.96-11.85,13.86-17.95,2.67-2.76,5.4-5.27,8.14-7.54,5.13-4.25,10.26-7.66,15.05-10.37,4.48-2.53,8.66-4.46,12.27-5.92,2.28-.92,4.33-1.65,6.08-2.23,2.13.78,4.37,2.15,6.09,4.33Z"/><path class="cls-4" d="m106.69,7.13c6.06,7.66,2.17,18.06.87,20.65-.31.63-.58,1.65-1.11,2.82-2.44,5.37-6.52,8.68-8.88,10.53-1.86,1.46-3.83,2.89-5.81,4.3-4.83,3.45-9.14,6.17-13.38,8.79-4.72,2.93-8.17,4.77-8.44,4.98-3.54,2.68-9.03,5.05-15.19,8.21-2.51-.83-5-1.89-7.61-2.84-3.16-1.16-6.11-2.25-8.66-3.76,1.27-3.44,3.51-8.3,6.86-13.8,3.42-5.62,7.94-11.81,13.83-17.9,2.65-2.75,5.37-5.25,8.11-7.53,5.1-4.25,10.22-7.65,15-10.37,4.46-2.53,8.62-4.47,12.22-5.93,2.27-.92,4.31-1.66,6.06-2.24,2.2.69,4.45,1.98,6.13,4.11Z"/><path class="cls-25" d="m106.49,6.97c5.85,7.4,1.87,17.46.34,20.32-.33.62-.61,1.63-1.13,2.77-2.44,5.25-6.47,8.53-8.85,10.42-1.84,1.46-3.79,2.88-5.75,4.29-4.81,3.46-8.94,6.11-13.21,8.8-4.61,2.9-8,4.74-8.33,5-3.54,2.72-8.96,5.12-14.99,8.27-2.48-.73-4.94-1.72-7.51-2.56-3.17-1.03-6.1-1.98-8.57-3.46,1.19-3.33,3.42-8.21,6.81-13.77,3.41-5.59,7.93-11.78,13.79-17.86,2.64-2.73,5.35-5.24,8.08-7.52,5.08-4.24,10.18-7.65,14.94-10.37,4.44-2.53,8.58-4.48,12.17-5.95,2.26-.93,4.29-1.67,6.04-2.25,2.27.6,4.53,1.82,6.16,3.89Z"/><path class="cls-14" d="m106.29,6.8c5.64,7.13,1.58,16.87-.19,19.98-.34.61-.63,1.61-1.16,2.72-2.45,5.12-6.41,8.38-8.82,10.3-1.82,1.45-3.75,2.87-5.69,4.28-4.79,3.48-8.74,6.05-13.04,8.8s-7.82,4.71-8.22,5.01c-3.54,2.75-8.88,5.19-14.78,8.32-2.46-.63-4.88-1.55-7.41-2.27-3.18-.91-6.09-1.71-8.49-3.15,1.11-3.23,3.33-8.12,6.77-13.74,3.4-5.57,7.91-11.74,13.76-17.81,2.62-2.72,5.32-5.22,8.05-7.51,5.06-4.23,10.13-7.64,14.89-10.37,4.42-2.54,8.55-4.49,12.13-5.97,2.25-.93,4.28-1.68,6.02-2.27,2.34.51,4.62,1.66,6.19,3.67Z"/><path class="cls-13" d="m106.09,6.63c5.42,6.87,1.29,16.28-.72,19.64-.36.6-.65,1.58-1.19,2.68-2.45,5-6.35,8.22-8.79,10.18-1.8,1.44-3.7,2.85-5.62,4.26-4.77,3.51-8.53,5.99-12.87,8.81s-7.65,4.67-8.11,5.03c-3.55,2.78-8.8,5.26-14.58,8.37-2.44-.53-4.83-1.37-7.32-1.98-3.2-.78-6.08-1.45-8.4-2.84,1.02-3.12,3.24-8.03,6.72-13.71,3.39-5.54,7.9-11.7,13.73-17.77,2.61-2.71,5.3-5.21,8.02-7.5,5.04-4.22,10.09-7.64,14.83-10.38,4.4-2.54,8.51-4.5,12.08-5.98,2.24-.93,4.26-1.68,6-2.28,2.41.42,4.7,1.5,6.22,3.44Z"/><path class="cls-9" d="m105.89,6.47c5.19,6.61,1.01,15.69-1.25,19.31-.37.59-.68,1.56-1.22,2.63-2.45,4.87-6.3,8.07-8.76,10.07-1.78,1.44-3.66,2.84-5.56,4.25-4.74,3.53-8.33,5.92-12.7,8.82s-7.48,4.64-8,5.05c-3.55,2.82-8.73,5.33-14.38,8.42-2.41-.43-4.77-1.19-7.22-1.69-3.22-.65-6.07-1.18-8.32-2.53.94-3.02,3.15-7.94,6.68-13.68,3.38-5.52,7.88-11.67,13.69-17.72,2.59-2.7,5.27-5.2,7.99-7.49,5.01-4.22,10.05-7.63,14.77-10.38,4.38-2.54,8.48-4.51,12.03-6,2.23-.94,4.25-1.69,5.98-2.29,2.48.33,4.78,1.34,6.25,3.22Z"/><path class="cls-28" d="m105.69,6.3c4.98,6.35.74,15.11-1.78,18.97-.38.59-.7,1.54-1.24,2.58-2.45,4.75-6.24,7.92-8.73,9.95-1.75,1.43-3.62,2.83-5.49,4.24-4.72,3.56-8.13,5.86-12.54,8.83-4.14,2.79-7.3,4.6-7.89,5.07-3.55,2.85-8.65,5.4-14.17,8.48-2.39-.33-4.72-1.01-7.12-1.4-3.24-.52-6.06-.91-8.23-2.22.86-2.91,3.06-7.85,6.63-13.65,3.37-5.5,7.86-11.63,13.66-17.68,2.58-2.69,5.25-5.18,7.96-7.48,4.99-4.21,10.01-7.63,14.72-10.38,4.36-2.54,8.44-4.51,11.98-6.02,2.22-.94,4.23-1.7,5.96-2.3,2.54.25,4.86,1.18,6.28,3Z"/><path class="cls-22" d="m105.49,6.13c4.76,6.09.47,14.53-2.31,18.63-.39.58-.73,1.51-1.27,2.54-2.46,4.62-6.19,7.77-8.7,9.83-1.73,1.42-3.58,2.82-5.43,4.23-4.7,3.58-7.92,5.8-12.37,8.84-4.03,2.76-7.13,4.57-7.78,5.09-3.56,2.88-8.57,5.47-13.97,8.53-2.37-.23-4.67-.83-7.02-1.11-3.27-.39-6.05-.64-8.15-1.91.78-2.81,2.97-7.76,6.59-13.62,3.36-5.47,7.85-11.6,13.63-17.63,2.56-2.68,5.22-5.17,7.93-7.47,4.97-4.2,9.97-7.62,14.66-10.38,4.34-2.54,8.4-4.52,11.94-6.04,2.21-.95,4.21-1.71,5.94-2.31,2.61.16,4.94,1.02,6.32,2.78Z"/><path class="cls-19" d="m105.29,5.97c4.55,5.82.21,13.96-2.84,18.3-.4.57-.75,1.49-1.3,2.49-2.46,4.5-6.13,7.61-8.67,9.72-1.71,1.42-3.53,2.8-5.36,4.22-4.67,3.6-7.72,5.73-12.2,8.85-3.92,2.72-6.96,4.53-7.67,5.11-3.56,2.92-8.49,5.54-13.77,8.58-2.34-.13-4.62-.64-6.93-.82-3.3-.26-6.04-.37-8.06-1.6.7-2.7,2.88-7.67,6.55-13.59,3.35-5.45,7.83-11.56,13.59-17.58,2.55-2.67,5.2-5.15,7.9-7.45,4.94-4.19,9.93-7.62,14.61-10.38,4.32-2.55,8.37-4.53,11.89-6.05,2.2-.95,4.2-1.71,5.91-2.32,2.68.07,5.03.86,6.35,2.55Z"/><path class="cls-2" d="m105.09,5.8c4.33,5.56-.05,13.39-3.38,17.96-.41.57-.77,1.47-1.32,2.45-2.46,4.37-6.08,7.46-8.64,9.6-1.69,1.41-3.49,2.79-5.3,4.21-4.65,3.63-7.52,5.67-12.03,8.85-3.81,2.69-6.79,4.5-7.56,5.13-3.57,2.95-8.42,5.61-13.57,8.64-2.32-.02-4.58-.45-6.83-.53-3.33-.12-6.03-.1-7.97-1.29.62-2.59,2.8-7.58,6.5-13.56,3.34-5.42,7.82-11.52,13.56-17.54,2.54-2.65,5.17-5.14,7.88-7.44,4.92-4.18,9.89-7.61,14.55-10.39,4.3-2.55,8.33-4.54,11.84-6.07,2.19-.95,4.18-1.72,5.89-2.33,2.75-.02,5.11.7,6.38,2.33Z"/><path class="cls-26" d="m104.89,5.63c4.12,5.3-.3,12.83-3.91,17.62-.42.56-.8,1.44-1.35,2.4-2.46,4.25-6.02,7.31-8.62,9.48-1.67,1.4-3.45,2.78-5.23,4.19-4.62,3.65-7.32,5.6-11.86,8.86-3.7,2.65-6.62,4.46-7.45,5.15-3.57,2.99-8.34,5.68-13.36,8.69-2.3.08-4.53-.26-6.73-.25-3.36.02-6.01.17-7.89-.99.53-2.49,2.71-7.49,6.46-13.53,3.33-5.4,7.8-11.49,13.52-17.49,2.52-2.64,5.15-5.13,7.85-7.43,4.9-4.18,9.85-7.61,14.5-10.39,4.28-2.55,8.3-4.55,11.79-6.09,2.18-.96,4.16-1.73,5.87-2.34,2.82-.11,5.19.54,6.41,2.11Z"/><path class="cls-30" d="m104.69,5.47c3.9,5.03-.55,12.27-4.44,17.28-.43.56-.82,1.42-1.38,2.35-2.46,4.12-5.97,7.15-8.59,9.37-1.65,1.39-3.4,2.77-5.17,4.18-4.6,3.68-7.12,5.53-11.69,8.87-3.59,2.62-6.45,4.42-7.34,5.17-3.58,3.02-8.26,5.75-13.16,8.74-2.27.18-4.49-.06-6.63.04-3.39.17-6,.44-7.8-.68.45-2.38,2.62-7.4,6.41-13.5,3.32-5.37,7.79-11.45,13.49-17.45,2.51-2.63,5.12-5.11,7.82-7.42,4.87-4.17,9.8-7.6,14.44-10.39,4.26-2.55,8.26-4.56,11.75-6.1,2.18-.96,4.15-1.74,5.85-2.35,2.89-.2,5.27.38,6.44,1.89Z"/><path class="cls-21" d="m104.49,5.3c3.69,4.77-.79,11.71-4.97,16.95-.44.55-.84,1.4-1.4,2.31-2.46,4-5.92,7-8.56,9.25-1.63,1.39-3.36,2.76-5.1,4.17-4.58,3.7-6.92,5.47-11.53,8.88-3.48,2.58-6.28,4.38-7.23,5.19-3.58,3.06-8.19,5.82-12.96,8.8-2.25.28-4.44.14-6.54.33-3.42.32-5.99.71-7.72-.37.37-2.28,2.53-7.31,6.37-13.48,3.31-5.35,7.77-11.42,13.46-17.4,2.49-2.62,5.1-5.1,7.79-7.41,4.85-4.16,9.76-7.6,14.38-10.39,4.24-2.56,8.22-4.57,11.7-6.12,2.17-.96,4.13-1.75,5.83-2.36,2.96-.29,5.36.22,6.47,1.67Z"/><path class="cls-21" d="m104.29,5.13c3.47,4.5-1.02,11.16-5.5,16.61-.45.55-.87,1.37-1.43,2.26-2.46,3.87-5.86,6.84-8.53,9.13-1.61,1.38-3.32,2.75-5.04,4.16-4.55,3.73-6.72,5.4-11.36,8.89-3.37,2.54-6.11,4.34-7.12,5.21-3.59,3.1-8.11,5.89-12.75,8.85-2.22.38-4.4.34-6.44.62-3.46.48-5.98.98-7.63-.06.29-2.17,2.44-7.22,6.32-13.45,3.3-5.33,7.76-11.38,13.42-17.36,2.48-2.61,5.07-5.08,7.76-7.4,4.83-4.15,9.72-7.59,14.33-10.39,4.22-2.56,8.19-4.58,11.65-6.14,2.16-.97,4.12-1.75,5.81-2.38,3.03-.38,5.44.06,6.51,1.44Z"/><path class="cls-17" d="m104.09,4.97c3.26,4.24-1.26,10.62-6.03,16.27-.46.55-.89,1.35-1.46,2.21-2.46,3.75-5.81,6.69-8.5,9.02-1.58,1.37-3.27,2.73-4.98,4.15-4.53,3.75-6.53,5.32-11.19,8.89-3.26,2.5-5.94,4.3-7.01,5.23-3.59,3.13-8.03,5.96-12.55,8.9-2.2.48-4.35.54-6.34.91-3.49.64-5.97,1.25-7.55.25.21-2.07,2.35-7.13,6.28-13.42,3.29-5.3,7.74-11.35,13.39-17.31,2.46-2.6,5.05-5.07,7.73-7.39,4.8-4.15,9.68-7.59,14.27-10.4,4.2-2.56,8.15-4.59,11.6-6.16,2.15-.97,4.1-1.76,5.79-2.39,3.1-.47,5.52-.1,6.54,1.22Z"/><path class="cls-8" d="m103.89,4.8c3.04,3.98-1.49,10.07-6.56,15.94-.47.54-.92,1.33-1.49,2.17-2.46,3.63-5.75,6.53-8.47,8.9-1.56,1.36-3.23,2.72-4.91,4.13-4.5,3.78-6.33,5.25-11.02,8.9-3.16,2.46-5.78,4.26-6.9,5.25-3.6,3.17-7.95,6.03-12.35,8.96-2.18.58-4.3.75-6.24,1.2-3.52.81-5.96,1.52-7.46.56.12-1.96,2.26-7.04,6.23-13.39,3.28-5.28,7.73-11.31,13.36-17.26,2.45-2.59,5.02-5.06,7.7-7.38,4.78-4.14,9.64-7.58,14.22-10.4,4.18-2.56,8.12-4.6,11.56-6.17,2.14-.98,4.08-1.77,5.77-2.4,3.17-.56,5.6-.26,6.57,1Z"/><path class="cls-6" d="m103.69,4.63c2.83,3.71-1.71,9.54-7.1,15.6-.48.54-.94,1.3-1.51,2.12-2.46,3.5-5.7,6.38-8.44,8.78-1.54,1.35-3.19,2.71-4.85,4.12-4.48,3.81-6.14,5.18-10.85,8.91-3.05,2.41-5.61,4.22-6.79,5.27-3.61,3.21-7.88,6.1-12.14,9.01-2.15.68-4.26.97-6.14,1.49-3.55.98-5.95,1.79-7.38.87.04-1.86,2.18-6.95,6.19-13.36,3.27-5.25,7.71-11.27,13.32-17.22,2.43-2.57,5-5.04,7.67-7.37,4.76-4.13,9.6-7.58,14.16-10.4,4.16-2.56,8.08-4.61,11.51-6.19,2.13-.98,4.07-1.78,5.75-2.41,3.24-.65,5.69-.42,6.6.78Z"/><path class="cls-23" d="m103.49,4.47c2.61,3.45-1.93,9.01-7.63,15.26-.49.54-.96,1.28-1.54,2.08-2.46,3.38-5.65,6.22-8.41,8.67-1.52,1.35-3.14,2.7-4.78,4.11-4.45,3.83-5.94,5.1-10.68,8.92-2.94,2.37-5.44,4.18-6.68,5.29-3.61,3.24-7.8,6.17-11.94,9.06-2.13.78-4.21,1.18-6.05,1.78-3.57,1.16-5.94,2.06-7.29,1.18-.04-1.75,2.09-6.86,6.14-13.33,3.26-5.23,7.69-11.24,13.29-17.17,2.42-2.56,4.97-5.03,7.64-7.36,4.73-4.12,9.56-7.57,14.11-10.4,4.14-2.57,8.04-4.62,11.46-6.21,2.12-.98,4.05-1.79,5.73-2.42,3.3-.74,5.77-.58,6.63.55Z"/><path class="cls-24" d="m103.29,4.3c2.4,3.18-2.15,8.48-8.16,14.93-.5.53-.98,1.26-1.57,2.03-2.46,3.26-5.59,6.07-8.38,8.55-1.5,1.34-3.1,2.69-4.72,4.1-4.43,3.86-5.75,5.02-10.52,8.93-2.84,2.33-5.28,4.13-6.57,5.31-3.62,3.28-7.72,6.24-11.74,9.11-2.11.88-4.16,1.39-5.95,2.06-3.59,1.34-5.93,2.33-7.21,1.48-.12-1.64,2-6.77,6.1-13.3,3.25-5.21,7.68-11.2,13.25-17.13,2.4-2.55,4.95-5.01,7.61-7.34,4.71-4.11,9.51-7.57,14.05-10.4,4.12-2.57,8.01-4.63,11.41-6.22,2.11-.99,4.03-1.79,5.7-2.43,3.37-.83,5.85-.74,6.66.33Z"/><path class="cls-29" d="m103.09,4.13c2.19,2.92-2.36,7.96-8.69,14.59-.51.53-1.01,1.23-1.59,1.98-2.45,3.13-5.54,5.91-8.35,8.43-1.48,1.33-3.06,2.68-4.65,4.09-4.4,3.88-5.56,4.94-10.35,8.93-2.74,2.28-5.11,4.09-6.46,5.33-3.63,3.32-7.65,6.31-11.54,9.17-2.08.98-4.1,1.61-5.85,2.35-3.61,1.53-5.92,2.6-7.12,1.79-.2-1.54,1.91-6.68,6.05-13.27,3.24-5.18,7.66-11.17,13.22-17.08,2.39-2.54,4.93-5,7.59-7.33,4.69-4.11,9.47-7.56,13.99-10.4,4.1-2.57,7.97-4.64,11.37-6.24,2.1-.99,4.02-1.8,5.68-2.44,3.44-.92,5.94-.9,6.7.11Z"/><path class="cls-16" d="m102.89,3.97c1.97,2.65-2.57,7.44-9.22,14.25-.52.53-1.03,1.21-1.62,1.94-2.45,3.01-5.49,5.76-8.32,8.32-1.46,1.32-3.01,2.67-4.59,4.08-4.38,3.91-5.37,4.86-10.18,8.94-2.63,2.24-4.94,4.05-6.35,5.34-3.64,3.35-7.57,6.38-11.33,9.22-2.06,1.09-4.05,1.83-5.75,2.64-3.62,1.72-5.91,2.87-7.03,2.1-.29-1.43,1.82-6.59,6.01-13.24,3.23-5.16,7.65-11.13,13.19-17.03,2.37-2.53,4.9-4.99,7.56-7.32,4.67-4.1,9.43-7.56,13.94-10.41,4.08-2.57,7.94-4.65,11.32-6.26,2.09-.99,4-1.81,5.66-2.45,3.51-1.01,6.02-1.07,6.73-.11Z"/><path class="cls-12" d="m102.69,3.8c1.76,2.39-2.78,6.93-9.75,13.92-.53.53-1.05,1.19-1.65,1.89-2.45,2.89-5.43,5.6-8.29,8.2-1.44,1.31-2.97,2.66-4.52,4.06-4.35,3.94-5.19,4.78-10.01,8.95-2.53,2.19-4.78,4.01-6.24,5.36-3.64,3.39-7.49,6.45-11.13,9.27-2.04,1.19-3.99,2.05-5.66,2.93-3.63,1.92-5.9,3.14-6.95,2.41-.37-1.33,1.73-6.5,5.96-13.21,3.22-5.13,7.63-11.1,13.15-16.99,2.36-2.52,4.88-4.97,7.53-7.31,4.64-4.09,9.39-7.55,13.88-10.41,4.06-2.58,7.9-4.66,11.27-6.28,2.08-1,3.98-1.82,5.64-2.46,3.58-1.1,6.1-1.23,6.76-.34Z"/><path class="cls-10" d="m102.49,3.63c1.55,2.12-2.98,6.42-10.28,13.58-.54.53-1.08,1.17-1.67,1.84-2.44,2.77-5.38,5.44-8.26,8.08-1.42,1.3-2.92,2.64-4.46,4.05-4.32,3.96-5,4.69-9.84,8.96-2.43,2.14-4.61,3.96-6.13,5.38-3.65,3.43-7.42,6.52-10.93,9.33-2.01,1.29-3.93,2.27-5.56,3.22-3.63,2.12-5.88,3.41-6.86,2.72-.45-1.22,1.64-6.41,5.92-13.18,3.21-5.11,7.62-11.06,13.12-16.94,2.35-2.51,4.85-4.96,7.5-7.3,4.62-4.08,9.35-7.55,13.83-10.41,4.04-2.58,7.86-4.67,11.22-6.29,2.07-1,3.97-1.83,5.62-2.48,3.65-1.19,6.18-1.39,6.79-.56Z"/><path class="cls-20" d="m102.29,3.47c1.34,1.85-3.18,5.92-10.81,13.24-.55.52-1.1,1.14-1.7,1.8-2.44,2.65-5.33,5.29-8.23,7.97-1.4,1.3-2.88,2.63-4.4,4.04-4.3,3.99-4.82,4.6-9.67,8.97-2.33,2.1-4.45,3.92-6.02,5.4-3.66,3.47-7.34,6.59-10.72,9.38-1.99,1.39-3.87,2.49-5.46,3.51-3.63,2.32-5.87,3.67-6.78,3.03-.53-1.12,1.56-6.32,5.87-13.16,3.2-5.09,7.6-11.02,13.09-16.9,2.33-2.49,4.83-4.94,7.47-7.29,4.6-4.08,9.31-7.54,13.77-10.41,4.02-2.58,7.83-4.68,11.18-6.31,2.06-1.01,3.95-1.83,5.6-2.49,3.72-1.28,6.27-1.55,6.82-.78Z"/><path class="cls-3" d="m102.09,3.3c1.12,1.59-3.38,5.42-11.35,12.91-.55.52-1.12,1.12-1.73,1.75-2.43,2.53-5.28,5.13-8.2,7.85-1.38,1.29-2.83,2.63-4.33,4.03-4.26,4.03-4.64,4.51-9.51,8.98-2.23,2.05-4.29,3.87-5.91,5.42-3.67,3.51-7.26,6.66-10.52,9.43-1.97,1.49-3.8,2.71-5.36,3.8-3.62,2.53-5.86,3.94-6.69,3.34-.61-1.01,1.47-6.23,5.83-13.13,3.2-5.06,7.59-10.99,13.05-16.85,2.32-2.48,4.8-4.93,7.44-7.28,4.57-4.07,9.27-7.54,13.72-10.41,4-2.58,7.79-4.69,11.13-6.33,2.06-1.01,3.94-1.84,5.58-2.5,3.79-1.37,6.35-1.71,6.85-1Z"/><path class="cls-27" d="m101.89,3.13c.91,1.32-3.58,4.93-11.88,12.57-.56.52-1.14,1.1-1.76,1.71-2.43,2.41-5.23,4.97-8.17,7.73-1.36,1.28-2.79,2.61-4.27,4.02-4.24,4.05-4.47,4.41-9.34,8.98-2.13,2-4.12,3.83-5.8,5.44-3.68,3.54-7.18,6.73-10.32,9.49-1.94,1.59-3.73,2.92-5.27,4.09-3.6,2.73-5.85,4.21-6.61,3.65-.7-.9,1.38-6.14,5.79-13.1,3.19-5.04,7.57-10.95,13.02-16.81,2.3-2.47,4.78-4.92,7.41-7.27,4.55-4.06,9.23-7.53,13.66-10.42,3.98-2.58,7.76-4.7,11.08-6.35,2.05-1.01,3.92-1.85,5.56-2.51,3.86-1.45,6.44-1.87,6.88-1.23Z"/><path class="cls-5" d="m101.69,2.97c.71,1.05-3.77,4.44-12.41,12.23-.57.52-1.17,1.08-1.78,1.66-2.42,2.29-5.18,4.81-8.14,7.62-1.35,1.27-2.75,2.6-4.2,4-4.22,4.08-4.3,4.32-9.17,8.99-2.03,1.95-3.96,3.78-5.69,5.46-3.69,3.58-7.11,6.8-10.12,9.54-1.92,1.69-3.67,3.14-5.17,4.37-3.58,2.94-5.84,4.48-6.52,3.96-.78-.8,1.29-6.05,5.74-13.07,3.18-5.01,7.55-10.92,12.98-16.76,2.29-2.46,4.75-4.9,7.38-7.26,4.53-4.05,9.18-7.53,13.6-10.42,3.96-2.59,7.72-4.71,11.03-6.36,2.04-1.02,3.9-1.86,5.54-2.52,3.93-1.54,6.52-2.03,6.92-1.45Z"/><path class="cls-7" d="m74.49,27.8c-4.19,4.1-4.13,4.21-9,9-14.96,14.71-25.58,25.15-27,24-.86-.69,1.2-5.96,5.7-13.04s11.42-15.99,20.3-23.96c8.52-7.66,17.54-13.28,24.54-16.8s11.99-4.94,12.46-4.2c.72,1.12-8.73,7.12-27,25Z"/><ellipse class="cls-32" cx="55.36" cy="38.98" rx="16.45" ry="16.69"/></svg>