<?xml version="1.0" encoding="UTF-8"?><svg id="logo" xmlns="http://www.w3.org/2000/svg" width="553" height="386" viewBox="0 0 553 386"><defs><style>.cls-1{opacity:.5;}.cls-2,.cls-3,.cls-4{stroke-width:0px;}.cls-3{fill:#f28f6b;}.cls-4{fill:#f2f2f2;}</style></defs><path class="cls-3" d="m553,235.18c0,47.85-125.51,121.3-280.33,121.3S2.73,276.1,2.73,228.25,110.93,48.04,265.75,48.04s287.25,139.29,287.25,187.14Z"/><path class="cls-3" d="m362.66,65.37c-1.36-15.13,33.51-29.18,62.29-41.59,43.19-18.61,75.34-32.46,96.9-17.33,25.42,17.85,19.9,64.61,17.3,86.64-1.87,15.87-6.59,64.4-27.69,69.31-18.36,4.27-26.77-29.61-72.68-58.92-42.23-26.96-74.84-23.65-76.14-38.12Z"/><path class="cls-3" d="m179.06,60c.72-15.18-34.71-27.74-64-38.91C71.12,4.33,38.41-8.15,17.51,7.89-7.14,26.8.36,73.28,3.89,95.19c2.54,15.78,9.31,64.07,30.59,68.08,18.52,3.49,25.49-30.72,70.12-61.95,41.05-28.72,73.77-26.81,74.46-41.32Z"/><g class="cls-1"><path class="cls-4" d="m539.16,232.12c0,43.59-118.52,110.5-264.72,110.5S19.53,269.39,19.53,225.8,121.7,61.64,267.9,61.64s271.25,126.89,271.25,170.48Z"/><path class="cls-4" d="m373.04,75.76c-1.28-13.79,18.02-24.93,45.2-36.23,40.79-16.95,72.87-33.01,93.23-19.22,24.01,16.26,17.07,62.3,14.61,82.37-1.77,14.46-11.99,48.32-31.92,52.79-17.33,3.89-18.94-14.89-62.29-41.59-39.88-24.56-57.61-24.94-58.83-38.12Z"/><path class="cls-4" d="m172.31,75.76c.68-13.83-20.8-24.48-48.45-34.66C82.37,25.84,46.7,5.7,26.96,20.31c-23.27,17.23-9.68,64.32-6.34,84.28,2.4,14.37,13.93,47.23,34.03,50.88,17.49,3.18,16.69-16.61,58.83-45.05,38.76-26.17,58.19-21.44,58.83-34.66Z"/></g><g id="Hungry_-_Chunky_"><path class="cls-2" d="m102.16,181.55c-.26.28-.65.7-1.15,1.27-.5.57-1.09,1.22-1.76,1.94-.67.72-1.37,1.48-2.1,2.27-.73.79-1.42,1.55-2.06,2.29-.65.74-1.24,1.39-1.79,1.95s-.93.98-1.16,1.25l4.62,10.79c.04.11,0,.35-.14.73-.14.38-.27.63-.38.76-.52.39-1.02.33-1.5-.17-.48-.5-.97-1.21-1.46-2.13-.49-.92-.98-1.91-1.49-2.97s-1.04-2-1.62-2.82c-.57-.82-1.2-1.38-1.87-1.67-.67-.29-1.38-.11-2.12.53-.07-.06-.16-.16-.29-.32s-.21-.27-.24-.35c-.2-.47-.21-.83-.03-1.07.17-.24.38-.49.61-.73.24-.25.43-.52.58-.81.15-.3.12-.72-.11-1.26-.6-1.44-1.25-2.85-1.94-4.21s-1.41-2.74-2.16-4.12c-.74-1.38-1.47-2.77-2.17-4.15-.7-1.38-1.35-2.78-1.93-4.19-.04-.11-.12-.29-.23-.54-.1-.25-.21-.51-.33-.79-.11-.27-.22-.52-.31-.76s-.16-.39-.19-.46c-.01-.33.07-.58.23-.73.17-.15.36-.28.58-.37.18-.08.41-.13.69-.16.25-.02.43.12.55.41l9.71,17.25c.03.07.17.23.41.46.25.24.41.36.5.36l.22-.09.27-.11c.13-.1.39-.29.78-.58.39-.29,1.03-.88,1.92-1.79.89-.9,2.11-2.21,3.63-3.93,1.53-1.72,3.58-4.04,6.17-6.98l-4.9-12.39c-.09-.22-.12-.49-.09-.82.03-.33.11-.65.24-.96.13-.31.27-.57.44-.79.16-.22.35-.37.57-.46.32-.13.61-.19.85-.16.24.03.47.29.68.8.04.11.05.33.02.66s-.05.54-.06.63c.06.14.16.4.29.77.13.37.29.76.46,1.18.17.42.34.81.5,1.19.16.38.27.64.33.79,1.28,3.07,2.59,6.12,3.94,9.16,1.35,3.04,2.76,6.03,4.24,8.98.19.35.52.96.99,1.84.47.88.98,1.83,1.53,2.83.54,1,1.07,1.96,1.58,2.87.51.91.88,1.55,1.12,1.92.03.07.09.17.19.3.1.13.22.27.36.42.15.15.27.29.37.42.1.13.17.21.22.23l.14.33.07.16c-.04.1-.11.25-.2.43-.09.19-.2.37-.31.54-.12.17-.23.34-.34.49-.11.15-.2.24-.27.27-.46.32-.96.27-1.51-.13-.55-.41-1.07-.94-1.56-1.61-.49-.66-.92-1.34-1.29-2.04-.37-.69-.64-1.18-.79-1.45-.02-.04-.14-.3-.37-.8-.23-.5-.52-1.13-.88-1.89s-.77-1.62-1.23-2.57c-.46-.95-.93-1.9-1.41-2.85-.48-.95-.94-1.83-1.39-2.66-.45-.83-.83-1.52-1.14-2.07l-2.29,2.42Z"/><path class="cls-2" d="m137.22,181.2c-.7.76-1.24,1.58-1.63,2.47-.39.89-.8,1.74-1.24,2.56s-.96,1.57-1.58,2.27c-.62.69-1.52,1.23-2.71,1.62-1.34.43-2.64.54-3.9.31-1.27-.23-2.47-.7-3.63-1.42-1.16-.71-2.24-1.6-3.26-2.65-1.02-1.05-1.93-2.17-2.75-3.37-.82-1.19-1.54-2.4-2.16-3.62-.62-1.22-1.1-2.35-1.43-3.39-.95-1.91-1.4-3.5-1.36-4.77.04-1.27.3-2.15.77-2.66.47-.5.99-.59,1.55-.25.56.33.88,1.12.95,2.37-.03.17,0,.42.06.75.06.33.13.67.2,1.01.07.35.14.68.2.99.06.31.11.52.14.63.25.78.62,1.68,1.12,2.69.49,1.01,1.08,2.05,1.77,3.1.69,1.05,1.46,2.07,2.31,3.04.85.98,1.75,1.81,2.71,2.48.96.68,1.96,1.15,3.02,1.43,1.05.28,2.1.25,3.14-.09.67-.22,1.33-.79,1.97-1.71.64-.93,1.2-1.97,1.67-3.13.47-1.16.81-2.31,1.04-3.45.23-1.14.23-2.05.01-2.72-.12-.37-.31-.99-.57-1.85-.26-.86-.54-1.78-.86-2.74-.31-.97-.62-1.88-.91-2.73-.29-.85-.5-1.44-.61-1.78.1-.44.25-.81.45-1.1.19-.29.48-.49.85-.61.45-.14.91.03,1.4.53.49.5.98,1.19,1.46,2.05.49.87.94,1.83,1.37,2.89.42,1.06.82,2.08,1.18,3.07s.69,1.87.97,2.62c.28.75.5,1.25.66,1.48.43.69.97,1.44,1.62,2.25.65.82,1.29,1.61,1.91,2.38.62.77,1.17,1.47,1.67,2.11.49.64.8,1.15.92,1.52.18.56.13.95-.15,1.16-.28.21-.66.4-1.14.55-.6.19-1.08.19-1.46-.02s-.7-.52-.98-.95c-.28-.42-.55-.9-.8-1.44-.25-.54-.56-1.07-.92-1.61-.36-.54-.78-1.02-1.27-1.44-.48-.42-1.08-.7-1.78-.84Z"/><path class="cls-2" d="m142.65,164.56c-.08-.34-.01-.59.21-.75.22-.15.49-.27.79-.34.23-.06.4-.04.53.05.12.09.22.21.3.35.07.14.17.27.28.39.11.12.26.15.45.1.53-.13,1.12-.5,1.78-1.1.66-.6,1.37-1.26,2.14-1.97.77-.71,1.61-1.4,2.51-2.07.9-.66,1.85-1.12,2.83-1.36,1.29-.32,2.56-.27,3.8.13,1.24.4,2.43,1.05,3.55,1.94,1.12.89,2.16,1.95,3.1,3.17.94,1.22,1.8,2.49,2.56,3.81.77,1.32,1.41,2.63,1.93,3.94.52,1.3.9,2.45,1.14,3.44.08.34.18.86.29,1.56.11.7.18,1.4.22,2.12.03.72-.04,1.37-.21,1.96s-.49.94-.95,1.05c-.08.02-.21.04-.41.07-.19.03-.39.04-.6.03-.21,0-.38-.04-.53-.08-.15-.04-.25-.14-.28-.29-.38-3.01-1.05-5.75-2.02-8.24-.97-2.48-2.07-4.6-3.3-6.35-1.23-1.75-2.54-3.06-3.92-3.93s-2.69-1.15-3.95-.84c-1.18.29-2.23.75-3.16,1.38-.93.63-1.69,1.4-2.27,2.31-.58.91-.96,1.93-1.15,3.06-.18,1.13-.13,2.31.17,3.52.3,1.22.71,2.39,1.23,3.54.52,1.14,1.07,2.28,1.65,3.4s1.13,2.27,1.66,3.43c.53,1.16.94,2.35,1.24,3.56-1.06.26-2.06.04-3-.66-.94-.7-1.79-1.68-2.56-2.94s-1.49-2.72-2.16-4.36c-.67-1.65-1.25-3.29-1.75-4.92-.5-1.63-.93-3.18-1.29-4.64-.36-1.46-.64-2.61-.85-3.45Z"/><path class="cls-2" d="m167.94,198.27c-.25-.51-.33-.99-.24-1.45.1-.46.27-.84.53-1.17.26-.33.56-.56.91-.7.35-.14.67-.15.95-.02.28.13.49.42.64.87.14.45.13,1.11-.03,1.97.15.85.66,1.61,1.52,2.29.86.68,1.92,1.24,3.17,1.69,1.25.45,2.6.82,4.04,1.11,1.44.29,2.83.52,4.17.67,1.34.15,2.52.23,3.56.25.96.02,1.67,0,2.13-.09.96-.18,1.73-.58,2.31-1.2.58-.62,1.04-1.38,1.37-2.28.33-.9.55-1.88.65-2.95.1-1.07.14-2.13.1-3.18-.03-1.05-.12-2.06-.26-3.03s-.26-1.78-.38-2.43c-.06-.31-.19-.87-.4-1.69-.21-.82-.47-1.75-.78-2.81-.31-1.06-.65-2.15-1.01-3.27-.36-1.13-.74-2.17-1.11-3.14-.38-.97-.73-1.74-1.05-2.31-.32-.58-.6-.84-.83-.8-.38.07-.81.27-1.29.59s-.97.68-1.48,1.04c-.51.37-1.03.72-1.56,1.06-.54.34-1.07.55-1.61.65-1.08.2-2.17.16-3.3-.11-1.12-.27-2.12-.71-3.01-1.3-.88-.59-1.65-1.35-2.29-2.27-.64-.92-1.06-1.91-1.26-2.99-.31-1.69-.29-3.49.06-5.38s.98-3.68,1.88-5.35c.91-1.68,2.07-3.12,3.5-4.34,1.42-1.21,3.04-1.99,4.85-2.32,1.45.13,2.74.8,3.85,2.01,1.11,1.21,2.09,2.77,2.94,4.68.85,1.91,1.6,4.07,2.26,6.48s1.26,4.87,1.8,7.4c.54,2.53,1.06,5,1.57,7.44s1.05,4.63,1.65,6.59c.16.88.3,1.94.43,3.17.12,1.23.19,2.5.19,3.81,0,1.31-.08,2.63-.26,3.95-.17,1.32-.5,2.54-.97,3.64-.47,1.1-1.13,2.03-1.96,2.8-.83.77-1.87,1.26-3.09,1.49-1,.18-2.22.29-3.67.31s-2.97-.07-4.58-.3c-1.61-.22-3.23-.56-4.86-1.02-1.63-.46-3.13-1.05-4.49-1.77-1.36-.73-2.52-1.61-3.46-2.65-.94-1.04-1.54-2.25-1.8-3.64Zm7.28-28.59c.13.69.35,1.34.68,1.93.33.6.74,1.11,1.23,1.54.49.43,1.07.73,1.71.91.65.18,1.34.2,2.07.07,1.96-.36,3.38-1.01,4.26-1.97.88-.96,1.4-2.05,1.58-3.27.17-1.22.14-2.49-.1-3.8-.29-1.34-.56-2.54-.84-3.6-.1-.54-.23-1.07-.41-1.59-.18-.52-.42-1-.74-1.42-.32-.42-.7-.73-1.15-.92-.45-.2-.99-.24-1.6-.12-1.27.23-2.38.8-3.32,1.71-.95.91-1.7,1.96-2.25,3.16s-.93,2.46-1.12,3.78c-.19,1.33-.19,2.53,0,3.61Z"/><path class="cls-2" d="m200.3,176.12c-1.06-1.44-2.01-3.03-2.87-4.77-.86-1.74-1.62-3.51-2.3-5.32-.67-1.8-1.25-3.57-1.73-5.3-.48-1.73-.86-3.31-1.13-4.73-.04-.27-.09-.57-.18-.89-.08-.32-.14-.66-.16-1.01s-.01-.69.04-1.01c.05-.32.18-.62.39-.88h.12s.06-.03.05-.05c0-.02.02-.03.05-.04.04,0,.06,0,.06.02,0,.02.04.02.12.01h.12c.08.01.29.07.61.14.33.08.53.15.62.21.67-.32,1.35-.7,2.04-1.12.69-.43,1.4-.83,2.11-1.23.72-.39,1.45-.73,2.2-1.03.75-.29,1.49-.49,2.23-.59.54-.07,1.02-.11,1.43-.13.41-.01.83,0,1.25.04.42.04.87.1,1.35.18.48.08,1.05.17,1.69.28.34.19.65.38.93.56.28.18.54.39.79.63.25.24.46.55.62.92s.29.87.37,1.49c-.61.16-1.34.21-2.2.14-.86-.06-1.76-.17-2.7-.33-.95-.15-1.92-.26-2.91-.33-.99-.07-1.93-.02-2.82.13-.89.16-1.69.52-2.4,1.08-.76.5-1.39,1.29-1.87,2.38-.12,1.16-.09,2.28.09,3.36.18,1.08.46,2.12.82,3.12.37,1,.8,1.99,1.31,2.97s.99,1.96,1.45,2.95c.46.98.9,1.96,1.3,2.94.4.97.71,1.98.93,3.01.05.39-.11.83-.47,1.33-.37.5-.82.79-1.37.86Z"/><path class="cls-2" d="m218.04,192.24c-.02-.27-.04-.54-.06-.79-.02-.25,0-.47.07-.65.06-.18.17-.34.32-.46.23-.1.5-.16.81-.18.63.62,1.45,1.41,2.44,2.38.99.96,2.11,1.89,3.35,2.78,1.24.89,2.53,1.65,3.87,2.3,1.34.64,2.67.92,4,.82,1.09-.12,2-.47,2.74-1.06.74-.58,1.35-1.33,1.83-2.22.48-.9.86-1.91,1.13-3.03.27-1.12.47-2.25.6-3.4.13-1.15.2-2.25.22-3.31.02-1.06.06-1.99.12-2.77.05-.4.09-1.06.12-1.98.03-.92.05-1.95.07-3.06.01-1.12,0-2.29-.03-3.5-.03-1.21-.12-2.31-.28-3.3-.15-.99-.37-1.8-.65-2.42s-.66-.92-1.12-.89c-.66.05-1.35.3-2.06.74s-1.45.94-2.21,1.49c-.76.55-1.54,1.05-2.33,1.5-.79.45-1.57.71-2.35.76-1.48.11-2.86-.09-4.13-.61-1.27-.51-2.45-1.22-3.54-2.12-1.09-.9-2.07-1.97-2.94-3.22-.88-1.25-1.63-2.56-2.26-3.92-.63-1.37-1.13-2.74-1.48-4.13s-.58-2.7-.68-3.95c-.02-.27-.08-.72-.19-1.34-.1-.62-.14-1.26-.11-1.93.03-.67.16-1.27.39-1.79.23-.53.64-.81,1.23-.86.16-.01.31.29.45.91.14.62.32,1.42.53,2.4.21.98.47,2.11.78,3.38.31,1.27.69,2.56,1.14,3.86.45,1.3.97,2.58,1.58,3.82.6,1.25,1.31,2.34,2.12,3.28.81.94,1.76,1.68,2.84,2.23,1.08.55,2.28.77,3.61.67.86-.06,1.74-.32,2.65-.76s1.76-.98,2.55-1.63c.79-.65,1.51-1.37,2.16-2.16.64-.83,1.13-1.63,1.46-2.4-.01-.16-.06-.53-.14-1.11-.08-.58-.17-1.25-.27-2.01-.1-.76-.2-1.58-.3-2.48-.11-.89-.21-1.74-.31-2.54-.1-.8-.18-1.49-.24-2.07-.06-.58-.1-.95-.11-1.11-.1-2.38-.03-3.85.2-4.4.23-.55.58-.4,1.03.42.45.83.97,2.24,1.55,4.24.58,2,1.16,4.34,1.73,7.02.57,2.68,1.08,5.62,1.54,8.8.45,3.18.78,6.38.98,9.61.2,3.22.23,6.35.08,9.38-.15,3.03-.54,5.74-1.19,8.12-.65,2.38-1.58,4.34-2.79,5.89-1.22,1.54-2.8,2.42-4.74,2.65-.78.06-1.71-.02-2.81-.23-1.09-.21-2.2-.53-3.33-.96-1.13-.43-2.25-.95-3.38-1.57s-2.13-1.31-3.03-2.07c-.9-.76-1.64-1.56-2.24-2.42-.59-.86-.92-1.74-.99-2.63Z"/><path class="cls-2" d="m280.06,152.96c.55.01,1.13.04,1.76.07.62.04,1.21.16,1.75.37.54.21.98.5,1.33.88.34.38.51.92.49,1.63-.02.82-.4,1.22-1.14,1.2-.86-.02-1.65-.15-2.37-.38-.72-.23-1.53-.36-2.42-.38-1.13-.03-2.26.01-3.37.12s-2.24.23-3.38.36c-1.14.13-2.26.25-3.38.36-1.12.11-2.24.15-3.37.12.02-.94.25-1.68.7-2.21.44-.54,1.02-.96,1.73-1.28.71-.32,1.51-.52,2.39-.62.88-.1,1.79-.14,2.73-.14.94,0,1.85,0,2.75,0,.9,0,1.7-.03,2.4-.09h.18c.12,0,.25,0,.41-.01.16-.02.31-.02.47-.02.16,0,.27,0,.35,0Z"/><path class="cls-2" d="m311.87,157.84c.2-1.55.65-3.14,1.37-4.77.72-1.62,1.62-3.21,2.73-4.77,1.1-1.55,2.36-3.01,3.77-4.37,1.41-1.36,2.93-2.53,4.55-3.51,1.62-.98,3.29-1.71,5-2.21,1.71-.45,3.38-.58,5.01-.37.93.12,1.58.55,1.96,1.31.38.76.51,1.56.4,2.42-.06.5-.23,1.07-.51,1.71-.28.64-.65,1.25-1.12,1.84-.47.59-.97,1.08-1.51,1.47-.54.39-1.1.54-1.68.47.05-.39.15-.76.32-1.11.16-.35.36-.68.6-.99.23-.3.43-.63.59-.96.16-.33.27-.71.32-1.14.07-.54-.12-.89-.55-1.04-.43-.15-.86-.26-1.29-.31-.08,0-.23-.03-.46-.06-.16-.02-.27-.03-.35-.04-1.87.47-3.73,1.18-5.58,2.11-1.85.93-3.53,2.06-5.03,3.39-1.51,1.33-2.76,2.85-3.76,4.55-1,1.71-1.63,3.59-1.89,5.64-.17,1.32-.22,2.78-.17,4.38s.31,3.11.76,4.53c.45,1.42,1.15,2.64,2.11,3.67s2.22,1.64,3.81,1.84c1.32.17,2.64.21,3.97.12,1.33-.09,2.66-.2,4-.32,1.33-.13,2.67-.23,3.99-.29,1.33-.07,2.65-.02,3.97.14.31.04.61.12.92.23.3.12.43.37.38.76-.02.19-.17.42-.44.68-.27.26-.59.51-.98.73-.38.23-.74.4-1.07.52-.33.12-.54.19-.62.22l-13.79,1.16c-.08,0-.24-.02-.5-.03-.25-.01-.46-.03-.61-.05-1.28-.16-2.4-.57-3.36-1.22s-1.79-1.45-2.47-2.38c-.69-.93-1.25-1.99-1.67-3.17-.42-1.18-.74-2.39-.96-3.64-.22-1.25-.33-2.48-.33-3.71s.06-2.36.19-3.41Z"/><path class="cls-2" d="m358,180.11c.26-.99.53-2.01.8-3.07s.54-2.13.79-3.2c.25-1.07.49-2.12.7-3.15.21-1.04.39-1.97.55-2.82.23-1.23.27-2.44.13-3.62-.14-1.18-.46-2.24-.97-3.19-.5-.95-1.2-1.75-2.09-2.41-.89-.66-2.01-1.11-3.35-1.36-.54-.1-1.01-.14-1.41-.14-.4,0-.8.06-1.22.16s-.88.25-1.39.43c-.52.22-1.12.49-1.81.8-.01.08-.05.22-.11.43-.06.21-.09.33-.1.37-.16.85-.28,1.99-.36,3.42-.08,1.44-.17,2.93-.25,4.49-.09,1.56-.16,3.06-.23,4.52s-.18,2.63-.35,3.52c-.01.08-.04.23-.08.46-.04.23-.1.48-.17.75-.07.27-.12.51-.17.75-.04.23-.07.4-.1.52-.33.5-.67.78-1.02.86-.35.08-.76.07-1.22-.02-.48,0-.76-.4-.86-1.17-.1-.77-.08-1.86.06-3.27s.34-3.1.6-5.08c.26-1.98.52-4.16.78-6.54.26-2.38.46-4.92.62-7.61.15-2.69.18-5.48.07-8.37-.11-1.13-.18-2.09-.22-2.87-.04-.78-.08-1.48-.12-2.11s-.07-1.27-.07-1.92,0-1.44.01-2.35l.04-.23c.03-.15.15-.28.37-.38.22-.1.46-.18.73-.25.27-.07.54-.11.8-.12.26-.01.47,0,.62.02.38,2.06.67,3.79.87,5.2.2,1.41.34,2.62.44,3.63.09,1.01.14,1.86.13,2.53,0,.68-.03,1.33-.06,1.96-.04.63-.09,1.27-.18,1.94-.08.66-.15,1.46-.2,2.41,2.22-.87,4.16-1.21,5.82-1.02,1.65.18,3.06.69,4.22,1.52,1.16.83,2.1,1.95,2.81,3.35.71,1.4,1.24,2.93,1.57,4.58.33,1.65.5,3.37.51,5.16,0,1.79-.09,3.5-.29,5.14-.2,1.63-.51,3.12-.93,4.45-.42,1.33-.88,2.38-1.38,3.15-.5.76-1.05,1.16-1.65,1.19-.6.03-1.17-.44-1.71-1.42Z"/><path class="cls-2" d="m387.53,179.14c-.99.28-1.89.7-2.68,1.25-.79.55-1.59,1.06-2.39,1.54-.8.47-1.64.84-2.53,1.11-.89.27-1.94.26-3.16-.04-1.37-.33-2.53-.92-3.49-1.78-.96-.86-1.75-1.89-2.36-3.1-.61-1.21-1.08-2.53-1.4-3.96-.32-1.43-.52-2.86-.59-4.31-.08-1.45-.06-2.85.05-4.21.11-1.36.29-2.58.54-3.64.19-2.13.63-3.72,1.33-4.78.7-1.06,1.38-1.68,2.04-1.86.67-.18,1.15.02,1.46.59.3.58.16,1.42-.43,2.52-.11.13-.23.36-.34.67-.12.31-.24.64-.36.97-.12.33-.24.65-.35.94-.11.3-.18.5-.21.62-.19.8-.34,1.76-.45,2.88-.11,1.12-.14,2.31-.11,3.57s.17,2.52.38,3.8c.21,1.28.55,2.46,1.02,3.53.46,1.08,1.07,2.01,1.83,2.79.75.79,1.66,1.31,2.73,1.56.68.16,1.54.02,2.58-.44,1.03-.46,2.05-1.05,3.05-1.8,1-.75,1.9-1.54,2.69-2.4.79-.86,1.26-1.63,1.43-2.31.09-.38.25-1,.48-1.88.23-.87.46-1.8.7-2.79s.45-1.92.64-2.8c.19-.88.33-1.49.41-1.83.32-.33.64-.56.95-.71.32-.14.66-.17,1.04-.08.46.11.76.51.92,1.19.16.68.21,1.52.18,2.52-.04,1-.15,2.05-.34,3.18s-.39,2.2-.6,3.24-.39,1.95-.54,2.74c-.15.79-.22,1.33-.21,1.61,0,.81.07,1.73.21,2.77s.26,2.04.39,3.02c.13.97.23,1.87.32,2.67.09.8.08,1.4,0,1.78-.14.57-.38.87-.73.91-.35.04-.77,0-1.27-.12-.61-.15-1.02-.41-1.23-.78-.21-.37-.33-.81-.34-1.32-.02-.51,0-1.05.06-1.64.06-.59.08-1.21.06-1.86-.02-.65-.13-1.28-.33-1.89-.2-.61-.56-1.16-1.08-1.65Z"/><path class="cls-2" d="m400.68,167.68c.1-.34.29-.51.56-.54.27-.02.56.02.85.11.22.07.37.17.43.31.06.14.08.29.08.45,0,.16,0,.32.04.47s.14.26.33.31c.52.16,1.22.15,2.09-.04.87-.19,1.82-.39,2.85-.61,1.03-.22,2.1-.39,3.21-.5,1.11-.11,2.16-.02,3.13.27,1.27.38,2.34,1.07,3.21,2.04.87.98,1.56,2.14,2.07,3.48.51,1.34.86,2.78,1.05,4.3.19,1.53.28,3.06.26,4.59-.01,1.53-.13,2.98-.34,4.37-.22,1.39-.47,2.57-.77,3.54-.1.34-.28.83-.54,1.49s-.56,1.3-.89,1.94c-.34.63-.73,1.16-1.18,1.57-.45.42-.9.55-1.35.42-.08-.02-.2-.07-.38-.15-.18-.08-.36-.17-.53-.28-.17-.11-.31-.23-.42-.34-.11-.11-.14-.25-.09-.4,1.21-2.78,2.03-5.49,2.46-8.12s.56-5.01.39-7.15-.63-3.93-1.37-5.38c-.75-1.45-1.73-2.36-2.97-2.74-1.16-.35-2.3-.49-3.42-.42-1.12.07-2.17.35-3.13.83-.96.49-1.81,1.17-2.55,2.05-.74.88-1.29,1.92-1.65,3.12s-.61,2.42-.74,3.67-.24,2.5-.31,3.77c-.08,1.26-.18,2.53-.32,3.79-.14,1.27-.39,2.5-.75,3.7-1.05-.32-1.8-1.01-2.25-2.09s-.69-2.35-.71-3.83c-.02-1.48.1-3.1.37-4.86.27-1.76.6-3.46,1-5.12.4-1.66.82-3.21,1.25-4.65s.78-2.57,1.03-3.4Z"/><path class="cls-2" d="m421.69,196.37c.03-.07.11-.26.26-.56.15-.3.33-.62.54-.96.21-.34.38-.66.54-.96.15-.3.24-.48.26-.56.03-.07.1-.27.21-.58.11-.31.25-.67.42-1.07.16-.4.33-.82.49-1.26s.28-.77.36-.99c.08-.22.19-.51.32-.88.13-.37.26-.75.38-1.14s.23-.73.33-1c.1-.28.16-.43.17-.47.5-1.73.94-3.6,1.31-5.61.37-2.01.73-4.01,1.05-6.01.33-2,.66-3.96,1.01-5.88.34-1.92.71-3.65,1.11-5.21.65-.76,1.12-.94,1.4-.52.29.42.44,1.21.48,2.39.03,1.18-.03,2.6-.17,4.27-.15,1.67-.35,3.36-.61,5.05-.26,1.69-.51,3.29-.76,4.78-.29,1.48-.49,2.63-.63,3.46.05.1.17.19.37.26.2.07.34.12.41.15.73.27,1.46.28,2.17.04.71-.24,1.44-.61,2.18-1.11.74-.5,1.49-1.06,2.26-1.68.76-.62,1.52-1.17,2.28-1.64.75-.48,1.53-.83,2.32-1.06.79-.23,1.59-.2,2.4.09.51.19.77.46.77.81s-.1.72-.28,1.12c-.66.22-1.44.54-2.34.96-.9.42-1.87.88-2.9,1.38-1.03.5-2.08,1.04-3.14,1.61-1.06.57-2.02,1.15-2.87,1.74-.86.59-1.61,1.18-2.26,1.77-.65.6-1.08,1.17-1.28,1.72-.29.81-.29,1.64,0,2.5.29.85.75,1.71,1.38,2.56.63.85,1.38,1.66,2.27,2.41.89.76,1.8,1.46,2.73,2.11.93.65,1.83,1.21,2.69,1.69.83.47,1.54.81,2.12,1.02.3.19.42.44.35.75-.07.31-.15.59-.24.85-.2.55-.52.89-.96,1.02-.44.13-.93.16-1.47.09s-1.07-.2-1.6-.39c-.53-.19-.98-.36-1.35-.49-.81-.29-1.64-.88-2.5-1.78-.86-.89-1.67-1.82-2.42-2.78s-1.4-1.83-1.95-2.61c-.55-.78-.97-1.22-1.26-1.33-.59-.21-1.09-.07-1.49.43-.41.5-.77,1.06-1.08,1.7-.31.64-.66,1.21-1.03,1.72-.37.51-.83.67-1.38.47-.48-.17-.87-.46-1.18-.87-.31-.4-.36-.9-.15-1.49Z"/><path class="cls-2" d="m435.9,222.82c.11-.25.21-.5.31-.73.1-.23.22-.42.36-.55.14-.13.31-.22.5-.27.25.02.51.09.8.22.28.84.63,1.92,1.07,3.23.43,1.31,1,2.65,1.69,4.01.69,1.36,1.48,2.63,2.38,3.83.89,1.19,1.95,2.05,3.17,2.57,1.02.39,1.99.5,2.92.33s1.81-.55,2.65-1.13c.84-.58,1.64-1.3,2.39-2.17.75-.87,1.45-1.78,2.1-2.74.64-.96,1.22-1.9,1.72-2.83s.97-1.74,1.38-2.41c.23-.33.56-.9,1.02-1.7.45-.81.94-1.7,1.47-2.69s1.06-2.03,1.59-3.12c.53-1.09.96-2.11,1.28-3.06.32-.95.5-1.76.54-2.45.04-.68-.16-1.12-.59-1.3-.61-.26-1.33-.36-2.17-.29-.84.07-1.72.17-2.65.3-.93.13-1.85.22-2.75.26-.91.04-1.72-.1-2.44-.41-1.37-.58-2.49-1.4-3.38-2.44-.89-1.04-1.61-2.21-2.16-3.51s-.92-2.7-1.12-4.22c-.2-1.51-.27-3.02-.2-4.52.07-1.5.26-2.95.59-4.34.32-1.39.73-2.67,1.22-3.82.11-.25.26-.68.45-1.27.19-.6.45-1.19.79-1.77.33-.58.72-1.05,1.18-1.41.45-.36.95-.42,1.49-.19.14.06.14.4-.02,1.01-.16.61-.37,1.41-.64,2.38-.27.97-.56,2.09-.87,3.36-.31,1.27-.57,2.59-.77,3.95s-.32,2.73-.36,4.12c-.04,1.39.08,2.68.37,3.89s.79,2.31,1.49,3.29c.71.98,1.67,1.74,2.89,2.26.79.34,1.69.52,2.7.55,1.01.03,2.01-.06,3.02-.27,1-.21,1.97-.52,2.91-.92.95-.44,1.76-.93,2.41-1.46.06-.14.19-.49.38-1.05s.43-1.19.69-1.91c.26-.72.55-1.5.87-2.34.32-.84.62-1.64.9-2.39.28-.75.53-1.4.74-1.95.21-.55.35-.89.41-1.04,1.01-2.16,1.75-3.43,2.21-3.81.46-.38.7-.09.72.85.02.95-.17,2.44-.58,4.48-.41,2.04-.97,4.38-1.7,7.03-.73,2.64-1.63,5.48-2.69,8.52-1.07,3.03-2.25,6.02-3.56,8.97-1.31,2.95-2.72,5.74-4.25,8.36-1.53,2.62-3.12,4.84-4.8,6.66-1.67,1.82-3.4,3.13-5.19,3.93-1.79.81-3.6.86-5.43.17-.72-.31-1.51-.81-2.38-1.5-.87-.69-1.71-1.49-2.52-2.39-.81-.9-1.56-1.88-2.27-2.95-.71-1.07-1.29-2.15-1.74-3.24-.45-1.09-.74-2.15-.87-3.18-.13-1.04-.02-1.97.34-2.79Z"/></g><g id="Ralfie_"><path class="cls-2" d="m210.91,275.82c.64,2.04,1.31,3.9,2.01,5.57s1.27,3.14,1.7,4.41c.43,1.26.65,2.3.68,3.1.03.8-.36,1.36-1.17,1.67-.05.29-.26.16-.63-.4-.37-.56-.83-1.43-1.39-2.6-.56-1.17-1.17-2.59-1.85-4.24-.68-1.65-1.36-3.41-2.04-5.28-.69-1.87-1.34-3.79-1.98-5.79-.63-1.99-1.19-3.9-1.68-5.73-.49-1.83-.85-3.5-1.08-5.04s-.29-2.83-.16-3.89c.49-.5.97-.68,1.45-.54.47.14.87.43,1.2.85.32.43.58.93.76,1.52.09.6.13,1.17.11,1.69.07.18.21.51.4,1.01.19.49.4,1.02.63,1.58.23.56.45,1.08.66,1.57.22.49.38.82.51.99.63-.19,1.58-.46,2.83-.82,1.25-.35,2.59-.79,4.03-1.32,1.44-.53,2.9-1.11,4.39-1.77,1.49-.65,2.82-1.35,3.99-2.1s2.1-1.55,2.8-2.42c.7-.86.98-1.76.84-2.69-.01-.09-.05-.21-.12-.34l-.03-.21c-1.52-1.29-3.03-2.3-4.51-3.02-1.49-.72-3.01-1.19-4.59-1.41-1.57-.21-3.2-.26-4.89-.15-1.69.11-3.49.31-5.38.6-1.39.21-2.85.44-4.38.7-1.53.25-2.9.66-4.12,1.23-1.22.56-2.17,1.4-2.86,2.5s-.89,2.58-.61,4.44c-.42.06-.81-.02-1.18-.25-.37-.23-.7-.52-.99-.88s-.54-.75-.75-1.17c-.21-.42-.33-.79-.38-1.12-.1-.65-.05-1.29.14-1.91s.48-1.2.88-1.74c.39-.53.84-1.04,1.33-1.52.5-.48,1-.9,1.52-1.26,1.44-.5,2.72-.93,3.82-1.29,1.11-.36,2.16-.67,3.16-.94,1-.27,2.02-.49,3.06-.67s2.21-.37,3.5-.56c1.3-.2,2.68-.3,4.15-.31,1.47,0,2.97.08,4.52.28,1.55.19,3.03.53,4.45,1,1.42.47,2.73,1.11,3.91,1.9,1.19.79,2.17,1.76,2.96,2.9.79,1.14,1.3,2.47,1.53,4.01.2,1.35-.04,2.59-.72,3.74-.68,1.15-1.66,2.2-2.94,3.15-1.28.95-2.72,1.81-4.34,2.58-1.62.77-3.24,1.47-4.87,2.12-1.63.65-3.17,1.23-4.61,1.73-1.43.6-2.58,1.1-3.47,1.52,2.8,2.85,5.5,5.22,8.11,7.11,2.61,1.88,5.02,3.44,7.25,4.67,2.22,1.23,4.22,2.2,5.98,2.91,1.77.71,3.21,1.31,4.33,1.8,1.12.49,1.84.91,2.18,1.24.33.33.19.78-.44,1.35-.41.73-1.22,1.02-2.43.87-1.21-.15-2.64-.59-4.29-1.31-1.65-.72-3.44-1.66-5.37-2.82-1.93-1.16-3.84-2.37-5.74-3.65-1.9-1.28-3.72-2.55-5.45-3.81-1.73-1.26-3.19-2.37-4.38-3.33Z"/><path class="cls-2" d="m240.37,275.44c.01-.8.21-1.72.58-2.77.38-1.05.99-2.09,1.84-3.11.85-1.02,1.93-1.95,3.26-2.78,1.32-.83,2.9-1.45,4.74-1.86,1.83-.41,3.94-.52,6.32-.34,2.38.18,5.04.77,7.99,1.77,0-.04-.01-.28-.03-.7l-.1-.63c-.05-1.22-.46-2.45-1.21-3.68-.76-1.24-1.71-2.33-2.85-3.29-1.15-.96-2.36-1.73-3.65-2.31-1.29-.58-2.52-.84-3.69-.79-.47.02-.88.11-1.22.26-.35.16-.68.35-1,.57-.32.22-.63.43-.92.6-.3.18-.66.27-1.08.29-.1,0-.14-.02-.14-.06l-.15-.13c-.1-.09-.23-.2-.4-.33-.17-.13-.26-.22-.26-.27-.04-.84.08-1.58.36-2.2.28-.62.68-1.13,1.2-1.53.52-.4,1.12-.72,1.79-.96s1.38-.38,2.13-.41c1.88.11,3.7.6,5.45,1.49,1.75.89,3.37,2.03,4.86,3.42,1.49,1.39,2.82,3.02,3.98,4.87,1.16,1.85,2.15,3.78,2.96,5.79.81,2.01,1.38,4.04,1.71,6.09.37,2.15.48,4.16.33,6.05-.05,0-.19,0-.42-.02-.24-.01-.49-.02-.78-.04-.28-.01-.52-.04-.71-.08l-.35-.05c-1.08-2.16-2.26-3.9-3.53-5.2-1.28-1.31-2.53-2.32-3.76-3.04-1.23-.72-2.36-1.21-3.41-1.47-1.04-.26-1.9-.45-2.56-.56-.7.03-1.53.11-2.49.25-.96.14-1.94.34-2.96.62-1.02.28-2.05.64-3.08,1.08-1.04.44-1.95.97-2.75,1.56-.8.6-1.42,1.29-1.88,2.09-.46.79-.66,1.71-.62,2.74.05,1.12.53,2.05,1.46,2.79.92.74,2.03,1.32,3.31,1.76,1.29.44,2.59.72,3.91.85,1.32.13,2.38.18,3.17.15,1.31-.06,2.6-.18,3.85-.38,1.26-.2,2.5-.41,3.74-.65,1.23-.24,2.45-.46,3.67-.65,1.21-.19,2.43-.32,3.64-.37.09,0,.26-.01.49-.02.23-.01.48,0,.74,0,.26.01.49.01.7,0s.36-.02.46-.02c.38.12.6.33.66.61.06.28.09.56.11.84.01.28-.27.6-.84.95-.57.35-1.32.71-2.24,1.08-.92.37-1.95.75-3.08,1.16-1.13.4-2.22.74-3.26,1.02-1.04.28-2.02.52-2.92.73-.91.2-1.55.31-1.92.33-1.97.08-4.06.01-6.27-.22-2.22-.23-4.25-.74-6.12-1.53-1.86-.79-3.43-1.93-4.69-3.43-1.26-1.5-1.94-3.46-2.05-5.9Z"/><path class="cls-2" d="m278.14,285.74c-.41-3.34-.64-6.67-.7-9.98-.06-3.31-.06-6.63,0-9.96s.16-6.64.32-9.92c.15-3.28.23-6.57.24-9.85,0-.38.15-.63.44-.77.28-.14.61-.2.99-.19.42,0,.79.17,1.12.48.32.31.6.69.82,1.14.23.45.39.9.5,1.35s.16.81.16,1.09c.16,6.72.25,12.32.27,16.8.01,4.48-.05,8.1-.19,10.84-.14,2.74-.33,4.77-.56,6.08-.23,1.31-.52,2.2-.86,2.66-.34.46-.73.64-1.17.54-.45-.1-.9-.2-1.37-.31Z"/><path class="cls-2" d="m308.55,265.39c.98.07,1.37.56,1.17,1.49.39.54.34,1.02-.13,1.44-.47.42-1.23.7-2.28.84s-2.33.15-3.88.03c-1.54-.12-3.21-.44-5.01-.93-.12,1.78.18,3.47.9,5.07s1.52,3.13,2.41,4.6c.89,1.47,1.71,2.89,2.47,4.25.76,1.37,1.09,2.71,1,4.02-.04.61-.25,1-.64,1.16-.29.17-.72.23-1.28.2-.47-.03-.96-.24-1.47-.63-.52-.39-.98-.85-1.39-1.4-.41-.54-.79-1.11-1.12-1.7-.29-.58-.52-1.07-.68-1.46-.16-.39-.4-.94-.7-1.67-.3-.73-.66-1.57-1.07-2.54s-.81-1.97-1.21-3.01c-.4-1.04-.79-2.04-1.18-3.01-.38-.96-.71-1.83-.99-2.61-.33-.73-.55-1.28-.67-1.67l-.72-.82c-.24.08-.68.16-1.32.23-.64.08-1.31.16-2.02.25-.71.09-1.4.19-2.06.29-.66.1-1.14.14-1.42.12l-.35-.02c-.37-.03-.62-.17-.75-.44-.12-.27-.17-.59-.15-.96.05-.8.37-1.39.96-1.77.59-.38,1.29-.64,2.09-.78.81-.13,1.65-.21,2.52-.22.87-.01,1.59-.02,2.15-.03,0-1.41.04-3.08.12-5,.08-1.92.3-3.91.67-5.95.37-2.04.89-4.05,1.56-6,.67-1.96,1.56-3.7,2.67-5.22,1.11-1.52,2.47-2.73,4.08-3.61s3.53-1.25,5.78-1.1c1.26.08,2.62.49,4.08,1.22,1.46.73,2.79,1.65,4.01,2.77,1.22,1.12,2.21,2.35,2.96,3.69.76,1.34,1.09,2.67,1.01,3.98l-1.61-.11c-.94-.06-1.74-.47-2.42-1.22-.68-.75-1.39-1.58-2.12-2.5-.74-.92-1.53-1.76-2.37-2.52-.84-.76-1.83-1.18-2.95-1.25-1.59-.1-3.06.15-4.42.77-1.36.62-2.54,1.48-3.55,2.59-1.01,1.11-1.8,2.38-2.36,3.8s-.89,2.88-.99,4.38l-.05.7.6,10.13c.09.1.34.2.76.3.42.1,1.08.24,1.98.41s2.11.39,3.62.63c1.51.24,3.43.51,5.76.8Z"/><path class="cls-2" d="m315.66,246.45c.07-.56.27-.9.62-1.02.34-.12.77-.16,1.29-.09.33,0,.74.24,1.22.75.48.51.86,1.06,1.15,1.66.28.6.42,1.14.41,1.61-.02.56-.41.85-1.16.85l-.35-.04c-.7-.08-1.27-.2-1.73-.35-.46-.15-.8-.34-1.03-.58-.23-.24-.38-.58-.45-1.01-.07-.43-.05-1.02.04-1.77Zm1.45,17.97c.02-.19.06-.54.12-1.05.06-.51.14-1.05.23-1.6.09-.56.17-1.09.23-1.6.06-.51.1-.86.13-1.05-.01-1.47.49-2.14,1.52-2.02.46.06.85.22,1.15.49.3.27.56.66.78,1.16-.43,2.41-.61,4.76-.53,7.06.08,2.3.2,4.59.38,6.85.18,2.27.33,4.54.46,6.83.12,2.28.04,4.64-.25,7.06-.08.65-.35,1.28-.83,1.89-.47.61-1.11.86-1.9.76-.61-.07-1.07-.66-1.38-1.76s-.54-2.48-.67-4.12c-.13-1.65-.2-3.46-.2-5.45s.05-3.88.15-5.69c.1-1.81.21-3.42.34-4.85.12-1.43.22-2.4.28-2.91Z"/><path class="cls-2" d="m326.47,270.78c.45-2.4,1.25-4.62,2.38-6.68s2.53-3.78,4.2-5.19c1.67-1.4,3.58-2.41,5.73-3.03s4.51-.69,7.09-.2c1.48.47,2.73,1.14,3.74,2,1.01.86,1.78,1.83,2.31,2.91.54,1.08.85,2.27.93,3.58.05,1.25-.06,2.57-.32,3.95-.31,1.66-1.08,3.07-2.3,4.22s-2.65,2.04-4.3,2.66c-1.65.62-3.37,1.01-5.16,1.17-1.8.16-3.43.1-4.9-.18-.55-.11-1.12-.21-1.69-.32-.58-.11-1.08-.3-1.5-.57s-.74-.62-.95-1.04c-.21-.42-.24-1-.1-1.74.04-.23.12-.42.21-.57.1-.15.32-.23.65-.23.33,0,.82.07,1.46.24.63.21,1.48.52,2.55.91.64.12,1.62.08,2.92-.13,1.3-.21,2.65-.53,4.05-.99,1.4-.45,2.64-1.04,3.73-1.76,1.09-.72,1.72-1.52,1.89-2.4.17-.92.2-1.86.07-2.82-.13-.96-.43-1.84-.89-2.64-.47-.81-1.07-1.49-1.79-2.06-.73-.57-1.61-.9-2.64-1-1.64-.17-3.18,0-4.64.48-1.45.49-2.75,1.23-3.89,2.24-1.15,1-2.11,2.17-2.88,3.5-.78,1.33-1.32,2.79-1.61,4.35-.23,1.2-.43,2.4-.61,3.61-.18,1.21-.23,2.42-.15,3.63.08,1.21.35,2.41.82,3.6.47,1.19,1.26,2.3,2.37,3.35,1.11,1.05,2.59,2.02,4.42,2.92,1.83.9,4.17,1.69,6.99,2.37l12.52,1.52c-.93.88-2.02,1.53-3.27,1.96-1.25.43-2.55.72-3.89.88-1.34.15-2.65.2-3.93.15s-2.47-.18-3.58-.39c-2.67-.51-5.1-1.42-7.28-2.74-2.18-1.32-4.02-2.95-5.51-4.88-1.49-1.93-2.54-4.14-3.15-6.62-.6-2.48-.63-5.15-.09-8.01Z"/></g></svg>