<?xml version="1.0" encoding="UTF-8"?><svg id="play_button" xmlns="http://www.w3.org/2000/svg" width="385" height="116" viewBox="0 0 385 116"><defs><style>.cls-1{fill:#f2bde9;}.cls-1,.cls-2,.cls-3,.cls-4{stroke-width:0px;}.cls-2{fill:#bfbfbf;}.cls-3{fill:#0d0d0d;}.cls-4{fill:#fff;}</style></defs><g id="play_button_with_paw"><path class="cls-4" d="m360.08,57.46c-.44,5.8,8.33,7.45,17.02,20.1,3.63,5.27,8.97,13.54,7.01,21.1-2.84,10.95-20.27,16.98-34.05,17.08-18.38.14-22.83-10.32-46.07-18.09-10.86-3.63-25.08-4.14-53.08-5.02-32.76-1.03-57.71-.19-63.09,0-53.98,1.91-80.97,2.87-100.14,10.05-5.98,2.24-14.97,6.03-28.04,7.03-7.53.58-35.76,2.78-46.07-14.07-.33-.54-6.38-10.75-3-21.1,3.39-10.42,13.37-11.92,13.02-18.09-.45-7.92-17.03-8.27-22.03-19.09C-2.54,28.47,1.89,14.51,9.58,7.21c18.7-17.75,53.36,7.08,121.18,12.06,14.59,1.07,28.76.38,57.08-1,24.21-1.18,38.37-2.98,95.69-9.18C349.65,1.94,370.01.01,378.11,12.24c4.64,7,5.93,19.63,1,28.14-5.87,10.13-18.5,10.18-19.03,17.08Z"/><path class="cls-2" d="m76.67,11.23c-.02.12-.47-1.27-10.01-2.01-28.45-2.19-42.68-3.29-52.08,3.01C3.89,19.41.56,31.33.56,31.33c-1.36-.6-.21-15.72,9.01-24.12,19.54-17.81,67.33,2.82,67.1,4.02Z"/><path class="cls-2" d="m381.12,37.36c-4.04,12.47-18.29,20.43-21.03,18.09-3.6-3.09,14.91-22.17,8.01-34.17-2.83-4.93-9.63-8.06-16.02-11.05-13.26-6.21-23.06-5.14-23.03-6.03.06-1.76,38.67-7.98,49.07,8.04,1.18,1.81,3.28,6.29,4.01,12.06.2,1.61.87,7.29-1,13.06Z"/><path class="cls-2" d="m16.59,85.6c.58,10.64,5.15,16.34,4.01,17.08-1.4.9-10.59-6.07-12.02-16.08-.82-5.74.84-13.01,5.01-18.09,2.25-2.74,3.83-3.14,5.01-6.03,2.4-5.91-1.35-11.29,0-12.06,1.5-.86,8.43,4.49,8.01,10.05-.32,4.35-4.85,4.75-8.01,11.05-2.5,4.97-2.23,9.8-2,14.07Z"/><path class="cls-2" d="m384.12,98.66c-4.76,14.47-26.41,17.28-27.04,16.08-.5-.95,11.37-5.27,15.02-17.08.62-2,1.29-4.18,1-7.03-1.09-10.76-13.97-12.24-16.02-23.11-1.19-6.32,1.96-12.12,3-12.06.89.05.1,6.17,4.01,9.04.9.66,1.72.91,2,1,4.81,1.64,23.1,17.73,18.03,33.16Z"/><path class="cls-2" d="m329.04,4.2c.25,1.36-50.6,14.28-114.17,20.1-49.02,4.49-76.17,2.07-98.14-2.01-26.28-4.88-46.25-12.33-46.07-13.06.22-.87,28.67,8.06,69.1,10.05,13.41.66,23.88.35,32.05,0,71.47-3.04,156.91-16.82,157.23-15.07Z"/><path class="cls-2" d="m357.08,114.74c.06-.85-8.27-.79-19.03-5.02-8.88-3.49-14.6-8.01-16.02-9.04-18.6-13.55-84.62-13.35-126.18-13.06-32.04.22-67.27.64-88.13,7.03-3.9,1.19-13.13,4.39-29.04,9.04-11.08,3.25-19.17,5.38-19.03,6.03.12.58,6.62-.36,11.02-1,16.26-2.4,23.95-6.8,35.05-10.05,6.47-1.89,16.33-2.6,36.05-4.02,13.04-.94,25.57-1.28,38.49-1.68,4.32-.13,8.72-.24,13.59-.33,20.6-.39,30.9-.58,45.07,0,39.84,1.63,59.77,2.44,73.11,11.05,4.32,2.79,11.99,8.53,24.03,11.05,10.99,2.3,20.97.92,21.03,0Z"/><path class="cls-3" d="m168.73,61.86c-.44-.78-.81-1.8-1.1-3.04s-.55-2.54-.75-3.89c-.2-1.35-.37-2.62-.49-3.82-.13-1.19-.25-2.14-.38-2.83v-8.1c0-.35.14-.67.42-.97.28-.3.59-.45.94-.45h.42c.12.85.22,1.72.28,2.61.06.89.12,1.78.16,2.66.05.88.15,1.76.31,2.64.12.88.33,1.73.61,2.54.5.13,1.05.22,1.64.28.56,0,1.22.03,1.97.09.81,0,1.7-.13,2.65-.4.95-.27,1.84-.65,2.65-1.15.81-.5,1.49-1.12,2.04-1.86.55-.74.82-1.56.82-2.47,0-1-.33-1.89-.99-2.66s-1.5-1.45-2.54-2.05-2.18-1.11-3.43-1.55c-1.25-.44-2.48-.79-3.69-1.06-1.21-.27-2.32-.46-3.36-.59-1.03-.13-1.83-.19-2.39-.19-.19,0-.53-.02-1.03-.05-.5-.03-1.06-.04-1.67-.02-.61.02-1.2.06-1.76.12-.56.06-1,.19-1.31.38-.28.16-.54.44-.77.85s-.46.82-.68,1.25c-.22.42-.45.79-.68,1.11-.23.31-.49.47-.77.47h-.09s-.08-.02-.14-.05c-.06-.03-.11-.08-.14-.14-.03-.06-.07-.22-.12-.47-.05-.25-.09-.61-.12-1.08-.03-.47-.05-1.11-.05-1.93,0-.35.16-.67.49-.97.33-.3.77-.56,1.31-.78.55-.22,1.13-.42,1.76-.59.63-.17,1.23-.31,1.81-.42.58-.11,1.09-.2,1.55-.26.45-.06.76-.09.92-.09,1.06,0,2.31.06,3.73.19,1.42.13,2.89.35,4.41.68,1.52.33,3.02.77,4.51,1.32,1.49.55,2.81,1.22,3.97,2.03,1.16.8,2.11,1.77,2.86,2.9.72,1.1,1.08,2.4,1.08,3.91.16,1.07-.03,2.05-.56,2.94-.53.89-1.26,1.7-2.18,2.4-.92.71-1.96,1.32-3.12,1.84-1.16.52-2.28.93-3.38,1.22-1.1.3-2.08.49-2.96.57-.88.08-1.49.04-1.83-.12v.42c0,1.1.09,2.18.28,3.25.19,1.07.28,2.15.28,3.25,0,.13-.02.32-.05.59-.03.27-.1.53-.21.78-.11.25-.25.46-.42.61-.17.16-.42.2-.73.14Z"/><path class="cls-3" d="m186.38,61.48c-.31-2.23-.51-4.45-.59-6.67-.08-2.21-.12-4.43-.12-6.67s.03-4.44.09-6.64c.06-2.2.08-4.4.05-6.59,0-.25.09-.42.28-.52.19-.09.41-.14.66-.14.28,0,.53.1.75.31.22.21.41.46.56.75.16.3.27.6.35.9.08.3.12.54.12.73.19,4.49.31,8.24.38,11.24.06,3,.06,5.42,0,7.25-.06,1.84-.16,3.2-.31,4.07-.14.88-.32,1.48-.54,1.79-.22.31-.48.44-.77.38-.3-.06-.6-.12-.92-.19Z"/><path class="cls-3" d="m191.12,53.9c.03-.53.19-1.15.47-1.84s.72-1.37,1.31-2.03c.59-.66,1.35-1.25,2.25-1.77.91-.52,1.98-.89,3.22-1.11,1.24-.22,2.64-.24,4.23-.05,1.58.19,3.34.66,5.28,1.41v-.47l-.05-.42c0-.82-.23-1.65-.7-2.5-.47-.85-1.07-1.61-1.81-2.29-.74-.67-1.53-1.22-2.37-1.65-.85-.42-1.66-.64-2.44-.64-.31,0-.59.05-.82.14-.23.09-.46.21-.68.35-.22.14-.43.27-.63.38-.2.11-.45.17-.73.17-.06,0-.09-.02-.09-.05-.03-.03-.06-.06-.09-.09-.06-.06-.15-.14-.26-.24-.11-.09-.16-.16-.16-.19,0-.57.1-1.05.31-1.46.2-.41.48-.74.85-.99.36-.25.77-.45,1.22-.59.45-.14.93-.21,1.43-.21,1.25.12,2.45.51,3.59,1.15,1.14.64,2.19,1.45,3.15,2.43.95.97,1.79,2.1,2.51,3.37.72,1.27,1.32,2.59,1.81,3.96.48,1.37.81,2.74.96,4.12.19,1.45.2,2.8.05,4.05-.03,0-.13,0-.28-.02-.16-.02-.33-.03-.52-.05-.19-.01-.34-.04-.47-.07l-.23-.05c-.66-1.48-1.39-2.67-2.21-3.58-.81-.91-1.62-1.62-2.42-2.14s-1.54-.88-2.23-1.08c-.69-.2-1.25-.35-1.69-.45-.47,0-1.03.03-1.67.09-.64.06-1.31.17-1.99.33-.69.16-1.39.37-2.09.64s-1.33.59-1.88.96c-.55.38-.99.83-1.31,1.34-.33.52-.49,1.12-.49,1.81,0,.75.3,1.39.89,1.91.59.52,1.31.94,2.16,1.27.85.33,1.71.56,2.58.68.88.13,1.58.19,2.11.19.88,0,1.74-.05,2.58-.14.84-.09,1.68-.2,2.51-.33.83-.12,1.65-.24,2.46-.33.81-.09,1.63-.14,2.44-.14h.33c.16,0,.32,0,.49.02.17.02.33.02.47.02h.31c.25.09.39.24.42.42.03.19.05.38.05.57s-.2.39-.59.61c-.39.22-.9.44-1.53.66-.63.22-1.32.45-2.09.68-.77.24-1.5.43-2.21.59-.7.16-1.36.29-1.97.4-.61.11-1.04.17-1.29.17-1.31,0-2.71-.11-4.18-.33-1.47-.22-2.82-.62-4.04-1.2-1.22-.58-2.23-1.39-3.03-2.43-.8-1.04-1.2-2.37-1.2-4Z"/><path class="cls-3" d="m216.71,76.56v-.64c0-.21.03-.38.09-.52.06-.14.16-.26.28-.35.19-.06.41-.09.66-.09.47.53,1.07,1.22,1.81,2.05.73.83,1.57,1.64,2.51,2.43.94.78,1.92,1.48,2.96,2.07s2.08.9,3.15.9c.88-.03,1.63-.26,2.25-.68.63-.42,1.16-.98,1.6-1.67.44-.69.8-1.48,1.08-2.36.28-.88.51-1.77.68-2.69.17-.91.3-1.79.38-2.64.08-.85.16-1.59.26-2.21.06-.31.13-.84.21-1.58.08-.74.16-1.55.23-2.45.08-.9.14-1.83.19-2.8.05-.97.04-1.86-.02-2.66-.06-.8-.19-1.46-.38-1.98-.19-.52-.47-.78-.84-.78-.53,0-1.1.16-1.69.47-.59.31-1.21.67-1.85,1.06-.64.39-1.29.75-1.95,1.06-.66.31-1.3.47-1.92.47-1.19,0-2.28-.24-3.26-.73-.99-.49-1.89-1.12-2.7-1.91-.81-.78-1.53-1.7-2.16-2.76-.63-1.05-1.15-2.14-1.57-3.27-.42-1.13-.74-2.26-.94-3.39-.2-1.13-.31-2.2-.31-3.2,0-.22-.02-.58-.07-1.08-.05-.5-.04-1.02.02-1.55.06-.53.2-1,.42-1.41.22-.41.56-.61,1.03-.61.12,0,.23.25.31.75.08.5.17,1.15.28,1.96.11.8.25,1.72.42,2.76.17,1.04.4,2.09.68,3.16.28,1.07.63,2.12,1.03,3.16.41,1.04.91,1.96,1.5,2.76.59.8,1.31,1.45,2.14,1.96.83.5,1.78.75,2.84.75.69,0,1.41-.15,2.16-.45.75-.3,1.46-.68,2.14-1.15.67-.47,1.29-1,1.85-1.6.56-.63,1-1.24,1.31-1.84,0-.12-.02-.42-.05-.89-.03-.47-.06-1.01-.09-1.62-.03-.61-.06-1.28-.09-2-.03-.72-.06-1.41-.09-2.05-.03-.64-.06-1.2-.07-1.67-.02-.47-.02-.77-.02-.9.06-1.92.2-3.08.42-3.51.22-.42.48-.29.8.4.31.69.64,1.85.99,3.49.34,1.63.66,3.54.96,5.72.3,2.18.53,4.56.7,7.14.17,2.58.24,5.16.21,7.75-.03,2.59-.2,5.09-.49,7.51-.3,2.42-.77,4.56-1.43,6.43-.66,1.87-1.52,3.38-2.58,4.55-1.06,1.16-2.38,1.77-3.94,1.84-.63,0-1.37-.12-2.23-.35-.86-.24-1.73-.56-2.6-.97-.88-.41-1.75-.89-2.61-1.46-.86-.57-1.63-1.18-2.3-1.84-.67-.66-1.22-1.35-1.64-2.07-.42-.72-.63-1.44-.63-2.17Z"/><circle class="cls-1" cx="295.51" cy="59.82" r="6.23"/><circle class="cls-1" cx="284.48" cy="43.24" r="9.68"/><circle class="cls-1" cx="262.84" cy="37.85" r="9.68"/><path class="cls-1" d="m286.56,87.65c-3,2.08-8.21-6.37-22.58-9.74-14.15-3.32-22.43,1.75-24.09-1.37-2.72-5.08,14.15-28.37,30.84-24.16,16.44,4.15,20.62,31.95,15.83,35.27Z"/><circle class="cls-1" cx="244.47" cy="46.11" r="6.64"/></g></svg>