<?xml version="1.0" encoding="UTF-8"?><svg id="Bowl" xmlns="http://www.w3.org/2000/svg" width="134" height="87" viewBox="0 0 134 87"><defs><style>.cls-1{fill:#e48765;}.cls-1,.cls-2,.cls-3,.cls-4,.cls-5,.cls-6,.cls-7,.cls-8,.cls-9{stroke-width:0px;}.cls-2{fill:#dc8261;}.cls-3{fill:#ed8c69;}.cls-4{fill:#ba6e52;}.cls-5{fill:#f6916d;}.cls-6{fill:#eb8b68;}.cls-7{fill:#f2f2f2;}.cls-8{fill:#eb695c;}.cls-9{fill:#db8161;}</style></defs><path class="cls-8" d="m133.85,65.74c.33,1.53,0,3.03,0,3.03-.2,1.31-.64,2.34-1,3.03-.99,1-2.58,2.83-4.99,4.05-3.99,2.02-7.69,3.37-9.97,4.05-26.13,7.8-48.86,7.08-48.86,7.08-11.21.07-27.8-1.27-46.87-5.06-9.33-1.85-20.84-4.85-21.94-11.13-.14-.82-.08-1.53,0-2.02,0,0,0,0,0,0,0-.03-.17-1.01,0-2.02,2.47-14.51,55.53-14.81,68.25-14.89,16.45-.09,62.26-.36,65.38,13.87Z"/><path class="cls-6" d="m133.35,65.07c0,8.61-36.02,17.2-66.68,17.19C36.1,82.26,0,73.69,0,65.07c0-8.67,36.47-17.37,67.69-17.19,30.02.17,65.67,8.63,65.67,17.19Z"/><path class="cls-9" d="m125.87,63.72c-6.67,2.21-13.99,4.29-21.94,6.07-13.16,2.94-25.28,4.42-35.9,5.06-8.91.39-20.61-.03-33.91-3.03-9.62-2.17-17.8-5.19-24.36-8.14.42-7.48,1.18-15.59,2.43-24.23,1.24-8.58,2.79-16.52,4.49-23.77,6.59,4.39,23.56,14.43,47.37,14.67,25.38.26,43.41-10.77,49.86-15.17,2.47,7.01,4.86,14.78,6.98,23.26,2.26,9.04,3.85,17.52,4.99,25.28Z"/><path class="cls-2" d="m113.91,16.19c0,8.61-25.17,16.19-47.87,16.18-22.64,0-49.86-7.56-49.86-16.18C16.18,7.52,42.68-.18,65.79,0c22.23.17,48.11,7.61,48.12,16.18Z"/><path class="cls-4" d="m109.92,17.2c0,3.87-4.99,5.91-11.97,8.09-8.57,2.68-20.4,5.06-32.91,5.06-10.71,0-19.47-1.83-27.92-4.05-9.41-2.47-17.95-5.57-17.95-10.11,0-8.67,24.75-14.34,47.87-14.16,22.23.17,42.88,6.6,42.88,15.17Z"/><path class="cls-3" d="m96.46,71.31c-7.72,2.04-17.52,3.84-28.92,4.05-6.63.12-12.66-.32-17.95-1.01-.31-5.82-.38-12.26,0-19.22.49-9.04,1.62-17.18,2.99-24.27,6.02,1.03,13.85,1.76,22.94,1.01,6.55-.54,12.25-1.73,16.95-3.03,1.2,8.7,2.22,17.81,2.99,27.31.42,5.17.75,10.23,1,15.17Z"/><path class="cls-1" d="m125.87,63.72c-2.66.67-5.32,1.35-7.98,2.02-.62-6.29-1.44-12.88-2.49-19.72-1.3-8.41-2.83-16.34-4.49-23.77.66-2.02,1.33-4.05,1.99-6.07-.2-1.59-.12-1.99,0-2.02.77-.2,5.36,14.14,8.48,26.8,2.26,9.2,3.64,17.04,4.49,22.76Z"/><path class="cls-1" d="m15.68,66.25c-1-.34-1.99-.67-2.99-1.01s-1.99-.67-2.99-1.01c.29-9.85,1.14-18.05,1.99-24.27,1.92-14.03,4.95-26.13,4.99-26.3h0v4.05h0c.24,1.01.77,1.73,1,2.02.21.28.51.6,1,1.01,1.1.92,2.75,1.88,2.99,2.02-2.04,7.17-3.9,15.66-4.99,25.28-.75,6.58-1.01,12.69-1,18.21Z"/><path class="cls-5" d="m110.42,21.75c-2.46,1.67-5.79,3.57-9.97,5.06-2.96,1.05-5.67,1.66-7.98,2.02.34,3.02.68,6.05,1,9.1,1.19,11.3,2.18,22.43,2.99,33.38,4.4-.75,9.07-1.74,13.96-3.03,2.42-.64,4.74-1.32,6.98-2.02-.32-6.23-.94-13.01-1.99-20.23-1.31-8.94-3.07-17.06-4.99-24.27Z"/><ellipse class="cls-7" cx="67.54" cy="53.1" rx="16.45" ry="16.69"/></svg>