<?xml version="1.0" encoding="UTF-8"?><svg id="ralfie" xmlns="http://www.w3.org/2000/svg" width="670" height="390" viewBox="0 0 670 390"><defs><style>.cls-1{fill:#e48765;}.cls-1,.cls-2,.cls-3,.cls-4,.cls-5,.cls-6,.cls-7,.cls-8,.cls-9,.cls-10,.cls-11,.cls-12,.cls-13,.cls-14{stroke-width:0px;}.cls-2{fill:#f2bde9;}.cls-3{fill:#dc8261;}.cls-4{fill:#ed8c69;}.cls-5{fill:#ccc;}.cls-6{fill:#0d0d0d;}.cls-7{fill:#fff;}.cls-8{fill:#ba6e52;}.cls-9{fill:#f6916d;}.cls-10{fill:#eb8b68;}.cls-11{fill:#fa946f;}.cls-12{fill:#de8362;}.cls-13{fill:#eb695c;}.cls-14{fill:#db8161;}</style></defs><path class="cls-7" d="m416.38,265.2c-.55.75-2,2.69-3.99,4.99-53.8,62.2-205.45,45.35-218.67,3-.85-2.73-.97-5.06-1-5.99,1.75-11.73,4.95-26.14,10.98-41.93,4.64-12.16,9.95-22.49,14.98-30.95,17.32,5.32,42.86,10.94,73.89,9.98,43.13-1.33,76.26-14.71,94.86-23.96,7.29,12.3,13.69,21.81,17.97,27.96,12.4,17.78,18.44,23.64,18.97,33.95.51,9.92-4.39,18.13-7.99,22.96Z"/><path class="cls-2" d="m670,390H0v-130.79c141.12,1.66,282.25,3.33,423.37,4.99,33.98,4.12,87.79,14.99,145.78,46.93,46.74,25.74,79.74,56.1,100.85,78.88Z"/><path class="cls-5" d="m398.62,152.85c-2.72,33.88-62.36,56.21-107.67,57.05-34.56.64-91.92-10.64-98.99-45.64-3.15-15.62,4.9-30.05,13.02-44.6,2.52-4.51,35.86-62.13,92.04-59.13,35.93,1.92,59.16,27.46,73.81,43.57,16.17,17.77,29.13,32.02,27.79,48.75Z"/><path class="cls-7" d="m413.38,149.38c-3.12,32.61-71.71,54.1-123.82,54.91-39.74.62-105.7-10.24-113.83-43.93-3.63-15.03,5.63-28.92,14.98-42.93,2.89-4.34,41.24-59.8,105.84-56.91,41.32,1.85,68.03,26.43,84.87,41.93,18.59,17.11,33.5,30.82,31.95,46.93Z"/><path class="cls-11" d="m402.4,123.42c-.95,1.21-2.81,3.5-5.99,4.99-5.71,2.68-10.8.5-15.98,0-9.7-.94-16.46,4.35-21.97,6.99-19.33,9.25-36.01-8.11-70.89-6.99-32.87,1.05-47.28,17.4-63.9,7.99-3.93-2.23-10.88-7.53-21.97-8.99-8.47-1.11-10.9,1.13-14.98-1-10.37-5.42-8.6-27.24-7.99-36.94.55-8.7,2.03-32.57,17.52-40.7,1.81-.95,3.42-1.49,4.51-1.8,0,0,4.33-1.26,9.03-.9,3.3.25,5.49,1.31,17.15,8.12,9.59,5.61,12.54,7.47,16.25,10.83,1.98,1.79,3.51,3.4,4.51,4.51,4.1-2.43,9.07-4.93,14.91-7.02,12.67-4.53,24.06-5.22,31.95-4.99,6.06.57,12.77,1.51,19.97,3,6.98,1.44,13.33,3.18,18.97,4.99,13.31-6.32,26.63-12.65,39.94-18.97,2.68-.91,11.94-3.7,19.97,1,6.13,3.59,8.14,9.55,10.98,17.97,3.34,9.91,3.23,19.25,3,37.94-.09,7.47-.46,14.25-4.99,19.97Z"/><path class="cls-6" d="m265.6,119.43c1.01-1.33-6.72-13.59-17.97-13.98-11.35-.39-19.94,11.51-18.97,12.98.83,1.27,8.44-5.76,19.97-4.99,10.26.68,16.18,7.04,16.97,5.99Z"/><path class="cls-6" d="m343.34,144.6c.61,1.29,10.89-.59,17.38-2.23,7.11-1.81,16.88-5.17,16.42-6.52-.42-1.24-9.46-.73-17.29,1.18-8.8,2.15-17.09,6.33-16.51,7.57Z"/><path class="cls-6" d="m342.97,150.72c-.02,1.38,10.41,2.64,17.2,3,7.44.4,18.08.12,18.26-1.27.17-1.27-8.47-3.45-16.64-3.95-9.18-.57-18.8.9-18.83,2.22Z"/><path class="cls-6" d="m342.71,156.66c-.33,1.36,9.67,4.05,16.28,5.36,7.24,1.43,17.77,2.65,18.26,1.31.45-1.23-7.59-4.58-15.51-6.22-8.91-1.85-18.71-1.75-19.02-.45Z"/><path class="cls-12" d="m359.46,62.52c11-6.28,19.03-10.87,25.96-7.99,7.77,3.23,9.68,13.98,11.98,26.96,2.03,11.46,3.89,33.16-2,34.94-4.19,1.27-7.02-9.15-20.97-20.97-15.85-13.43-29.1-14.29-28.96-20.97.09-4.04,5.01-6.86,13.98-11.98Z"/><path class="cls-12" d="m239.76,74.88c.03-3.54-4.9-6.27-14.09-11.36-9.25-5.12-13.87-7.69-17.97-6.99-13,2.21-18.94,27.73-17.97,44.93.21,3.66.68,12.14,3.99,12.98,4.26,1.08,7.1-12.04,19.97-22.96,13.15-11.16,26.03-10.89,26.07-16.59Z"/><path class="cls-6" d="m310.14,119.7c-1.01-1.33,6.72-13.59,17.97-13.98,11.35-.39,19.94,11.51,18.97,12.98-.83,1.27-8.44-5.76-19.97-4.99-10.26.68-16.18,7.04-16.97,5.99Z"/><path class="cls-6" d="m259.61,145.39c-1.32.94.46,8.74,5.96,12.14,6.84,4.23,16.94.11,20.76-5.41.52-.75,1.33-1.95.9-2.71-1.13-2.02-9.54,4.2-18.05,1.8-6.01-1.69-8.44-6.63-9.57-5.83Z"/><path class="cls-6" d="m290.04,149.31c-.38.45.76,1.88.53,2.07-.24.2-1.26-1.34-2.33-1.16-1.06.17-1.57,1.9-1.81,1.8-.26-.11.67-2.1,0-2.71-.54-.49-1.76.25-1.85.07-.11-.23,1.53-1.95,3.66-1.87,1.98.07,3.44,1.66,3.33,1.87-.09.17-1.21-.45-1.53-.07Z"/><path class="cls-6" d="m317.53,144.39c1.25.92-.79,8.99-6.73,12.34-6.87,3.88-16.42.01-20.04-5.23-.5-.73-1.28-1.88-.87-2.61,1.1-1.96,9.12,3.87,17.43,1.74,6.44-1.65,9.11-7.04,10.21-6.24Z"/><path class="cls-6" d="m237.43,145.52c-.61,1.29-10.89-.59-17.38-2.23-7.11-1.81-16.88-5.17-16.42-6.52.42-1.24,9.46-.73,17.29,1.18,8.8,2.15,17.09,6.33,16.51,7.57Z"/><path class="cls-6" d="m237.8,151.64c.02,1.38-10.41,2.64-17.2,3-7.44.4-18.08.12-18.26-1.27-.17-1.27,8.47-3.45,16.64-3.95,9.18-.57,18.8.9,18.83,2.22Z"/><path class="cls-6" d="m238.07,157.59c.33,1.36-9.67,4.05-16.28,5.36-7.24,1.43-17.77,2.65-18.26,1.31-.45-1.23,7.59-4.58,15.51-6.22,8.91-1.85,18.71-1.75,19.02-.45Z"/><path class="cls-7" d="m277.59,286.16c-2.08-.29-3.65-.26-4.6-.4-16.25-2.42-27.33-5.19-35.34-6.59-22.39-3.93-30.97,1.03-38.94-6.99-2.8-2.81-4.24-5.93-4.99-7.99-.29-3.44.46-5.73,1-6.99,7.78-18.09,55.11-12.46,58.91-11.98,2.48.31,6.36.83,10.98,2,13.58,3.42,23.93,9.68,30.95,14.98,1.05.81,7.61,6.01,6.99,11.98-.72,6.89-10.92,13.96-24.96,11.98Z"/><path class="cls-7" d="m424.37,242.23c.67,3.69,2.91,17.49-3,20.97-1.13.67-3.41,1.11-7.99,1-9.81-.24-12.77-.01-18.97,1-1.84.3-2.9.11-4.99,1-3.16,1.35-9.76,2.23-22.97,3.99-6.08.81-16.52,1.45-31.95-1,.67-3,1.33-5.99,2-8.99,2.69-3.59,12.36-15.6,29.96-19.97,8.7-2.16,14.27.96,31.95,2,10.9.64,19.91.36,25.96,0Z"/><path class="cls-5" d="m253.62,245.23c-.02.06,41.94,15.92,46.93,24.96.25.46,1.65,3.14,2,3,.29-.12-.13-2.17-1-3.99,0,0-.79-1.67-2-3-8.3-9.15-31.95-16.97-31.95-16.97-10.87-3.6-13.98-4.01-13.98-3.99Z"/><path class="cls-5" d="m288.57,270.19c-.22.35,1.88,1.66,4.99,4.99,3.53,3.78,4.64,6.18,4.99,5.99.46-.25-.6-4.82-3.99-7.99-2.52-2.36-5.73-3.39-5.99-3Z"/><path class="cls-5" d="m282.58,276.18c-.51.48,2.63,4.52,3,4.99.32.42,3.4,4.37,3.99,3.99.43-.28-.48-2.89-2-4.99-1.85-2.57-4.59-4.38-4.99-3.99Z"/><path class="cls-5" d="m274.59,280.17c-.33.24.85,2.44,2,3.99.08.11,1.65,2.2,2,2,.28-.16-.25-1.74-1-3-1.04-1.76-2.69-3.22-3-3Z"/><path class="cls-5" d="m394.41,244.23c-.04.17-3.88-.62-5.99-1-5.84-1.03-16.82-2.98-27.96,1-9.7,3.46-18.61,11.11-22.96,19.48-.97,1.88-2.66,5.61-3,5.48-.32-.13.46-3.64,2-6.99,2.61-5.68,6.74-9.23,9.99-11.98,1.53-1.29,3.8-3.21,6.99-4.99,12.35-6.91,25.7-4.7,29.96-3.99,5.72.95,11.03,2.79,10.98,3Z"/><path class="cls-5" d="m352,259.39c.22.37-2.33,1.61-4.99,4.99-2.61,3.31-3.16,5.93-3.52,5.81-.45-.15-.33-4.67,2.52-7.81,2.33-2.56,5.75-3.4,5.99-3Z"/><path class="cls-5" d="m360.46,261.2c.18.23-2.12,1.66-3.99,4.99-1.59,2.83-1.74,5.04-2,4.99-.3-.06-.59-3.22,1-5.99,1.68-2.92,4.79-4.24,4.99-3.99Z"/><path class="cls-5" d="m370.45,264.2c.16.18-.56.86-2,3-1.47,2.18-1.78,3.07-2,3-.32-.11-.23-2.31,1-3.99,1.07-1.47,2.78-2.24,3-2Z"/><path class="cls-5" d="m382.21,257.98c-.15.22-2.21-1.23-6.34-3.11-4.23-1.93-6.48-2.42-6.42-2.65.08-.3,4.09-.04,7.99,2,2.84,1.48,4.93,3.54,4.77,3.77Z"/><path class="cls-13" d="m248.49,284.41c.33,1.51,0,2.99,0,2.99-.2,1.29-.64,2.31-1,3-1,.99-2.59,2.79-4.99,3.99-3.99,2-7.7,3.32-9.99,3.99-26.17,7.7-48.93,6.99-48.93,6.99-11.22.07-27.84-1.25-46.93-4.99-9.35-1.83-20.86-4.79-21.97-10.98-.14-.81-.08-1.51,0-2,0,0,0,0,0,0,0-.03-.17-1,0-2,2.47-14.32,55.61-14.62,68.34-14.69,16.48-.09,62.34-.35,65.46,13.7Z"/><path class="cls-10" d="m247.99,283.75c0,8.5-36.06,16.98-66.76,16.97-30.62,0-66.76-8.46-66.76-16.97,0-8.56,36.52-17.15,67.78-16.97,30.06.17,65.75,8.52,65.75,16.97Z"/><path class="cls-14" d="m240.5,282.41c-6.68,2.18-14.01,4.24-21.97,5.99-13.18,2.9-25.31,4.36-35.95,4.99-8.92.38-20.63-.03-33.95-3-9.63-2.15-17.82-5.12-24.4-8.03.42-7.38,1.18-15.39,2.43-23.92,1.24-8.47,2.8-16.31,4.49-23.46,6.59,4.33,23.59,14.24,47.43,14.48,25.42.25,43.46-10.63,49.93-14.98,2.47,6.92,4.87,14.59,6.99,22.96,2.26,8.92,3.86,17.3,4.99,24.96Z"/><path class="cls-3" d="m228.52,235.49c0,8.5-25.2,15.98-47.93,15.97-22.67,0-49.92-7.46-49.93-15.97,0-8.56,26.53-16.15,49.68-15.97,22.26.17,48.18,7.52,48.18,15.97Z"/><path class="cls-8" d="m224.52,236.49c0,3.82-4.99,5.83-11.98,7.99-8.58,2.65-20.43,5-32.95,4.99-10.72,0-19.49-1.8-27.96-3.99-9.43-2.44-17.97-5.5-17.97-9.98,0-8.56,24.79-14.16,47.93-13.98,22.26.17,42.94,6.52,42.94,14.98Z"/><path class="cls-4" d="m211.04,289.9c-7.73,2.02-17.55,3.79-28.96,3.99-6.64.12-12.68-.31-17.97-1-.31-5.75-.38-12.11,0-18.97.49-8.92,1.62-16.96,3-23.96,6.02,1.02,13.87,1.74,22.97,1,6.55-.53,12.27-1.7,16.97-3,1.2,8.58,2.22,17.58,3,26.96.42,5.1.75,10.09,1,14.98Z"/><path class="cls-1" d="m240.5,282.41c-2.66.67-5.33,1.33-7.99,2-.62-6.21-1.44-12.71-2.5-19.47-1.3-8.3-2.83-16.13-4.49-23.46.67-2,1.33-3.99,2-5.99-.2-1.57-.12-1.97,0-2,.77-.2,5.37,13.96,8.49,26.46,2.27,9.08,3.64,16.82,4.49,22.46Z"/><path class="cls-1" d="m130.16,284.91c-1-.33-2-.67-3-1s-2-.67-3-1c.29-9.72,1.14-17.82,2-23.96,1.93-13.85,4.95-25.79,4.99-25.96h0v3.99h0c.24,1,.77,1.7,1,2,.21.27.51.6,1,1,1.1.9,2.75,1.86,3,2-2.04,7.08-3.9,15.46-4.99,24.96-.75,6.5-1.02,12.53-1,17.97Z"/><path class="cls-9" d="m225.02,240.98c-2.46,1.65-5.8,3.52-9.99,4.99-2.96,1.04-5.68,1.64-7.99,2,.34,2.98.68,5.97,1,8.99,1.19,11.16,2.18,22.14,3,32.95,4.41-.74,9.08-1.72,13.98-3,2.42-.63,4.75-1.3,6.99-2-.32-6.15-.94-12.84-2-19.97-1.31-8.83-3.07-16.84-4.99-23.96Z"/></svg>