<?xml version="1.0" encoding="UTF-8"?>
<svg id="Layer_2" data-name="Layer 2" xmlns="http://www.w3.org/2000/svg" viewBox="0 0 159.79 102.86">
  <defs>
    <style>
      .cls-1 {
        opacity: .5;
      }

      .cls-2 {
        fill: #f28f6b;
      }

      .cls-2, .cls-3 {
        stroke-width: 0px;
      }

      .cls-3 {
        fill: #f2f2f2;
      }
    </style>
  </defs>
  <g id="Timer">
    <g id="ramme">
      <g>
        <path class="cls-2" d="m159.79,67.86c0,13.81-36.26,35-81,35S.79,79.67.79,65.86,32.05,13.86,76.79,13.86s83,40.19,83,54Z"/>
        <path class="cls-2" d="m104.79,18.86c-.39-4.37,9.68-8.42,18-12,12.48-5.37,21.77-9.37,28-5,7.35,5.15,5.75,18.64,5,25-.54,4.58-1.9,18.58-8,20-5.3,1.23-7.73-8.54-21-17-12.2-7.78-21.63-6.82-22-11Z"/>
        <path class="cls-2" d="m51.74,17.31c.21-4.38-10.03-8-18.49-11.23C20.55,1.25,11.1-2.35,5.06,2.28-2.06,7.73.1,21.15,1.12,27.47c.73,4.55,2.69,18.49,8.84,19.64,5.35,1.01,7.37-8.86,20.26-17.87,11.86-8.29,21.32-7.73,21.51-11.92Z"/>
      </g>
      <g class="cls-1">
        <path class="cls-3" d="m155.79,66.98c0,12.58-34.25,31.88-76.49,31.88S5.64,77.73,5.64,65.16,35.17,17.79,77.41,17.79s78.38,36.61,78.38,49.19Z"/>
        <path class="cls-3" d="m107.79,21.86c-.37-3.98,5.21-7.19,13.06-10.45,11.79-4.89,21.06-9.53,26.94-5.55,6.94,4.69,4.93,17.98,4.22,23.77-.51,4.17-3.47,13.94-9.22,15.23-5.01,1.12-5.47-4.3-18-12-11.52-7.09-16.65-7.2-17-11Z"/>
        <path class="cls-3" d="m49.79,21.86c.2-3.99-6.01-7.06-14-10C23.8,7.45,13.49,1.65,7.79,5.86c-6.73,4.97-2.8,18.56-1.83,24.32.69,4.15,4.02,13.63,9.83,14.68,5.05.92,4.82-4.79,17-13,11.2-7.55,16.81-6.19,17-10Z"/>
      </g>
    </g>
  </g>
</svg>