<?xml version="1.0" encoding="UTF-8"?><svg id="play_button" xmlns="http://www.w3.org/2000/svg" width="116" height="118" xmlns:xlink="http://www.w3.org/1999/xlink" viewBox="0 0 116 118"><defs><style>.cls-1{fill:#ede240;}.cls-1,.cls-2,.cls-3,.cls-4,.cls-5,.cls-6,.cls-7,.cls-8,.cls-9,.cls-10,.cls-11,.cls-12{stroke-width:0px;}.cls-2{fill:url(#linear-gradient);}.cls-3{fill:#909ca4;}.cls-4{fill:#b3c2cc;}.cls-5{fill:#0d0d0d;}.cls-6{fill:url(#linear-gradient-2);}.cls-7{fill:url(#radial-gradient-2);}.cls-8{fill:url(#linear-gradient-3);}.cls-9{fill:url(#radial-gradient);}.cls-10{fill:url(#radial-gradient-3);}.cls-11{fill:#dfd43c;}.cls-12{fill:#e6db3e;}</style><radialGradient id="radial-gradient" cx="58.05" cy="138.02" fx="58.05" fy="138.02" r="69.38" gradientTransform="translate(-8.06 50.8) rotate(-41.7) scale(.9 .22) skewX(-2.3)" gradientUnits="userSpaceOnUse"><stop offset="0" stop-color="#fff"/><stop offset=".16" stop-color="#f7f8f8"/><stop offset=".39" stop-color="#e2e6e8"/><stop offset=".67" stop-color="#c1c8cc"/><stop offset=".99" stop-color="#929ea6"/><stop offset="1" stop-color="#929ea6"/></radialGradient><linearGradient id="linear-gradient" x1="51.04" y1="124.09" x2="67.81" y2="115.65" gradientTransform="translate(-42.29 -16.74) rotate(-35.62) scale(1.07 .99)" gradientUnits="userSpaceOnUse"><stop offset="0" stop-color="#929ea6"/><stop offset="1" stop-color="#fff"/></linearGradient><linearGradient id="linear-gradient-2" x1="48.83" y1="133.39" x2="66.82" y2="137.55" gradientTransform="translate(-42.29 -16.74) rotate(-35.62) scale(1.07 .99)" gradientUnits="userSpaceOnUse"><stop offset="0" stop-color="#fff"/><stop offset=".09" stop-color="#f7f8f8"/><stop offset=".22" stop-color="#e2e6e8"/><stop offset=".37" stop-color="#c1c8cc"/><stop offset=".55" stop-color="#929ea6"/><stop offset=".55" stop-color="#929ea6"/></linearGradient><linearGradient id="linear-gradient-3" x1="30.77" y1="142.99" x2="28.45" y2="121.2" gradientTransform="translate(-42.29 -16.74) rotate(-35.62) scale(1.07 .99)" gradientUnits="userSpaceOnUse"><stop offset="0" stop-color="#fff"/><stop offset=".08" stop-color="#f7f8f8"/><stop offset=".21" stop-color="#e2e6e8"/><stop offset=".36" stop-color="#c1c8cc"/><stop offset=".53" stop-color="#929ea6"/><stop offset=".53" stop-color="#929ea6"/></linearGradient><radialGradient id="radial-gradient-2" cx="11.25" cy="145" fx="11.25" fy="145" r="2.51" gradientTransform="translate(-52.73 -49.45) rotate(-34.15) scale(.88 .95) skewX(-9.19)" xlink:href="#radial-gradient"/><radialGradient id="radial-gradient-3" cx="28.26" cy="140.55" fx="28.26" fy="140.55" r="7.2" gradientTransform="translate(-52.73 -49.45) rotate(-34.15) scale(.88 .95) skewX(-9.19)" xlink:href="#radial-gradient"/></defs><path class="cls-12" d="m116,36.71c-9.86,13.82-23.67,30.6-42.14,46.76-18.95,16.58-36.99,27.42-51.28,34.53-4.03-3.87-8.95-9.36-13.65-16.81-3.76-5.96-6.43-11.68-8.32-16.49,13.76-3.84,38.51-13.12,62.43-37.17C79.03,31.44,89.16,14.26,95.29,1.79c3.59,4.84,7.38,10.42,11.15,16.79,3.78,6.37,6.93,12.49,9.56,18.13Z"/><path class="cls-9" d="m95.29,1.79c-3.71-6.53-31.33,5.69-52.23,22.63C17.2,45.38-3.88,78.02.6,84.7c4.55,6.77,35.63-12.76,56.82-31.81C76.23,35.98,99.21,8.68,95.29,1.79Z"/><path class="cls-3" d="m25.68,49c-.34-.38-5.8,5.17-10.68,12.66-4.37,6.69-7.38,13.56-7.01,13.85.22.18,1.57-2,8.95-13.07,7.62-11.43,8.92-13.24,8.74-13.44Z"/><path class="cls-3" d="m87.04,6.15c-.15-.49-9.27,2.19-19.22,7.37-10.57,5.51-18.79,12.12-18.57,12.6.18.39,5.98-3.45,18.78-10.22,12.71-6.71,19.13-9.33,19-9.76Z"/><path class="cls-3" d="m30.18,67.82c.22.46,8.82-4.05,17.87-11.17,9.62-7.57,16.77-15.77,16.49-16.19-.23-.35-5.39,4.62-17.04,13.89-11.56,9.2-17.5,13.09-17.32,13.48Z"/><path class="cls-2" d="m82.9,35.29c.29-.93-.54-1.72-1.28-1.2-2.04,1.43-4.84,3.93-7.01,7.99-1.97,3.69-2.62,7.19-2.85,9.37-.05.47.18.9.56,1.05l3.98,1.6c.49.2,1.05-.14,1.22-.74.87-3.02,1.74-6.05,2.61-9.07.93-3,1.85-6,2.78-9.01Z"/><path class="cls-6" d="m94.91,50.87c.72-.31,1.33.55.94,1.33-.96,1.9-2.36,4.15-4.4,6.26-5.27,5.44-11.31,6.35-13.98,6.5-.48.03-.85-.43-.79-.99.3-2.97.59-5.94.89-8.91.05-.54.48-.95.94-.91,2.37.22,4.73.44,7.1.67.12.01.24,0,.36-.06,2.98-1.3,5.97-2.59,8.95-3.89Z"/><path class="cls-8" d="m77.5,52.67c-4.17-4.84-20.29,1.88-28.53,15.09-5.41,8.66-8.29,21.5-4.63,24.69,3.67,3.2,12.84-4.25,18.41-8.77,5.5-4.46,12.56-10.37,14.9-20.37.78-3.34,1.92-8.24-.14-10.64Z"/><ellipse class="cls-5" cx="53.53" cy="78.73" rx="2.12" ry="2.52"/><path class="cls-4" d="m34.75,54.81c-.05-2.94-1.4-6.78-3.59-7.61-6.67-2.51-21.8,22.66-18.78,26.9,1.94,2.73,11.55-2.98,17.29-9.23,2.34-2.55,5.15-5.7,5.08-10.06Z"/><path class="cls-7" d="m17.38,69.13c-.84-.96-2.17-.94-2.98.05-.81.99-.79,2.58.05,3.55.84.96,2.17.94,2.98-.05.81-.99.79-2.58-.05-3.55Z"/><path class="cls-10" d="m29.87,50.99c-2.04-1.05-4.35,1.09-6.02,2.64-1.82,1.68-3.81,3.54-3.78,6.44.03,3.06,2.3,6.16,4.66,6.26,1.79.07,3.04-1.61,4.9-4.09,1.46-1.95,2.47-3.3,2.6-5.42.13-2.08-.6-4.92-2.36-5.83Z"/><path class="cls-1" d="m9.63,88.71c.32,3.26,1.02,7.54,2.58,12.27,1.81,5.51,4.14,9.67,6,12.5-2.88-3.2-6.11-7.26-9.28-12.3-3.77-5.98-6.43-11.7-8.32-16.49,5.62-1.38,13.49-3.76,22.47-8.05,15.77-7.53,26.4-16.84,35.01-24.48,7.25-6.43,16.56-15.61,26.38-28.05-8.46,12.26-21.1,27.88-38.85,42.17-13.16,10.59-25.68,17.66-35.98,22.44Z"/><path class="cls-11" d="m116,36.71c-6.44,9.03-14.01,18.54-22.86,28.04-19.9,21.37-39.86,35.8-56.38,45.56,17.43-13.25,31.86-25.65,43.23-36.05,17.39-15.89,22.47-23.73,21.72-31.7-1-10.58-12.83-23.91-10.34-28.2.1-.18,1.26-2.11,2.62-4.82.73-1.46,1.03-2.16,1.24-3.03.46-1.92.27-3.64.05-4.74,4.09,5.58,8.38,12.03,12.62,19.4,3.09,5.37,5.77,10.58,8.1,15.52Z"/></svg>